%FSLAX25Y25*%
%MOIN*%
G70*
G01*
G75*
G04 Layer_Color=8388736*
%ADD10C,0.03000*%
%ADD11C,0.05000*%
%ADD12R,0.09055X0.05906*%
%ADD13R,0.05906X0.05512*%
%ADD14R,0.05512X0.05906*%
%ADD15R,0.18000X0.19000*%
%ADD16R,0.18000X0.18000*%
%ADD17C,0.09843*%
%ADD18C,0.05906*%
%ADD19C,0.07087*%
%ADD20R,0.07087X0.07087*%
%ADD21C,0.07874*%
%ADD22C,0.06299*%
%ADD23R,0.06299X0.06299*%
%ADD24C,0.06299*%
%ADD25C,0.27000*%
%ADD26O,0.11811X0.09843*%
%ADD27R,0.11811X0.09843*%
%ADD28R,0.07087X0.07087*%
%ADD29C,0.11811*%
%ADD30R,0.05906X0.09055*%
%ADD31O,0.02756X0.09843*%
%ADD32R,0.04803X0.04921*%
%ADD33C,0.06000*%
%ADD34R,0.23000X0.29000*%
%ADD35R,0.50800X0.48500*%
%ADD36R,0.25000X0.07000*%
%ADD37R,0.71440X1.29200*%
%ADD38R,0.94240X1.26700*%
%ADD39R,0.80583X2.30800*%
%ADD40R,0.73443X0.74200*%
%ADD41R,0.26000X0.12800*%
%ADD42R,0.18000X2.24000*%
%ADD43C,0.00787*%
%ADD44C,0.02362*%
%ADD45C,0.00984*%
%ADD46C,0.01000*%
%ADD47C,0.00800*%
%ADD48C,0.00591*%
%ADD49R,1.90000X1.86000*%
%ADD50R,0.15800X0.01900*%
%ADD51R,0.09855X0.06706*%
%ADD52R,0.06706X0.06312*%
%ADD53R,0.06312X0.06706*%
%ADD54C,0.10642*%
%ADD55C,0.06706*%
%ADD56C,0.07887*%
%ADD57R,0.07887X0.07887*%
%ADD58C,0.08674*%
%ADD59C,0.07099*%
%ADD60R,0.07099X0.07099*%
%ADD61C,0.07099*%
%ADD62C,0.27800*%
%ADD63O,0.12611X0.10642*%
%ADD64R,0.12611X0.10642*%
%ADD65R,0.07887X0.07887*%
%ADD66C,0.12611*%
D51*
X2778000Y820066D02*
D03*
Y829934D02*
D03*
X2637000Y894000D02*
D03*
Y884132D02*
D03*
X2611000Y887066D02*
D03*
Y896934D02*
D03*
X2677000Y906066D02*
D03*
Y915934D02*
D03*
D52*
X2741800Y817700D02*
D03*
Y825574D02*
D03*
X2637000Y925126D02*
D03*
Y933000D02*
D03*
D53*
X2754863Y802700D02*
D03*
X2762737D02*
D03*
X2754863Y813200D02*
D03*
X2762737D02*
D03*
X2628000Y916000D02*
D03*
X2635874D02*
D03*
X2656063Y906000D02*
D03*
X2663937D02*
D03*
X2656063Y916000D02*
D03*
X2663937D02*
D03*
D54*
X3180392Y789700D02*
D03*
X3117400Y789700D02*
D03*
D55*
X3025000Y746000D02*
D03*
X3110000Y783000D02*
D03*
X3025000Y721000D02*
D03*
X3110000Y776000D02*
D03*
D56*
X2778000Y807000D02*
D03*
X2772000Y841000D02*
D03*
X2782000D02*
D03*
X2772000Y851000D02*
D03*
X3207000Y843000D02*
D03*
X3197000D02*
D03*
X3207000Y853000D02*
D03*
X2621900Y906700D02*
D03*
X2641900D02*
D03*
X2663300Y866200D02*
D03*
X2673300D02*
D03*
X2683300D02*
D03*
X2693300D02*
D03*
X2703300D02*
D03*
X2713300D02*
D03*
X2723300D02*
D03*
X2733300D02*
D03*
X2663300Y896200D02*
D03*
X2673300D02*
D03*
X2683300D02*
D03*
X2693300D02*
D03*
X2703300D02*
D03*
X2713300D02*
D03*
X2723300D02*
D03*
X3079000Y942332D02*
D03*
X3089000D02*
D03*
X3079000Y932332D02*
D03*
X3034000Y855000D02*
D03*
Y865000D02*
D03*
X3044000Y855000D02*
D03*
X3170000Y942332D02*
D03*
X3180000D02*
D03*
X3170000Y932332D02*
D03*
X2619000Y853000D02*
D03*
Y863000D02*
D03*
X2609000Y853000D02*
D03*
X2654000Y930332D02*
D03*
X2664000D02*
D03*
X2654000Y940332D02*
D03*
X2745000Y930332D02*
D03*
X2755000D02*
D03*
X2745000Y940332D02*
D03*
X2713000Y855000D02*
D03*
X2683000D02*
D03*
X2649000Y916000D02*
D03*
X2619000D02*
D03*
X2628000Y930000D02*
D03*
D57*
X2782000Y851000D02*
D03*
X3197000Y853000D02*
D03*
X2733300Y896200D02*
D03*
X3089000Y932332D02*
D03*
X3180000D02*
D03*
X2664000Y940332D02*
D03*
X2755000D02*
D03*
D58*
X2729611Y833700D02*
D03*
X2630000Y854000D02*
D03*
X2740000Y853000D02*
D03*
D59*
X2717800Y833700D02*
D03*
X2681000Y810000D02*
D03*
Y827717D02*
D03*
D60*
X2741800Y803700D02*
D03*
D61*
X2731800D02*
D03*
X2721800D02*
D03*
D62*
X3079130Y734300D02*
D03*
X3138151D02*
D03*
Y685100D02*
D03*
X3079130D02*
D03*
X3138173Y844200D02*
D03*
X3079151D02*
D03*
Y893400D02*
D03*
X3138173D02*
D03*
D63*
X2763000Y890000D02*
D03*
Y870000D02*
D03*
D64*
Y910000D02*
D03*
D65*
X3044000Y865000D02*
D03*
X2609000Y863000D02*
D03*
D66*
X2650000Y853000D02*
D03*
M02*
