%FSLAX25Y25*%
%MOIN*%
G70*
G01*
G75*
%ADD10C,0.03000*%
%ADD11C,0.05000*%
%ADD12R,0.09055X0.05906*%
%ADD13R,0.05906X0.05512*%
%ADD14R,0.05512X0.05906*%
%ADD15R,0.18000X0.19000*%
%ADD16R,0.18000X0.18000*%
%ADD17C,0.09843*%
%ADD18C,0.05906*%
%ADD19C,0.07087*%
%ADD20R,0.07087X0.07087*%
%ADD21C,0.07874*%
%ADD22C,0.06299*%
%ADD23R,0.06299X0.06299*%
%ADD24C,0.06299*%
%ADD25C,0.27000*%
%ADD26O,0.11811X0.09843*%
%ADD27R,0.11811X0.09843*%
%ADD28R,0.07087X0.07087*%
%ADD29C,0.11811*%
%ADD30R,0.05906X0.09055*%
%ADD31O,0.02756X0.09843*%
%ADD32R,0.04803X0.04921*%
%ADD33C,0.06000*%
%ADD34R,0.23000X0.29000*%
%ADD35R,0.50800X0.48500*%
%ADD36R,0.25000X0.07000*%
%ADD37R,0.71440X1.29200*%
%ADD38R,0.94240X1.26700*%
%ADD39R,0.80583X2.30800*%
%ADD40R,0.73443X0.74200*%
%ADD41R,0.26000X0.12800*%
%ADD42R,0.18000X2.24000*%
%ADD43C,0.00787*%
%ADD44C,0.02362*%
%ADD45C,0.00984*%
%ADD46C,0.01000*%
%ADD47C,0.00800*%
%ADD48C,0.00591*%
%ADD49R,1.90000X1.86000*%
%ADD50R,0.15800X0.01900*%
D43*
X2739847Y833700D02*
G03*
X2739847Y833700I-16142J0D01*
G01*
X3087588Y734306D02*
G03*
X3087588Y734306I-8465J0D01*
G01*
X3146643D02*
G03*
X3146643Y734306I-8465J0D01*
G01*
X3087588Y685094D02*
G03*
X3087588Y685094I-8465J0D01*
G01*
X3146643D02*
G03*
X3146643Y685094I-8465J0D01*
G01*
Y844194D02*
G03*
X3146643Y844194I-8465J0D01*
G01*
X3087588D02*
G03*
X3087588Y844194I-8465J0D01*
G01*
X3146643Y893406D02*
G03*
X3146643Y893406I-8465J0D01*
G01*
X3087588D02*
G03*
X3087588Y893406I-8465J0D01*
G01*
X2738851Y883700D02*
G03*
X2738851Y878700I0J-2500D01*
G01*
X2706984Y818858D02*
G03*
X2706984Y818858I-25984J0D01*
G01*
X3110000Y733000D02*
Y783000D01*
X3098000Y721000D02*
X3110000Y733000D01*
Y756000D02*
Y776000D01*
X3100500Y746500D02*
X3110000Y756000D01*
X3093047Y746500D02*
X3100500D01*
X3025000D02*
X3045213D01*
X3093047D02*
Y756343D01*
X3045213D02*
X3093047D01*
X3045213Y736657D02*
Y756343D01*
Y736657D02*
X3093047D01*
Y746500D01*
X3093287Y721000D02*
X3098000D01*
X3025000D02*
X3045453D01*
X3093287D02*
Y730842D01*
X3045453D02*
X3093287D01*
X3045453Y711158D02*
Y730842D01*
Y711158D02*
X3093287D01*
Y721000D01*
X2778000Y835433D02*
X2785874D01*
Y814567D02*
Y835433D01*
X2770126Y814567D02*
X2785874D01*
X2770126D02*
Y835433D01*
X2778000D01*
X3212000Y838000D02*
Y858000D01*
X3192000D02*
X3212000D01*
X3192000Y838000D02*
X3212000D01*
X3192000D02*
Y858000D01*
X2733847Y833700D02*
X2737847D01*
X2735847Y831700D02*
Y835700D01*
X2710737Y794448D02*
X2752863D01*
X2710737Y792480D02*
X2752863D01*
X2710737Y810983D02*
X2752863D01*
Y792480D02*
Y810983D01*
X2710737Y792480D02*
Y810983D01*
X3180895Y701039D02*
X3184045D01*
X3130403Y747774D02*
X3145954D01*
Y720839D02*
X3153730Y734306D01*
X3122628D02*
X3130403Y720839D01*
X3122628Y734306D02*
X3130403Y747774D01*
X3145954D02*
X3153730Y734306D01*
X3130403Y720839D02*
X3145954D01*
X3178478Y659109D02*
X3184045Y664676D01*
X3033257D02*
X3038824Y659109D01*
X3178478Y760291D02*
X3184045Y754724D01*
X3038824Y760291D02*
X3178478D01*
X3038824Y659109D02*
X3178478D01*
X3033257Y664676D02*
Y754724D01*
X3038824Y760291D01*
X3130403Y698561D02*
X3145954D01*
Y671626D02*
X3153730Y685094D01*
X3122628D02*
X3130403Y671626D01*
X3122628Y685094D02*
X3130403Y698561D01*
X3145954D02*
X3153730Y685094D01*
X3130403Y671626D02*
X3145954D01*
X3071348Y698561D02*
X3086899D01*
Y671626D02*
X3094675Y685094D01*
X3063573D02*
X3071348Y671626D01*
X3063573Y685094D02*
X3071348Y698561D01*
X3086899D02*
X3094675Y685094D01*
X3071348Y671626D02*
X3086899D01*
X3071348Y747774D02*
X3086899D01*
Y720839D02*
X3094675Y734306D01*
X3063573D02*
X3071348Y720839D01*
X3063573Y734306D02*
X3071348Y747774D01*
X3086899D02*
X3094675Y734306D01*
X3071348Y720839D02*
X3086899D01*
X3183938Y664783D02*
Y701039D01*
X3184045Y718361D02*
Y754724D01*
X3180895Y718361D02*
X3184045D01*
X3033257Y877461D02*
X3036407D01*
X3071348Y830726D02*
X3086899D01*
X3063573Y844194D02*
X3071348Y857661D01*
X3086899D02*
X3094675Y844194D01*
X3086899Y830726D02*
X3094675Y844194D01*
X3063573D02*
X3071348Y830726D01*
Y857661D02*
X3086899D01*
X3033257Y913824D02*
X3038824Y919390D01*
X3178478D02*
X3184045Y913824D01*
X3033257Y823776D02*
X3038824Y818209D01*
X3178478D01*
X3038824Y919390D02*
X3178478D01*
X3184045Y823776D02*
Y913824D01*
X3178478Y818209D02*
X3184045Y823776D01*
X3071348Y879939D02*
X3086899D01*
X3063573Y893406D02*
X3071348Y906874D01*
X3086899D02*
X3094675Y893406D01*
X3086899Y879939D02*
X3094675Y893406D01*
X3063573D02*
X3071348Y879939D01*
Y906874D02*
X3086899D01*
X3130403Y879939D02*
X3145954D01*
X3122628Y893406D02*
X3130403Y906874D01*
X3145954D02*
X3153730Y893406D01*
X3145954Y879939D02*
X3153730Y893406D01*
X3122628D02*
X3130403Y879939D01*
Y906874D02*
X3145954D01*
X3130403Y830726D02*
X3145954D01*
X3122628Y844194D02*
X3130403Y857661D01*
X3145954D02*
X3153730Y844194D01*
X3145954Y830726D02*
X3153730Y844194D01*
X3122628D02*
X3130403Y830726D01*
Y857661D02*
X3145954D01*
X3033365Y877461D02*
Y913717D01*
X3033257Y823776D02*
Y860139D01*
X3036407D01*
X2657749Y870767D02*
Y891633D01*
X2738851Y870767D02*
Y878700D01*
Y883700D02*
Y891633D01*
X2657749Y870767D02*
X2738851D01*
X2657749Y891633D02*
X2738851D01*
X2681000Y800874D02*
Y804874D01*
X2679000Y802874D02*
X2683000D01*
X3074000Y927332D02*
Y947332D01*
Y927332D02*
X3094000D01*
X3074000Y947332D02*
X3094000D01*
Y927332D02*
Y947332D01*
X3029000Y850000D02*
X3049000D01*
Y870000D01*
X3029000Y850000D02*
Y870000D01*
X3049000D01*
X3165000Y927332D02*
Y947332D01*
Y927332D02*
X3185000D01*
X3165000Y947332D02*
X3185000D01*
Y927332D02*
Y947332D01*
X2629126Y878633D02*
X2637000D01*
X2629126D02*
Y899499D01*
X2644874D01*
Y878633D02*
Y899499D01*
X2637000Y878633D02*
X2644874D01*
X2739241Y821637D02*
X2744359D01*
X2758800Y800141D02*
Y805259D01*
Y810641D02*
Y815759D01*
X2634441Y929063D02*
X2639559D01*
X2631937Y913441D02*
Y918559D01*
X2611000Y902433D02*
X2618874D01*
Y881567D02*
Y902433D01*
X2603126Y881567D02*
X2618874D01*
X2603126D02*
Y902433D01*
X2611000D01*
X2677000Y921433D02*
X2684874D01*
Y900567D02*
Y921433D01*
X2669126Y900567D02*
X2684874D01*
X2669126D02*
Y921433D01*
X2677000D01*
X2660000Y903441D02*
Y908559D01*
Y913441D02*
Y918559D01*
D44*
X2736095Y887696D02*
G03*
X2736095Y887696I-1181J0D01*
G01*
D45*
X2738910Y896200D02*
G03*
X2738910Y896200I-492J0D01*
G01*
D46*
X2626900Y909700D02*
X2636900D01*
X2626900Y903700D02*
Y909700D01*
Y903700D02*
X2636900D01*
Y909700D01*
X3027400Y759700D02*
Y765698D01*
X3030399D01*
X3031399Y764698D01*
Y762699D01*
X3030399Y761699D01*
X3027400D01*
X3029399D02*
X3031399Y759700D01*
X3037397Y764698D02*
X3036397Y765698D01*
X3034398D01*
X3033398Y764698D01*
Y763699D01*
X3034398Y762699D01*
X3036397D01*
X3037397Y761699D01*
Y760700D01*
X3036397Y759700D01*
X3034398D01*
X3033398Y760700D01*
X3043395Y759700D02*
X3039396D01*
X3043395Y763699D01*
Y764698D01*
X3042395Y765698D01*
X3040396D01*
X3039396Y764698D01*
X3192600Y866800D02*
Y872798D01*
X3195599D01*
X3196599Y871798D01*
Y869799D01*
X3195599Y868799D01*
X3192600D01*
X3198598Y866800D02*
X3200597D01*
X3199598D01*
Y872798D01*
X3198598Y871798D01*
X3203596Y866800D02*
X3205596D01*
X3204596D01*
Y872798D01*
X3203596Y871798D01*
X2658400Y908598D02*
Y903600D01*
X2659400Y902600D01*
X2661399D01*
X2662399Y903600D01*
Y908598D01*
X2664398Y907598D02*
X2665398Y908598D01*
X2667397D01*
X2668397Y907598D01*
Y906599D01*
X2667397Y905599D01*
X2666397D01*
X2667397D01*
X2668397Y904599D01*
Y903600D01*
X2667397Y902600D01*
X2665398D01*
X2664398Y903600D01*
X2711300Y820398D02*
Y815400D01*
X2712300Y814400D01*
X2714299D01*
X2715299Y815400D01*
Y820398D01*
X2717298Y814400D02*
X2719297D01*
X2718298D01*
Y820398D01*
X2717298Y819398D01*
X3037899Y927798D02*
X3036899Y928798D01*
X3034900D01*
X3033900Y927798D01*
Y926799D01*
X3034900Y925799D01*
X3036899D01*
X3037899Y924799D01*
Y923800D01*
X3036899Y922800D01*
X3034900D01*
X3033900Y923800D01*
X3043897Y922800D02*
X3039898D01*
X3043897Y926799D01*
Y927798D01*
X3042897Y928798D01*
X3040898D01*
X3039898Y927798D01*
X3037899Y768698D02*
X3036899Y769698D01*
X3034900D01*
X3033900Y768698D01*
Y767699D01*
X3034900Y766699D01*
X3036899D01*
X3037899Y765699D01*
Y764700D01*
X3036899Y763700D01*
X3034900D01*
X3033900Y764700D01*
X3039898Y763700D02*
X3041897D01*
X3040898D01*
Y769698D01*
X3039898Y768698D01*
X3113740Y727000D02*
X3119738D01*
Y724001D01*
X3118739Y723001D01*
X3116739D01*
X3115739Y724001D01*
Y727000D01*
Y725001D02*
X3113740Y723001D01*
X3118739Y717003D02*
X3119738Y718003D01*
Y720002D01*
X3118739Y721002D01*
X3117739D01*
X3116739Y720002D01*
Y718003D01*
X3115739Y717003D01*
X3114740D01*
X3113740Y718003D01*
Y720002D01*
X3114740Y721002D01*
X3113740Y715004D02*
Y713004D01*
Y714004D01*
X3119738D01*
X3118739Y715004D01*
X2652100Y926100D02*
Y932098D01*
X2655099D01*
X2656099Y931098D01*
Y929099D01*
X2655099Y928099D01*
X2652100D01*
X2654099D02*
X2656099Y926100D01*
X2660097Y924101D02*
X2661097D01*
X2662097Y925100D01*
Y930099D01*
X2659098D01*
X2658098Y929099D01*
Y927100D01*
X2659098Y926100D01*
X2662097D01*
X2664096Y930099D02*
Y926100D01*
Y928099D01*
X2665096Y929099D01*
X2666096Y930099D01*
X2667095D01*
X2670094Y926100D02*
X2672094D01*
X2671094D01*
Y930099D01*
X2670094D01*
X2675093Y926100D02*
X2678092D01*
X2679091Y927100D01*
X2678092Y928099D01*
X2676092D01*
X2675093Y929099D01*
X2676092Y930099D01*
X2679091D01*
X2684090Y926100D02*
X2682090D01*
X2681091Y927100D01*
Y929099D01*
X2682090Y930099D01*
X2684090D01*
X2685089Y929099D01*
Y928099D01*
X2681091D01*
X2652100Y916100D02*
Y922098D01*
X2655099D01*
X2656099Y921098D01*
Y919099D01*
X2655099Y918099D01*
X2652100D01*
X2654099D02*
X2656099Y916100D01*
X2660097Y914101D02*
X2661097D01*
X2662097Y915100D01*
Y920099D01*
X2659098D01*
X2658098Y919099D01*
Y917100D01*
X2659098Y916100D01*
X2662097D01*
X2665096D02*
Y921098D01*
Y919099D01*
X2664096D01*
X2666096D01*
X2665096D01*
Y921098D01*
X2666096Y922098D01*
X2670094Y920099D02*
X2672094D01*
X2673093Y919099D01*
Y916100D01*
X2670094D01*
X2669094Y917100D01*
X2670094Y918099D01*
X2673093D01*
X2675093Y916100D02*
X2677092D01*
X2676092D01*
Y922098D01*
X2675093D01*
X2680091Y916100D02*
X2682090D01*
X2681091D01*
Y922098D01*
X2680091D01*
X2779363Y815700D02*
Y809702D01*
X2776364D01*
X2775364Y810702D01*
Y812701D01*
X2776364Y813701D01*
X2779363D01*
X2777364D02*
X2775364Y815700D01*
X2769366Y809702D02*
X2771366Y810702D01*
X2773365Y812701D01*
Y814700D01*
X2772365Y815700D01*
X2770366D01*
X2769366Y814700D01*
Y813701D01*
X2770366Y812701D01*
X2773365D01*
X3074600Y955432D02*
Y961430D01*
X3077599D01*
X3078599Y960431D01*
Y958431D01*
X3077599Y957432D01*
X3074600D01*
X3080598Y961430D02*
X3084597D01*
Y960431D01*
X3080598Y956432D01*
Y955432D01*
X2743800Y923000D02*
Y928998D01*
X2746799D01*
X2747799Y927998D01*
Y925999D01*
X2746799Y924999D01*
X2743800D01*
X2753797Y928998D02*
X2749798D01*
Y925999D01*
X2751797Y926999D01*
X2752797D01*
X2753797Y925999D01*
Y924000D01*
X2752797Y923000D01*
X2750798D01*
X2749798Y924000D01*
X3024900Y873400D02*
Y879398D01*
X3027899D01*
X3028899Y878398D01*
Y876399D01*
X3027899Y875399D01*
X3024900D01*
X3033897Y873400D02*
Y879398D01*
X3030898Y876399D01*
X3034897D01*
X2785237Y799702D02*
Y805700D01*
X2781238D01*
X2779239Y799702D02*
Y805700D01*
X2776240D01*
X2775240Y804700D01*
Y800702D01*
X2776240Y799702D01*
X2779239D01*
X2769242Y805700D02*
X2773241D01*
X2769242Y801701D01*
Y800702D01*
X2770242Y799702D01*
X2772241D01*
X2773241Y800702D01*
X2669700Y932832D02*
Y926834D01*
X2672699D01*
X2673699Y927834D01*
Y931832D01*
X2672699Y932832D01*
X2669700D01*
X2677697Y924835D02*
X2678697D01*
X2679697Y925834D01*
Y930833D01*
X2676698D01*
X2675698Y929833D01*
Y927834D01*
X2676698Y926834D01*
X2679697D01*
X2682696D02*
Y931832D01*
Y929833D01*
X2681696D01*
X2683695D01*
X2682696D01*
Y931832D01*
X2683695Y932832D01*
X2687694Y930833D02*
X2689693D01*
X2690693Y929833D01*
Y926834D01*
X2687694D01*
X2686695Y927834D01*
X2687694Y928833D01*
X2690693D01*
X2692693Y926834D02*
X2694692D01*
X2693692D01*
Y932832D01*
X2692693D01*
X2697691Y926834D02*
X2699690D01*
X2698691D01*
Y932832D01*
X2697691D01*
X2640498Y897266D02*
X2634500D01*
Y894267D01*
X2635500Y893267D01*
X2639498D01*
X2640498Y894267D01*
Y897266D01*
Y891268D02*
X2634500D01*
Y888269D01*
X2635500Y887269D01*
X2636499D01*
X2637499D01*
X2638499Y888269D01*
Y891268D01*
X2634500Y885270D02*
Y882271D01*
X2635500Y881271D01*
X2636499Y882271D01*
Y884270D01*
X2637499Y885270D01*
X2638499Y884270D01*
Y881271D01*
X2767998Y831000D02*
X2762000D01*
Y828001D01*
X2763000Y827001D01*
X2766998D01*
X2767998Y828001D01*
Y831000D01*
X2766998Y825002D02*
X2767998Y824002D01*
Y822003D01*
X2766998Y821003D01*
X2765999D01*
X2764999Y822003D01*
Y823003D01*
Y822003D01*
X2763999Y821003D01*
X2763000D01*
X2762000Y822003D01*
Y824002D01*
X2763000Y825002D01*
X2603700Y911798D02*
Y905800D01*
X2606699D01*
X2607699Y906800D01*
Y910798D01*
X2606699Y911798D01*
X2603700D01*
X2609698Y905800D02*
X2611697D01*
X2610698D01*
Y911798D01*
X2609698Y910798D01*
X2623999Y918198D02*
X2622999Y919198D01*
X2621000D01*
X2620000Y918198D01*
Y914200D01*
X2621000Y913200D01*
X2622999D01*
X2623999Y914200D01*
X2625998Y919198D02*
Y913200D01*
X2628997D01*
X2629997Y914200D01*
Y915199D01*
Y916199D01*
X2628997Y917199D01*
X2625998D01*
X2631996Y913200D02*
X2634995D01*
X2635995Y914200D01*
X2634995Y915199D01*
X2632996D01*
X2631996Y916199D01*
X2632996Y917199D01*
X2635995D01*
X2724801Y839702D02*
X2725801Y838702D01*
X2727800D01*
X2728800Y839702D01*
Y843700D01*
X2727800Y844700D01*
X2725801D01*
X2724801Y843700D01*
X2719803Y844700D02*
Y838702D01*
X2722802Y841701D01*
X2718803D01*
X2743798Y837701D02*
X2744798Y838701D01*
Y840700D01*
X2743798Y841700D01*
X2739800D01*
X2738800Y840700D01*
Y838701D01*
X2739800Y837701D01*
X2743798Y835702D02*
X2744798Y834702D01*
Y832703D01*
X2743798Y831703D01*
X2742799D01*
X2741799Y832703D01*
Y833703D01*
Y832703D01*
X2740799Y831703D01*
X2739800D01*
X2738800Y832703D01*
Y834702D01*
X2739800Y835702D01*
X2694501Y815002D02*
X2695501Y814002D01*
X2697500D01*
X2698500Y815002D01*
Y819000D01*
X2697500Y820000D01*
X2695501D01*
X2694501Y819000D01*
X2688503Y820000D02*
X2692502D01*
X2688503Y816001D01*
Y815002D01*
X2689503Y814002D01*
X2691502D01*
X2692502Y815002D01*
X3165600Y955432D02*
Y961430D01*
X3168599D01*
X3169599Y960431D01*
Y958431D01*
X3168599Y957432D01*
X3165600D01*
X3171598Y956432D02*
X3172598Y955432D01*
X3174597D01*
X3175597Y956432D01*
Y960431D01*
X3174597Y961430D01*
X3172598D01*
X3171598Y960431D01*
Y959431D01*
X3172598Y958431D01*
X3175597D01*
X2624100Y924100D02*
Y930098D01*
X2627099D01*
X2628099Y929098D01*
Y927099D01*
X2627099Y926099D01*
X2624100D01*
X2626099D02*
X2628099Y924100D01*
X2634097D02*
X2630098D01*
X2634097Y928099D01*
Y929098D01*
X2633097Y930098D01*
X2631098D01*
X2630098Y929098D01*
X2636096Y930098D02*
Y924100D01*
X2639095D01*
X2640095Y925100D01*
Y926099D01*
Y927099D01*
X2639095Y928099D01*
X2636096D01*
X2632900Y940900D02*
Y946898D01*
X2635899D01*
X2636899Y945898D01*
Y943899D01*
X2635899Y942899D01*
X2632900D01*
X2634899D02*
X2636899Y940900D01*
X2642897D02*
X2638898D01*
X2642897Y944899D01*
Y945898D01*
X2641897Y946898D01*
X2639898D01*
X2638898Y945898D01*
X2648895Y944899D02*
X2645896D01*
X2644896Y943899D01*
Y941900D01*
X2645896Y940900D01*
X2648895D01*
D47*
X3195000Y861000D02*
Y859334D01*
Y860167D01*
X3199998D01*
X3199165Y861000D01*
X3205000Y859668D02*
Y863000D01*
X3208332Y859668D01*
X3209165D01*
X3209998Y860501D01*
Y862167D01*
X3209165Y863000D01*
X3205000Y834501D02*
X3209998D01*
X3207499Y837000D01*
Y833668D01*
X3199165Y837000D02*
X3199998Y836167D01*
Y834501D01*
X3199165Y833668D01*
X3198332D01*
X3197499Y834501D01*
Y835334D01*
Y834501D01*
X3196666Y833668D01*
X3195833D01*
X3195000Y834501D01*
Y836167D01*
X3195833Y837000D01*
X3091000Y924332D02*
Y925998D01*
Y925165D01*
X3086002D01*
X3086835Y924332D01*
X3081000Y925665D02*
Y922332D01*
X3077668Y925665D01*
X3076835D01*
X3076002Y924831D01*
Y923165D01*
X3076835Y922332D01*
X3081000Y950832D02*
X3076002D01*
X3078501Y948332D01*
Y951665D01*
X3086835Y948332D02*
X3086002Y949165D01*
Y950832D01*
X3086835Y951665D01*
X3087668D01*
X3088501Y950832D01*
Y949998D01*
Y950832D01*
X3089334Y951665D01*
X3090167D01*
X3091000Y950832D01*
Y949165D01*
X3090167Y948332D01*
X3052000Y867000D02*
X3050334D01*
X3051167D01*
Y862002D01*
X3052000Y862835D01*
X3050668Y857000D02*
X3054000D01*
X3050668Y853668D01*
Y852835D01*
X3051501Y852002D01*
X3053167D01*
X3054000Y852835D01*
X3025501Y857000D02*
Y852002D01*
X3028000Y854501D01*
X3024668D01*
X3028000Y862835D02*
X3027167Y862002D01*
X3025501D01*
X3024668Y862835D01*
Y863668D01*
X3025501Y864501D01*
X3026334D01*
X3025501D01*
X3024668Y865334D01*
Y866167D01*
X3025501Y867000D01*
X3027167D01*
X3028000Y866167D01*
X3182000Y924332D02*
Y925998D01*
Y925165D01*
X3177002D01*
X3177835Y924332D01*
X3172000Y925665D02*
Y922332D01*
X3168668Y925665D01*
X3167835D01*
X3167002Y924831D01*
Y923165D01*
X3167835Y922332D01*
X3172000Y950832D02*
X3167002D01*
X3169501Y948332D01*
Y951665D01*
X3177835Y948332D02*
X3177002Y949165D01*
Y950832D01*
X3177835Y951665D01*
X3178668D01*
X3179501Y950832D01*
Y949998D01*
Y950832D01*
X3180334Y951665D01*
X3181167D01*
X3182000Y950832D01*
Y949165D01*
X3181167Y948332D01*
D48*
X2748300Y806700D02*
X2746332D01*
X2747316D01*
Y800796D01*
X2748300Y801780D01*
X3054713Y677612D02*
X3053729Y678596D01*
X3051761D01*
X3050777Y677612D01*
Y676628D01*
X3051761Y675644D01*
X3053729D01*
X3054713Y674660D01*
Y673676D01*
X3053729Y672692D01*
X3051761D01*
X3050777Y673676D01*
X3166130Y676431D02*
X3165146Y677415D01*
X3163178D01*
X3162194Y676431D01*
Y672495D01*
X3163178Y671511D01*
X3165146D01*
X3166130Y672495D01*
Y674463D01*
X3164162D01*
X3162194Y747493D02*
Y741590D01*
X3165146D01*
X3166130Y742574D01*
Y746510D01*
X3165146Y747493D01*
X3162194D01*
X3053926Y745722D02*
X3052942Y746706D01*
X3050974D01*
X3049990Y745722D01*
Y744738D01*
X3050974Y743754D01*
X3052942D01*
X3053926Y742770D01*
Y741786D01*
X3052942Y740802D01*
X3050974D01*
X3049990Y741786D01*
X3162589Y900888D02*
X3163573Y899904D01*
X3165541D01*
X3166525Y900888D01*
Y901872D01*
X3165541Y902856D01*
X3163573D01*
X3162589Y903840D01*
Y904824D01*
X3163573Y905808D01*
X3165541D01*
X3166525Y904824D01*
X3051172Y902069D02*
X3052156Y901085D01*
X3054124D01*
X3055108Y902069D01*
Y906005D01*
X3054124Y906989D01*
X3052156D01*
X3051172Y906005D01*
Y904037D01*
X3053140D01*
X3055108Y831007D02*
Y836910D01*
X3052156D01*
X3051172Y835926D01*
Y831990D01*
X3052156Y831007D01*
X3055108D01*
X3163377Y832778D02*
X3164361Y831794D01*
X3166329D01*
X3167313Y832778D01*
Y833762D01*
X3166329Y834746D01*
X3164361D01*
X3163377Y835730D01*
Y836714D01*
X3164361Y837698D01*
X3166329D01*
X3167313Y836714D01*
D49*
X2694000Y876000D02*
D03*
D50*
X2778000Y815650D02*
D03*
X2637000Y898416D02*
D03*
X2611000Y882650D02*
D03*
X2677000Y901650D02*
D03*
M02*
