%FSLAX25Y25*%
%MOIN*%
G70*
G01*
G75*
G04 Layer_Color=32896*
%ADD10C,0.03000*%
%ADD11C,0.05000*%
%ADD12R,0.09055X0.05906*%
%ADD13R,0.05906X0.05512*%
%ADD14R,0.05512X0.05906*%
%ADD15R,0.18000X0.19000*%
%ADD16R,0.18000X0.18000*%
%ADD17C,0.09843*%
%ADD18C,0.05906*%
%ADD19C,0.07087*%
%ADD20R,0.07087X0.07087*%
%ADD21C,0.07874*%
%ADD22C,0.06299*%
%ADD23R,0.06299X0.06299*%
%ADD24C,0.06299*%
%ADD25C,0.27000*%
%ADD26O,0.11811X0.09843*%
%ADD27R,0.11811X0.09843*%
%ADD28R,0.07087X0.07087*%
%ADD29C,0.11811*%
%ADD30R,0.05906X0.09055*%
%ADD31O,0.02756X0.09843*%
%ADD32R,0.04803X0.04921*%
%ADD33C,0.06000*%
%ADD34R,0.23000X0.29000*%
%ADD35R,0.50800X0.48500*%
%ADD36R,0.25000X0.07000*%
%ADD37R,0.71440X1.29200*%
%ADD38R,0.94240X1.26700*%
%ADD39R,0.80583X2.30800*%
%ADD40R,0.73443X0.74200*%
%ADD41R,0.26000X0.12800*%
%ADD42R,0.18000X2.24000*%
%ADD43C,0.00787*%
%ADD44C,0.02362*%
%ADD45C,0.00984*%
%ADD46C,0.01000*%
%ADD47C,0.00800*%
%ADD48C,0.00591*%
%ADD49R,1.90000X1.86000*%
%ADD50R,0.15800X0.01900*%
%ADD51R,0.09855X0.06706*%
%ADD52R,0.06706X0.06312*%
%ADD53R,0.06312X0.06706*%
%ADD54C,0.10642*%
%ADD55C,0.06706*%
%ADD56C,0.07887*%
%ADD57R,0.07887X0.07887*%
%ADD58C,0.08674*%
%ADD59C,0.07099*%
%ADD60R,0.07099X0.07099*%
%ADD61C,0.07099*%
%ADD62C,0.27800*%
%ADD63O,0.12611X0.10642*%
%ADD64R,0.12611X0.10642*%
%ADD65R,0.07887X0.07887*%
%ADD66C,0.12611*%
%ADD67R,0.06706X0.09855*%
%ADD68O,0.03556X0.10642*%
%ADD69R,0.05603X0.05721*%
%ADD70R,0.01900X0.15800*%
D43*
X3117400Y807417D02*
X3180392D01*
X3117400Y771983D02*
Y807417D01*
X3180392Y771983D02*
Y794031D01*
Y807417D01*
X3117400Y771983D02*
X3180392D01*
X2638441Y951937D02*
X2643559D01*
X2767000Y836000D02*
Y856000D01*
X2787000D01*
X2767000Y836000D02*
X2787000D01*
Y856000D01*
X2711926Y829199D02*
X2719800D01*
X2711926Y808333D02*
Y829199D01*
Y808333D02*
X2727674D01*
Y829199D01*
X2719800D02*
X2727674D01*
X2741800Y814201D02*
X2749674D01*
Y835067D01*
X2733926D02*
X2749674D01*
X2733926Y814201D02*
Y835067D01*
Y814201D02*
X2741800D01*
X2604000Y848000D02*
X2624000D01*
X2604000D02*
Y868000D01*
X2624000Y848000D02*
Y868000D01*
X2604000D02*
X2624000D01*
X2649000Y925332D02*
Y945332D01*
X2669000D01*
X2649000Y925332D02*
X2669000D01*
Y945332D01*
X2740000Y925332D02*
Y945332D01*
X2760000D01*
X2740000Y925332D02*
X2760000D01*
Y945332D01*
X2738667Y914600D02*
Y922474D01*
X2717801D02*
X2738667D01*
X2717801Y906726D02*
Y922474D01*
Y906726D02*
X2738667D01*
Y914600D01*
X3104626Y812999D02*
X3112500D01*
X3104626Y792133D02*
Y812999D01*
Y792133D02*
X3120374D01*
Y812999D01*
X3112500D02*
X3120374D01*
X2703441Y810937D02*
X2708559D01*
X2634063Y861441D02*
Y866559D01*
X2725737Y853338D02*
Y858456D01*
X2760800Y800641D02*
Y805759D01*
X2741241Y916537D02*
X2746359D01*
X2669363Y881641D02*
Y886759D01*
X2751441Y835937D02*
X2756559D01*
X2760800Y810141D02*
Y815259D01*
X2690441Y910937D02*
X2695559D01*
X2770937Y921441D02*
Y926559D01*
X2727863Y925041D02*
Y930159D01*
X2717063Y903441D02*
Y908559D01*
X2680441Y910937D02*
X2685559D01*
X2622058Y881550D02*
X2641743D01*
X2622058Y887850D02*
X2641743D01*
Y881550D02*
Y887850D01*
X2622058Y881550D02*
Y887850D01*
X2635441Y919937D02*
X2640559D01*
X2625441D02*
X2630559D01*
X2627441Y944063D02*
X2632559D01*
X2616441D02*
X2621559D01*
X2760800Y820441D02*
Y825559D01*
X2742752Y894421D02*
Y897965D01*
X2749248Y894421D02*
Y897965D01*
X2742752Y894421D02*
X2749248D01*
X2742752Y897965D02*
X2749248D01*
X2687100Y855000D02*
X2688000D01*
X2708000D02*
X2708900D01*
X2688000Y852000D02*
Y855000D01*
Y852000D02*
X2708000D01*
Y858000D01*
X2688000D02*
X2708000D01*
X2688000Y855000D02*
Y858000D01*
X2699000Y854441D02*
Y859559D01*
X2746000Y863441D02*
Y868559D01*
D45*
X2643435Y875054D02*
G03*
X2643435Y875054I-492J0D01*
G01*
X2751059Y890386D02*
G03*
X2751059Y890386I-492J0D01*
G01*
D46*
X3117400Y805054D02*
Y807417D01*
X3180392Y805054D02*
Y807417D01*
X3170699Y775602D02*
X3169699Y774602D01*
X3167700D01*
X3166700Y775602D01*
Y779600D01*
X3167700Y780600D01*
X3169699D01*
X3170699Y779600D01*
X3176697Y775602D02*
X3175697Y774602D01*
X3173698D01*
X3172698Y775602D01*
Y776601D01*
X3173698Y777601D01*
X3175697D01*
X3176697Y778601D01*
Y779600D01*
X3175697Y780600D01*
X3173698D01*
X3172698Y779600D01*
X2786400Y864768D02*
Y870766D01*
X2783401D01*
X2782401Y869766D01*
Y867767D01*
X2783401Y866767D01*
X2786400D01*
X2780402Y864768D02*
X2778403D01*
X2779402D01*
Y870766D01*
X2780402Y869766D01*
X2775404D02*
X2774404Y870766D01*
X2772404D01*
X2771405Y869766D01*
Y865767D01*
X2772404Y864768D01*
X2774404D01*
X2775404Y865767D01*
Y869766D01*
X2642700Y908698D02*
Y903700D01*
X2641700Y902700D01*
X2639701D01*
X2638701Y903700D01*
Y908698D01*
X2632703Y902700D02*
X2636702D01*
X2632703Y906699D01*
Y907698D01*
X2633703Y908698D01*
X2635702D01*
X2636702Y907698D01*
X2687100Y922800D02*
Y928798D01*
X2684101D01*
X2683101Y927798D01*
Y925799D01*
X2684101Y924799D01*
X2687100D01*
X2685101D02*
X2683101Y922800D01*
X2681102Y928798D02*
X2677103D01*
X2679103D01*
Y922800D01*
X2724900Y916100D02*
Y922098D01*
X2721901D01*
X2720901Y921098D01*
Y919099D01*
X2721901Y918099D01*
X2724900D01*
X2722901D02*
X2720901Y916100D01*
X2718902Y914101D02*
Y920099D01*
X2715903D01*
X2714903Y919099D01*
Y917100D01*
X2715903Y916100D01*
X2718902D01*
X2711904D02*
X2709905D01*
X2708905Y917100D01*
Y919099D01*
X2709905Y920099D01*
X2711904D01*
X2712904Y919099D01*
Y917100D01*
X2711904Y916100D01*
X2705906Y921098D02*
Y920099D01*
X2706906D01*
X2704906D01*
X2705906D01*
Y917100D01*
X2704906Y916100D01*
X2697909D02*
X2701907D01*
X2697909Y920099D01*
Y921098D01*
X2698908Y922098D01*
X2700908D01*
X2701907Y921098D01*
X2695909Y920099D02*
Y917100D01*
X2694910Y916100D01*
X2693910Y917100D01*
X2692910Y916100D01*
X2691911Y917100D01*
Y920099D01*
X2689911Y916100D02*
X2687912D01*
X2688912D01*
Y920099D01*
X2689911D01*
X2684913D02*
Y916100D01*
Y918099D01*
X2683913Y919099D01*
X2682914Y920099D01*
X2681914D01*
X2675916Y916100D02*
X2677915D01*
X2678915Y917100D01*
Y919099D01*
X2677915Y920099D01*
X2675916D01*
X2674916Y919099D01*
Y918099D01*
X2678915D01*
X2672917Y916100D02*
X2669918D01*
X2668918Y917100D01*
X2669918Y918099D01*
X2671917D01*
X2672917Y919099D01*
X2671917Y920099D01*
X2668918D01*
X2735700Y935700D02*
Y941698D01*
X2732701D01*
X2731701Y940698D01*
Y938699D01*
X2732701Y937699D01*
X2735700D01*
X2733701D02*
X2731701Y935700D01*
X2725703Y941698D02*
Y935700D01*
X2728702D01*
X2729702Y936700D01*
Y938699D01*
X2728702Y939699D01*
X2725703D01*
X2778800Y933100D02*
Y939098D01*
X2775801D01*
X2774801Y938098D01*
Y936099D01*
X2775801Y935099D01*
X2778800D01*
X2776801D02*
X2774801Y933100D01*
X2772802Y932100D02*
X2768803D01*
X2766804Y933100D02*
Y939098D01*
X2764804Y937099D01*
X2762805Y939098D01*
Y933100D01*
X2760806D02*
X2758806D01*
X2759806D01*
Y937099D01*
X2760806D01*
X2755807Y933100D02*
Y937099D01*
X2752808D01*
X2751809Y936099D01*
Y933100D01*
X2749809Y939098D02*
Y933100D01*
X2745811D01*
X2743811D02*
X2741812D01*
X2742812D01*
Y937099D01*
X2743811D01*
X2738813Y933100D02*
Y937099D01*
X2737813D01*
X2736814Y936099D01*
Y933100D01*
Y936099D01*
X2735814Y937099D01*
X2734814Y936099D01*
Y933100D01*
X2732815D02*
X2730816D01*
X2731815D01*
Y937099D01*
X2732815D01*
X2726817Y938098D02*
Y937099D01*
X2727817D01*
X2725817D01*
X2726817D01*
Y934100D01*
X2725817Y933100D01*
X2717000Y857000D02*
Y862998D01*
X2714001D01*
X2713001Y861998D01*
Y859999D01*
X2714001Y858999D01*
X2717000D01*
X2715001D02*
X2713001Y857000D01*
X2711002Y856000D02*
X2707003D01*
X2705004Y857000D02*
Y862998D01*
X2703004Y860999D01*
X2701005Y862998D01*
Y857000D01*
X2698006Y860999D02*
X2696007D01*
X2695007Y859999D01*
Y857000D01*
X2698006D01*
X2699006Y858000D01*
X2698006Y858999D01*
X2695007D01*
X2693008Y860999D02*
X2689009Y857000D01*
X2691008Y858999D01*
X2689009Y860999D01*
X2693008Y857000D01*
X2687010Y862998D02*
Y857000D01*
X2683011D01*
X2681012D02*
X2679012D01*
X2680012D01*
Y860999D01*
X2681012D01*
X2676013Y857000D02*
Y860999D01*
X2675014D01*
X2674014Y859999D01*
Y857000D01*
Y859999D01*
X2673014Y860999D01*
X2672014Y859999D01*
Y857000D01*
X2670015D02*
X2668016D01*
X2669016D01*
Y860999D01*
X2670015D01*
X2664017Y861998D02*
Y860999D01*
X2665017D01*
X2663017D01*
X2664017D01*
Y858000D01*
X2663017Y857000D01*
X2705863Y863100D02*
Y869098D01*
X2702864D01*
X2701864Y868098D01*
Y866099D01*
X2702864Y865099D01*
X2705863D01*
X2703864D02*
X2701864Y863100D01*
X2699865Y864100D02*
X2698865Y863100D01*
X2696866D01*
X2695866Y864100D01*
Y868098D01*
X2696866Y869098D01*
X2698865D01*
X2699865Y868098D01*
Y867099D01*
X2698865Y866099D01*
X2695866D01*
X2697100Y922800D02*
Y928798D01*
X2694101D01*
X2693101Y927798D01*
Y925799D01*
X2694101Y924799D01*
X2697100D01*
X2695101D02*
X2693101Y922800D01*
X2691102Y927798D02*
X2690102Y928798D01*
X2688103D01*
X2687103Y927798D01*
Y926799D01*
X2688103Y925799D01*
X2687103Y924799D01*
Y923800D01*
X2688103Y922800D01*
X2690102D01*
X2691102Y923800D01*
Y924799D01*
X2690102Y925799D01*
X2691102Y926799D01*
Y927798D01*
X2690102Y925799D02*
X2688103D01*
X2782363Y809200D02*
Y815198D01*
X2779364D01*
X2778364Y814198D01*
Y812199D01*
X2779364Y811199D01*
X2782363D01*
X2780364D02*
X2778364Y809200D01*
X2776365Y815198D02*
X2772366D01*
Y814198D01*
X2776365Y810200D01*
Y809200D01*
X2756500Y856000D02*
X2750502D01*
Y853001D01*
X2751502Y852001D01*
X2753501D01*
X2754501Y853001D01*
Y856000D01*
Y854001D02*
X2756500Y852001D01*
Y847003D02*
X2750502D01*
X2753501Y850002D01*
Y846003D01*
X2623100Y955926D02*
Y961924D01*
X2620101D01*
X2619101Y960924D01*
Y958925D01*
X2620101Y957925D01*
X2623100D01*
X2621101D02*
X2619101Y955926D01*
X2617102Y960924D02*
X2616102Y961924D01*
X2614103D01*
X2613103Y960924D01*
Y959925D01*
X2614103Y958925D01*
X2615103D01*
X2614103D01*
X2613103Y957925D01*
Y956926D01*
X2614103Y955926D01*
X2616102D01*
X2617102Y956926D01*
X2632100Y931800D02*
Y937798D01*
X2629101D01*
X2628101Y936798D01*
Y934799D01*
X2629101Y933799D01*
X2632100D01*
X2630101D02*
X2628101Y931800D01*
X2622103D02*
X2626102D01*
X2622103Y935799D01*
Y936798D01*
X2623103Y937798D01*
X2625102D01*
X2626102Y936798D01*
X2642100Y931800D02*
Y937798D01*
X2639101D01*
X2638101Y936798D01*
Y934799D01*
X2639101Y933799D01*
X2642100D01*
X2640101D02*
X2638101Y931800D01*
X2636102D02*
X2634103D01*
X2635102D01*
Y937798D01*
X2636102Y936798D01*
X2759400Y954100D02*
Y960098D01*
X2756401D01*
X2755401Y959098D01*
Y957099D01*
X2756401Y956099D01*
X2759400D01*
X2753402Y959098D02*
X2752402Y960098D01*
X2750403D01*
X2749403Y959098D01*
Y958099D01*
X2750403Y957099D01*
X2749403Y956099D01*
Y955100D01*
X2750403Y954100D01*
X2752402D01*
X2753402Y955100D01*
Y956099D01*
X2752402Y957099D01*
X2753402Y958099D01*
Y959098D01*
X2752402Y957099D02*
X2750403D01*
X2668400Y954100D02*
Y960098D01*
X2665401D01*
X2664401Y959098D01*
Y957099D01*
X2665401Y956099D01*
X2668400D01*
X2658403Y960098D02*
X2660403Y959098D01*
X2662402Y957099D01*
Y955100D01*
X2661402Y954100D01*
X2659403D01*
X2658403Y955100D01*
Y956099D01*
X2659403Y957099D01*
X2662402D01*
X2630000Y852000D02*
X2635998D01*
Y854999D01*
X2634998Y855999D01*
X2632999D01*
X2631999Y854999D01*
Y852000D01*
X2634998Y857998D02*
X2635998Y858998D01*
Y860997D01*
X2634998Y861997D01*
X2633999D01*
X2632999Y860997D01*
Y859997D01*
Y860997D01*
X2631999Y861997D01*
X2631000D01*
X2630000Y860997D01*
Y858998D01*
X2631000Y857998D01*
X3119800Y822398D02*
Y816400D01*
X3116801D01*
X3115801Y817400D01*
Y821398D01*
X3116801Y822398D01*
X3119800D01*
X3109803Y821398D02*
X3110803Y822398D01*
X3112802D01*
X3113802Y821398D01*
Y820399D01*
X3112802Y819399D01*
X3110803D01*
X3109803Y818399D01*
Y817400D01*
X3110803Y816400D01*
X3112802D01*
X3113802Y817400D01*
X2738100Y931898D02*
Y925900D01*
X2735101D01*
X2734101Y926900D01*
Y930898D01*
X2735101Y931898D01*
X2738100D01*
X2728103D02*
Y925900D01*
X2731102D01*
X2732102Y926900D01*
Y928899D01*
X2731102Y929899D01*
X2728103D01*
X2761300Y817566D02*
Y811568D01*
X2758301D01*
X2757301Y812567D01*
Y816566D01*
X2758301Y817566D01*
X2761300D01*
X2755302Y812567D02*
X2754302Y811568D01*
X2752303D01*
X2751303Y812567D01*
Y816566D01*
X2752303Y817566D01*
X2754302D01*
X2755302Y816566D01*
Y815566D01*
X2754302Y814567D01*
X2751303D01*
X2715300Y830834D02*
Y836832D01*
X2718299D01*
X2719299Y835833D01*
Y831834D01*
X2718299Y830834D01*
X2715300D01*
X2725297Y836832D02*
X2721298D01*
X2725297Y832834D01*
Y831834D01*
X2724297Y830834D01*
X2722298D01*
X2721298Y831834D01*
X2673201Y897298D02*
X2674201Y898298D01*
X2676200D01*
X2677200Y897298D01*
Y893300D01*
X2676200Y892300D01*
X2674201D01*
X2673201Y893300D01*
X2671202Y898298D02*
X2667203D01*
X2669203D01*
Y892300D01*
X2743901Y933398D02*
X2744901Y934398D01*
X2746900D01*
X2747900Y933398D01*
Y929400D01*
X2746900Y928400D01*
X2744901D01*
X2743901Y929400D01*
X2737903Y934398D02*
Y928400D01*
X2740902D01*
X2741902Y929400D01*
Y931399D01*
X2740902Y932399D01*
X2737903D01*
X2781801Y804698D02*
X2782801Y805698D01*
X2784800D01*
X2785800Y804698D01*
Y800700D01*
X2784800Y799700D01*
X2782801D01*
X2781801Y800700D01*
X2779802Y799700D02*
X2777803D01*
X2778802D01*
Y805698D01*
X2779802Y804698D01*
X2774804D02*
X2773804Y805698D01*
X2771804D01*
X2770805Y804698D01*
Y800700D01*
X2771804Y799700D01*
X2773804D01*
X2774804Y800700D01*
Y804698D01*
X2729601Y868998D02*
X2730601Y869998D01*
X2732600D01*
X2733600Y868998D01*
Y865000D01*
X2732600Y864000D01*
X2730601D01*
X2729601Y865000D01*
X2727602D02*
X2726602Y864000D01*
X2724603D01*
X2723603Y865000D01*
Y868998D01*
X2724603Y869998D01*
X2726602D01*
X2727602Y868998D01*
Y867999D01*
X2726602Y866999D01*
X2723603D01*
X2637901Y877098D02*
X2638901Y878098D01*
X2640900D01*
X2641900Y877098D01*
Y873100D01*
X2640900Y872100D01*
X2638901D01*
X2637901Y873100D01*
X2631903Y878098D02*
X2635902D01*
Y875099D01*
X2633903Y876099D01*
X2632903D01*
X2631903Y875099D01*
Y873100D01*
X2632903Y872100D01*
X2634902D01*
X2635902Y873100D01*
X2706101Y827798D02*
X2707101Y828798D01*
X2709100D01*
X2710100Y827798D01*
Y823800D01*
X2709100Y822800D01*
X2707101D01*
X2706101Y823800D01*
X2704102Y822800D02*
X2702103D01*
X2703102D01*
Y828798D01*
X2704102Y827798D01*
X2634100Y955926D02*
Y961924D01*
X2631101D01*
X2630101Y960924D01*
Y958925D01*
X2631101Y957925D01*
X2634100D01*
X2632101D02*
X2630101Y955926D01*
X2628102Y960924D02*
X2627102Y961924D01*
X2625103D01*
X2624103Y960924D01*
Y959925D01*
X2625103Y958925D01*
X2626103D01*
X2625103D01*
X2624103Y957925D01*
Y956926D01*
X2625103Y955926D01*
X2627102D01*
X2628102Y956926D01*
X2622104Y961924D02*
Y955926D01*
X2619105D01*
X2618105Y956926D01*
Y957925D01*
Y958925D01*
X2619105Y959925D01*
X2622104D01*
X2659000Y960000D02*
Y965998D01*
X2656001D01*
X2655001Y964998D01*
Y962999D01*
X2656001Y961999D01*
X2659000D01*
X2657001D02*
X2655001Y960000D01*
X2653002Y964998D02*
X2652002Y965998D01*
X2650003D01*
X2649003Y964998D01*
Y963999D01*
X2650003Y962999D01*
X2651003D01*
X2650003D01*
X2649003Y961999D01*
Y961000D01*
X2650003Y960000D01*
X2652002D01*
X2653002Y961000D01*
X2643005Y963999D02*
X2646004D01*
X2647004Y962999D01*
Y961000D01*
X2646004Y960000D01*
X2643005D01*
X2768663Y831100D02*
Y837098D01*
X2765664D01*
X2764664Y836098D01*
Y834099D01*
X2765664Y833099D01*
X2768663D01*
X2766664D02*
X2764664Y831100D01*
X2762665Y837098D02*
X2758666D01*
Y836098D01*
X2762665Y832100D01*
Y831100D01*
X2756667Y837098D02*
Y831100D01*
X2753668D01*
X2752668Y832100D01*
Y833099D01*
Y834099D01*
X2753668Y835099D01*
X2756667D01*
X2750600Y913991D02*
Y907993D01*
X2747601D01*
X2746601Y908993D01*
Y912991D01*
X2747601Y913991D01*
X2750600D01*
X2744602Y911992D02*
X2740603D01*
X2744602Y907993D01*
X2740603D01*
X2738604D02*
X2736604D01*
X2737604D01*
Y913991D01*
X2738604Y912991D01*
X2706837Y865100D02*
Y871098D01*
X2703838D01*
X2702838Y870098D01*
Y868099D01*
X2703838Y867099D01*
X2706837D01*
X2704838D02*
X2702838Y865100D01*
X2700839Y866100D02*
X2699839Y865100D01*
X2697840D01*
X2696840Y866100D01*
Y870098D01*
X2697840Y871098D01*
X2699839D01*
X2700839Y870098D01*
Y869099D01*
X2699839Y868099D01*
X2696840D01*
X2694841Y871098D02*
Y865100D01*
X2691842D01*
X2690842Y866100D01*
Y867099D01*
Y868099D01*
X2691842Y869099D01*
X2694841D01*
D47*
X2784000Y859000D02*
Y857334D01*
Y858167D01*
X2779002D01*
X2779835Y859000D01*
X2774000Y857668D02*
Y861000D01*
X2770668Y857668D01*
X2769835D01*
X2769002Y858501D01*
Y860167D01*
X2769835Y861000D01*
X2774000Y832501D02*
X2769002D01*
X2771501Y835000D01*
Y831668D01*
X2779835Y835000D02*
X2779002Y834167D01*
Y832501D01*
X2779835Y831668D01*
X2780668D01*
X2781501Y832501D01*
Y833334D01*
Y832501D01*
X2782334Y831668D01*
X2783167D01*
X2784000Y832501D01*
Y834167D01*
X2783167Y835000D01*
X2666000Y948332D02*
Y946666D01*
Y947499D01*
X2661002D01*
X2661835Y948332D01*
X2656000Y947000D02*
Y950332D01*
X2652668Y947000D01*
X2651835D01*
X2651002Y947833D01*
Y949499D01*
X2651835Y950332D01*
X2656000Y921833D02*
X2651002D01*
X2653501Y924332D01*
Y921000D01*
X2661835Y924332D02*
X2661002Y923499D01*
Y921833D01*
X2661835Y921000D01*
X2662668D01*
X2663501Y921833D01*
Y922666D01*
Y921833D01*
X2664334Y921000D01*
X2665167D01*
X2666000Y921833D01*
Y923499D01*
X2665167Y924332D01*
X2757000Y948332D02*
Y946666D01*
Y947499D01*
X2752002D01*
X2752835Y948332D01*
X2747000Y947000D02*
Y950332D01*
X2743668Y947000D01*
X2742835D01*
X2742002Y947833D01*
Y949499D01*
X2742835Y950332D01*
X2747000Y921833D02*
X2742002D01*
X2744501Y924332D01*
Y921000D01*
X2752835Y924332D02*
X2752002Y923499D01*
Y921833D01*
X2752835Y921000D01*
X2753668D01*
X2754501Y921833D01*
Y922666D01*
Y921833D01*
X2755334Y921000D01*
X2756167D01*
X2757000Y921833D01*
Y923499D01*
X2756167Y924332D01*
D50*
X2719800Y809416D02*
D03*
X2741800Y833984D02*
D03*
X3112500Y793216D02*
D03*
D70*
X2718884Y914600D02*
D03*
M02*
