%FSLAX25Y25*%
%MOIN*%
G70*
G01*
G75*
G04 Layer_Physical_Order=1*
G04 Layer_Color=255*
%ADD10C,0.03000*%
%ADD11C,0.05000*%
%ADD12R,0.09055X0.05906*%
%ADD13R,0.05906X0.05512*%
%ADD14R,0.05512X0.05906*%
%ADD15R,0.18000X0.19000*%
%ADD16R,0.18000X0.18000*%
%ADD17C,0.09843*%
%ADD18C,0.05906*%
%ADD19C,0.07087*%
%ADD20R,0.07087X0.07087*%
%ADD21C,0.07874*%
%ADD22C,0.06299*%
%ADD23R,0.06299X0.06299*%
%ADD24C,0.06299*%
%ADD25C,0.27000*%
%ADD26O,0.11811X0.09843*%
%ADD27R,0.11811X0.09843*%
%ADD28R,0.07087X0.07087*%
%ADD29C,0.11811*%
G36*
X2788000Y860550D02*
X2787662Y860097D01*
X2786032Y859022D01*
X2786000Y859026D01*
X2768000D01*
X2767217Y858923D01*
X2766487Y858620D01*
X2765860Y858140D01*
X2765380Y857513D01*
X2765077Y856783D01*
X2764974Y856000D01*
Y837000D01*
X2765077Y836217D01*
X2765380Y835487D01*
X2765860Y834860D01*
X2766487Y834379D01*
X2767217Y834077D01*
X2768000Y833974D01*
X2770472D01*
Y823981D01*
Y814113D01*
X2772453D01*
Y810502D01*
X2771926Y809516D01*
X2771551Y808283D01*
X2771425Y807000D01*
X2771551Y805717D01*
X2771926Y804484D01*
X2772533Y803347D01*
X2773351Y802351D01*
X2774347Y801533D01*
X2775484Y800926D01*
X2776717Y800551D01*
X2778000Y800425D01*
X2779283Y800551D01*
X2780516Y800926D01*
X2781653Y801533D01*
X2782649Y802351D01*
X2783467Y803347D01*
X2784075Y804484D01*
X2784449Y805717D01*
X2784575Y807000D01*
X2784449Y808283D01*
X2784075Y809516D01*
X2783548Y810502D01*
Y814113D01*
X2785528D01*
Y823981D01*
Y831952D01*
X2786032Y832224D01*
X2788000Y831048D01*
Y784000D01*
X2600000D01*
Y968000D01*
X2788000D01*
Y860550D01*
D02*
G37*
%LPC*%
G36*
X2741500Y857722D02*
Y854500D01*
X2744723D01*
X2744312Y855490D01*
X2743521Y856521D01*
X2742490Y857312D01*
X2741500Y857722D01*
D02*
G37*
G36*
X2738500D02*
X2737510Y857312D01*
X2736479Y856521D01*
X2735687Y855490D01*
X2735278Y854500D01*
X2738500D01*
Y857722D01*
D02*
G37*
G36*
X2744723Y851500D02*
X2741500D01*
Y848277D01*
X2742490Y848687D01*
X2743521Y849479D01*
X2744312Y850510D01*
X2744723Y851500D01*
D02*
G37*
G36*
X2634723Y852500D02*
X2631500D01*
Y849277D01*
X2632490Y849687D01*
X2633521Y850479D01*
X2634312Y851510D01*
X2634723Y852500D01*
D02*
G37*
G36*
X2763984Y897960D02*
X2762016D01*
X2760463Y897807D01*
X2758970Y897354D01*
X2757594Y896618D01*
X2756388Y895628D01*
X2755398Y894422D01*
X2754662Y893046D01*
X2754209Y891553D01*
X2754056Y890000D01*
X2754209Y888447D01*
X2754662Y886954D01*
X2755398Y885578D01*
X2756388Y884372D01*
X2757594Y883382D01*
X2758970Y882646D01*
X2760463Y882193D01*
X2762016Y882040D01*
X2763984D01*
X2765537Y882193D01*
X2767030Y882646D01*
X2768406Y883382D01*
X2769613Y884372D01*
X2770602Y885578D01*
X2771338Y886954D01*
X2771791Y888447D01*
X2771944Y890000D01*
X2771791Y891553D01*
X2771338Y893046D01*
X2770602Y894422D01*
X2769613Y895628D01*
X2768406Y896618D01*
X2767030Y897354D01*
X2765537Y897807D01*
X2763984Y897960D01*
D02*
G37*
G36*
X2661800Y894700D02*
X2659004D01*
X2659331Y893909D01*
X2660060Y892960D01*
X2661009Y892231D01*
X2661800Y891904D01*
Y894700D01*
D02*
G37*
G36*
X2631500Y858722D02*
Y855500D01*
X2634723D01*
X2634312Y856490D01*
X2633521Y857521D01*
X2632490Y858313D01*
X2631500Y858722D01*
D02*
G37*
G36*
X2763984Y877960D02*
X2762016D01*
X2760463Y877807D01*
X2758970Y877354D01*
X2757594Y876618D01*
X2756388Y875628D01*
X2755398Y874422D01*
X2754662Y873046D01*
X2754209Y871553D01*
X2754056Y870000D01*
X2754209Y868447D01*
X2754662Y866954D01*
X2755398Y865578D01*
X2756388Y864372D01*
X2757594Y863382D01*
X2758970Y862646D01*
X2760463Y862193D01*
X2762016Y862040D01*
X2763984D01*
X2765537Y862193D01*
X2767030Y862646D01*
X2768406Y863382D01*
X2769613Y864372D01*
X2770602Y865578D01*
X2771338Y866954D01*
X2771791Y868447D01*
X2771944Y870000D01*
X2771791Y871553D01*
X2771338Y873046D01*
X2770602Y874422D01*
X2769613Y875628D01*
X2768406Y876618D01*
X2767030Y877354D01*
X2765537Y877807D01*
X2763984Y877960D01*
D02*
G37*
G36*
X2738500Y851500D02*
X2735278D01*
X2735687Y850510D01*
X2736479Y849479D01*
X2737510Y848687D01*
X2738500Y848277D01*
Y851500D01*
D02*
G37*
G36*
X2679500Y826217D02*
X2677130D01*
X2677375Y825624D01*
X2678041Y824757D01*
X2678907Y824092D01*
X2679500Y823846D01*
Y826217D01*
D02*
G37*
G36*
X2684870D02*
X2682500D01*
Y823846D01*
X2683093Y824092D01*
X2683960Y824757D01*
X2684625Y825624D01*
X2684870Y826217D01*
D02*
G37*
G36*
X2753363Y801200D02*
X2751107D01*
Y798747D01*
X2753363D01*
Y801200D01*
D02*
G37*
G36*
X2681000Y816179D02*
X2679795Y816061D01*
X2678635Y815709D01*
X2677567Y815138D01*
X2676631Y814369D01*
X2675862Y813433D01*
X2675291Y812365D01*
X2674939Y811205D01*
X2674821Y810000D01*
X2674939Y808794D01*
X2675291Y807635D01*
X2675862Y806567D01*
X2676631Y805630D01*
X2677567Y804862D01*
X2678635Y804291D01*
X2679795Y803939D01*
X2681000Y803821D01*
X2682206Y803939D01*
X2683365Y804291D01*
X2684433Y804862D01*
X2685369Y805630D01*
X2686138Y806567D01*
X2686709Y807635D01*
X2687061Y808794D01*
X2687179Y810000D01*
X2687061Y811205D01*
X2686709Y812365D01*
X2686138Y813433D01*
X2685369Y814369D01*
X2684433Y815138D01*
X2683365Y815709D01*
X2682206Y816061D01*
X2681000Y816179D01*
D02*
G37*
G36*
X2743300Y829330D02*
Y827074D01*
X2745753D01*
Y829330D01*
X2743300D01*
D02*
G37*
G36*
X2716300Y832200D02*
X2713930D01*
X2714175Y831607D01*
X2714841Y830741D01*
X2715707Y830075D01*
X2716300Y829830D01*
Y832200D01*
D02*
G37*
G36*
Y837570D02*
X2715707Y837325D01*
X2714841Y836660D01*
X2714175Y835793D01*
X2713930Y835200D01*
X2716300D01*
Y837570D01*
D02*
G37*
G36*
X2679500Y831587D02*
X2678907Y831341D01*
X2678041Y830676D01*
X2677375Y829809D01*
X2677130Y829216D01*
X2679500D01*
Y831587D01*
D02*
G37*
G36*
X2682500D02*
Y829216D01*
X2684870D01*
X2684625Y829809D01*
X2683960Y830676D01*
X2683093Y831341D01*
X2682500Y831587D01*
D02*
G37*
G36*
X2771906Y917921D02*
X2754095D01*
Y902079D01*
X2771906D01*
Y917921D01*
D02*
G37*
G36*
X2759296Y928832D02*
X2756500D01*
Y926036D01*
X2757291Y926364D01*
X2758240Y927092D01*
X2758969Y928041D01*
X2759296Y928832D01*
D02*
G37*
G36*
X2743500Y944629D02*
X2742709Y944301D01*
X2741760Y943573D01*
X2741031Y942624D01*
X2740704Y941832D01*
X2743500D01*
Y944629D01*
D02*
G37*
G36*
X2626196Y905200D02*
X2623400D01*
Y902404D01*
X2624191Y902731D01*
X2625140Y903460D01*
X2625869Y904409D01*
X2626196Y905200D01*
D02*
G37*
G36*
X2743500Y928832D02*
X2740704D01*
X2741031Y928041D01*
X2741760Y927092D01*
X2742709Y926364D01*
X2743500Y926036D01*
Y928832D01*
D02*
G37*
G36*
X2759543Y944876D02*
X2756500D01*
Y941832D01*
X2759543D01*
Y944876D01*
D02*
G37*
G36*
X2753500D02*
X2750457D01*
Y943918D01*
X2748488Y943250D01*
X2748240Y943573D01*
X2747291Y944301D01*
X2746500Y944629D01*
Y940332D01*
X2745000D01*
Y938832D01*
X2740704D01*
X2741031Y938041D01*
X2741760Y937092D01*
X2742709Y936364D01*
Y934301D01*
X2741760Y933573D01*
X2741031Y932623D01*
X2740704Y931832D01*
X2745000D01*
Y930332D01*
X2746500D01*
Y926036D01*
X2747291Y926364D01*
X2748240Y927092D01*
X2748969Y928041D01*
X2751031D01*
X2751760Y927092D01*
X2752709Y926364D01*
X2753500Y926036D01*
Y930332D01*
X2755000D01*
Y931832D01*
X2759296D01*
X2758969Y932623D01*
X2758240Y933573D01*
X2757917Y933821D01*
X2758586Y935789D01*
X2759543D01*
Y938832D01*
X2755000D01*
Y940332D01*
X2753500D01*
Y944876D01*
D02*
G37*
G36*
X2668000Y948026D02*
X2650000D01*
X2649217Y947923D01*
X2648487Y947620D01*
X2647860Y947140D01*
X2647379Y946513D01*
X2647077Y945783D01*
X2646974Y945000D01*
Y926000D01*
X2647077Y925217D01*
X2647379Y924487D01*
X2647465Y924376D01*
X2647494Y924157D01*
X2647139Y922692D01*
X2646821Y922177D01*
X2646484Y922075D01*
X2645347Y921467D01*
X2644921Y921117D01*
X2643085Y921840D01*
X2642953Y921964D01*
Y922277D01*
X2642967Y922382D01*
X2642953Y922488D01*
Y927244D01*
Y938756D01*
X2634165D01*
X2634059Y938770D01*
X2633954Y938756D01*
X2631047D01*
Y937539D01*
X2631000D01*
X2629825Y937384D01*
X2629773Y937363D01*
X2629738Y937359D01*
X2627904Y936803D01*
X2627360Y936512D01*
X2626717Y936449D01*
X2625484Y936075D01*
X2624347Y935467D01*
X2623346Y934654D01*
X2621425Y934539D01*
X2620000D01*
X2618825Y934384D01*
X2617731Y933931D01*
X2616791Y933209D01*
X2607747Y924166D01*
X2607026Y923226D01*
X2606573Y922131D01*
X2606418Y920957D01*
Y902887D01*
X2603472D01*
Y890981D01*
Y881113D01*
X2606461D01*
Y872521D01*
X2606346Y871348D01*
X2605945Y870026D01*
X2605000D01*
X2604217Y869923D01*
X2603487Y869621D01*
X2603386Y869543D01*
X2602457D01*
Y868614D01*
X2602379Y868513D01*
X2602077Y867783D01*
X2601974Y867000D01*
Y849000D01*
X2602077Y848217D01*
X2602379Y847487D01*
X2602860Y846860D01*
X2603487Y846379D01*
X2604217Y846077D01*
X2605000Y845974D01*
X2623000D01*
X2623783Y846077D01*
X2624513Y846379D01*
X2625140Y846860D01*
X2625620Y847487D01*
X2625923Y848217D01*
X2625948Y848405D01*
X2626723Y849041D01*
X2627184Y849287D01*
X2627994Y849487D01*
X2628500Y849277D01*
Y854000D01*
Y858722D01*
X2627994Y858513D01*
X2626587Y859147D01*
X2626026Y859655D01*
Y867000D01*
X2625923Y867783D01*
X2625620Y868513D01*
X2625140Y869140D01*
X2624513Y869621D01*
X2623783Y869923D01*
X2623000Y870026D01*
X2615539D01*
Y881113D01*
X2618528D01*
Y890981D01*
Y901138D01*
X2618641Y901305D01*
X2620400Y902309D01*
Y906700D01*
X2621900D01*
Y908200D01*
X2626317D01*
X2627333Y909958D01*
X2627468Y910047D01*
X2634155D01*
X2635480Y908079D01*
X2635451Y907983D01*
X2635325Y906700D01*
X2635451Y905417D01*
X2635479Y905328D01*
X2635478Y904929D01*
X2635461Y904800D01*
Y900782D01*
X2635352Y899953D01*
X2629472D01*
Y888047D01*
Y878179D01*
X2632461D01*
Y873000D01*
X2632616Y871825D01*
X2633069Y870731D01*
X2633791Y869791D01*
X2634732Y868849D01*
X2636334Y867023D01*
X2638008Y864517D01*
X2639340Y861815D01*
X2640309Y858962D01*
X2640897Y856007D01*
X2641077Y853259D01*
X2641051Y853000D01*
X2641223Y851254D01*
X2641733Y849576D01*
X2642559Y848028D01*
X2643672Y846672D01*
X2645028Y845560D01*
X2646576Y844733D01*
X2648254Y844223D01*
X2650000Y844051D01*
X2651746Y844223D01*
X2653424Y844733D01*
X2654972Y845560D01*
X2655906Y846326D01*
X2656910Y845910D01*
X2658349Y845028D01*
X2659801Y843781D01*
X2660791Y842791D01*
X2661222Y842460D01*
X2661731Y842069D01*
X2662825Y841616D01*
X2664000Y841461D01*
X2717610D01*
X2719509Y839561D01*
X2719300Y838953D01*
Y833700D01*
Y829830D01*
X2719893Y830075D01*
X2720760Y830741D01*
X2721077Y831154D01*
X2722744Y831081D01*
X2723253Y830878D01*
X2723573Y830280D01*
X2723815Y829827D01*
X2724678Y828767D01*
X2725882Y827297D01*
X2726619Y825918D01*
X2727123Y824258D01*
X2727261Y822851D01*
Y817700D01*
Y809720D01*
X2725293Y808789D01*
X2725233Y808838D01*
X2724165Y809409D01*
X2723005Y809761D01*
X2721800Y809879D01*
X2720594Y809761D01*
X2719435Y809409D01*
X2718367Y808838D01*
X2717430Y808070D01*
X2716662Y807133D01*
X2716091Y806065D01*
X2715739Y804906D01*
X2715621Y803700D01*
X2715739Y802495D01*
X2716091Y801335D01*
X2716662Y800267D01*
X2717430Y799331D01*
X2718367Y798562D01*
X2719435Y797991D01*
X2720594Y797639D01*
X2721800Y797521D01*
X2723005Y797639D01*
X2724165Y797991D01*
X2725233Y798562D01*
X2726170Y799331D01*
X2727431D01*
X2728367Y798562D01*
X2729435Y797991D01*
X2730594Y797639D01*
X2731800Y797521D01*
X2733006Y797639D01*
X2733682Y797845D01*
X2735650Y797550D01*
Y797550D01*
X2735650Y797550D01*
X2747950D01*
Y805758D01*
X2749107Y807247D01*
X2749385D01*
X2751107Y806653D01*
X2751107Y805622D01*
Y804200D01*
X2754863D01*
Y802700D01*
X2756363D01*
Y798747D01*
X2756981D01*
Y796747D01*
X2768493D01*
Y805535D01*
X2768507Y805641D01*
X2768493Y805746D01*
Y810154D01*
X2768507Y810259D01*
X2768493Y810365D01*
Y819153D01*
X2749107D01*
X2747753Y820560D01*
Y823456D01*
X2745753D01*
Y824074D01*
X2741800D01*
Y825574D01*
X2740300D01*
Y829330D01*
X2737847D01*
X2736339Y830441D01*
Y830931D01*
X2736359Y831889D01*
X2736375Y832101D01*
X2736448Y832340D01*
X2736582Y833700D01*
X2736448Y835060D01*
X2736051Y836368D01*
X2735407Y837573D01*
X2734540Y838629D01*
X2733484Y839496D01*
X2732428Y840060D01*
X2732401Y840078D01*
X2732356Y840098D01*
X2732279Y840140D01*
X2732248Y840149D01*
X2731921Y840302D01*
X2731811Y840364D01*
X2731406Y840623D01*
X2731291Y840707D01*
X2730710Y841199D01*
X2728512Y843397D01*
X2727205Y844703D01*
X2727126Y844796D01*
X2725728Y846181D01*
X2722699Y849209D01*
X2721759Y849931D01*
X2720664Y850384D01*
X2720216Y850443D01*
X2719187Y851956D01*
X2719074Y852484D01*
X2719449Y853717D01*
X2719575Y855000D01*
X2719449Y856283D01*
X2719074Y857516D01*
X2718467Y858653D01*
X2717883Y859365D01*
X2717760Y860236D01*
X2718062Y861828D01*
X2718164Y861908D01*
X2718364Y861901D01*
X2718651Y861551D01*
X2719647Y860733D01*
X2720784Y860126D01*
X2722017Y859751D01*
X2723300Y859625D01*
X2724583Y859751D01*
X2725816Y860126D01*
X2726953Y860733D01*
X2728300Y861382D01*
X2729647Y860733D01*
X2730784Y860126D01*
X2732017Y859751D01*
X2733300Y859625D01*
X2734583Y859751D01*
X2735816Y860126D01*
X2736953Y860733D01*
X2737949Y861551D01*
X2738767Y862547D01*
X2739375Y863684D01*
X2739749Y864917D01*
X2739875Y866200D01*
X2739749Y867483D01*
X2739375Y868716D01*
X2738767Y869853D01*
X2737949Y870849D01*
X2736953Y871667D01*
X2735816Y872274D01*
X2734583Y872649D01*
X2733300Y872775D01*
X2732017Y872649D01*
X2730784Y872274D01*
X2729647Y871667D01*
X2728300Y871018D01*
X2726953Y871667D01*
X2725816Y872274D01*
X2724583Y872649D01*
X2723300Y872775D01*
X2722017Y872649D01*
X2720784Y872274D01*
X2719647Y871667D01*
X2718651Y870849D01*
X2718284Y870402D01*
X2717374Y869900D01*
X2715718Y870071D01*
X2715591Y870169D01*
X2714800Y870496D01*
Y866200D01*
X2711800D01*
Y870496D01*
X2711009Y870169D01*
X2710882Y870071D01*
X2709226Y869900D01*
X2708316Y870402D01*
X2707949Y870849D01*
X2706953Y871667D01*
X2705816Y872274D01*
X2704583Y872649D01*
X2703300Y872775D01*
X2702017Y872649D01*
X2700784Y872274D01*
X2699647Y871667D01*
X2698300Y871018D01*
X2696953Y871667D01*
X2695816Y872274D01*
X2694583Y872649D01*
X2693300Y872775D01*
X2692017Y872649D01*
X2690784Y872274D01*
X2689647Y871667D01*
X2688651Y870849D01*
X2688284Y870402D01*
X2687374Y869900D01*
X2685718Y870071D01*
X2685591Y870169D01*
X2684800Y870496D01*
Y866200D01*
X2681800D01*
Y870496D01*
X2681009Y870169D01*
X2680882Y870071D01*
X2679226Y869900D01*
X2678316Y870402D01*
X2677949Y870849D01*
X2676953Y871667D01*
X2675816Y872274D01*
X2674583Y872649D01*
X2673300Y872775D01*
X2672017Y872649D01*
X2670784Y872274D01*
X2669647Y871667D01*
X2668651Y870849D01*
X2667949D01*
X2666953Y871667D01*
X2665816Y872274D01*
X2664583Y872649D01*
X2663300Y872775D01*
X2662017Y872649D01*
X2660784Y872274D01*
X2659647Y871667D01*
X2658651Y870849D01*
X2657833Y869853D01*
X2657225Y868716D01*
X2656851Y867483D01*
X2656725Y866200D01*
X2656851Y864917D01*
X2657225Y863684D01*
X2657833Y862547D01*
X2658651Y861551D01*
X2659647Y860733D01*
X2660784Y860126D01*
X2662017Y859751D01*
X2663300Y859625D01*
X2664583Y859751D01*
X2665816Y860126D01*
X2666953Y860733D01*
X2667949Y861551D01*
X2668651D01*
X2669647Y860733D01*
X2670784Y860126D01*
X2672017Y859751D01*
X2673300Y859625D01*
X2674583Y859751D01*
X2675816Y860126D01*
X2676491Y860487D01*
X2677765Y858935D01*
X2677533Y858653D01*
X2676925Y857516D01*
X2676551Y856283D01*
X2676425Y855000D01*
X2676551Y853717D01*
X2676925Y852484D01*
X2675733Y850539D01*
X2665880D01*
X2661730Y854689D01*
X2661736Y854695D01*
X2661654Y854764D01*
X2656709Y859709D01*
X2656709Y859709D01*
X2650982Y865437D01*
X2650982Y865437D01*
X2650982Y865437D01*
X2647252Y869167D01*
X2645863Y870556D01*
X2645860Y870559D01*
X2645860Y870559D01*
X2644468Y871951D01*
X2641539Y874880D01*
Y878179D01*
X2644528D01*
Y888047D01*
Y894914D01*
X2644539Y895000D01*
Y896929D01*
X2644541Y896949D01*
X2644541Y896953D01*
X2644541Y896956D01*
X2644539Y897407D01*
X2644649Y898527D01*
X2645042Y899822D01*
X2645428Y900544D01*
X2646554Y902046D01*
X2647367Y903047D01*
X2647644Y903566D01*
X2647975Y904184D01*
X2648349Y905417D01*
X2650307Y905223D01*
Y900047D01*
X2658044D01*
X2658608Y899366D01*
X2659161Y898079D01*
X2659004Y897700D01*
X2663300D01*
Y896200D01*
X2664800D01*
Y891904D01*
X2665591Y892231D01*
X2665718Y892329D01*
X2667374Y892500D01*
X2668284Y891998D01*
X2668651Y891551D01*
X2669647Y890733D01*
X2670784Y890125D01*
X2672017Y889751D01*
X2673300Y889625D01*
X2674583Y889751D01*
X2675816Y890125D01*
X2676953Y890733D01*
X2678300Y891382D01*
X2679647Y890733D01*
X2680784Y890125D01*
X2682017Y889751D01*
X2683300Y889625D01*
X2684583Y889751D01*
X2685816Y890125D01*
X2686953Y890733D01*
X2688300Y891382D01*
X2689647Y890733D01*
X2690784Y890125D01*
X2692017Y889751D01*
X2693300Y889625D01*
X2694583Y889751D01*
X2695816Y890125D01*
X2696953Y890733D01*
X2698300Y891382D01*
X2699647Y890733D01*
X2700784Y890125D01*
X2702017Y889751D01*
X2703300Y889625D01*
X2704583Y889751D01*
X2705816Y890125D01*
X2706953Y890733D01*
X2708300Y891382D01*
X2709647Y890733D01*
X2710784Y890125D01*
X2712017Y889751D01*
X2713300Y889625D01*
X2714583Y889751D01*
X2715816Y890125D01*
X2716953Y890733D01*
X2718300Y891382D01*
X2719647Y890733D01*
X2720784Y890125D01*
X2722017Y889751D01*
X2723300Y889625D01*
X2724583Y889751D01*
X2724788Y889814D01*
X2726757Y889657D01*
X2726757Y889657D01*
X2726757Y889657D01*
X2739843D01*
Y902743D01*
X2726757D01*
X2726757Y902743D01*
X2724788Y902586D01*
X2724583Y902649D01*
X2723300Y902775D01*
X2722017Y902649D01*
X2720784Y902275D01*
X2719647Y901667D01*
X2718300Y901018D01*
X2716953Y901667D01*
X2715816Y902275D01*
X2714583Y902649D01*
X2713300Y902775D01*
X2712017Y902649D01*
X2710784Y902275D01*
X2709647Y901667D01*
X2708300Y901018D01*
X2706953Y901667D01*
X2705816Y902275D01*
X2704583Y902649D01*
X2703300Y902775D01*
X2702017Y902649D01*
X2700784Y902275D01*
X2699647Y901667D01*
X2698300Y901018D01*
X2696953Y901667D01*
X2695816Y902275D01*
X2694583Y902649D01*
X2693300Y902775D01*
X2692017Y902649D01*
X2690784Y902275D01*
X2689647Y901667D01*
X2688300Y901018D01*
X2686953Y901667D01*
X2685816Y902275D01*
X2684583Y902649D01*
X2684528Y902654D01*
Y909981D01*
Y921887D01*
X2672590D01*
X2672484Y921900D01*
X2672379Y921887D01*
X2670801D01*
X2670133Y923855D01*
X2670140Y923860D01*
X2670621Y924487D01*
X2670923Y925217D01*
X2671026Y926000D01*
Y945000D01*
X2670923Y945783D01*
X2670621Y946513D01*
X2670543Y946614D01*
Y946876D01*
X2670342D01*
X2670140Y947140D01*
X2669513Y947620D01*
X2668783Y947923D01*
X2668000Y948026D01*
D02*
G37*
%LPD*%
G36*
X2625470Y927520D02*
X2625269Y927706D01*
X2625050Y927873D01*
X2624813Y928020D01*
X2624559Y928147D01*
X2624288Y928255D01*
X2623998Y928343D01*
X2623691Y928412D01*
X2623366Y928461D01*
X2623024Y928490D01*
X2622664Y928500D01*
Y931500D01*
X2623024Y931510D01*
X2623366Y931539D01*
X2623691Y931588D01*
X2623998Y931657D01*
X2624288Y931745D01*
X2624559Y931853D01*
X2624813Y931980D01*
X2625050Y932127D01*
X2625269Y932294D01*
X2625470Y932480D01*
Y927520D01*
D02*
G37*
G36*
X2666435Y927758D02*
X2666245Y927560D01*
X2666076Y927344D01*
X2665926Y927110D01*
X2665796Y926859D01*
X2665686Y926589D01*
X2665597Y926300D01*
X2665527Y925994D01*
X2665477Y925670D01*
X2665447Y925328D01*
X2665437Y924967D01*
X2662437Y925026D01*
X2662427Y925386D01*
X2662399Y925729D01*
X2662350Y926054D01*
X2662283Y926362D01*
X2662197Y926653D01*
X2662091Y926926D01*
X2661966Y927182D01*
X2661821Y927421D01*
X2661658Y927642D01*
X2661475Y927846D01*
X2666435Y927758D01*
D02*
G37*
G36*
X2733381Y832539D02*
X2733364Y832410D01*
X2733336Y832033D01*
X2733301Y830406D01*
X2733300Y829963D01*
X2730300Y827462D01*
X2730286Y827864D01*
X2730243Y828229D01*
X2730173Y828558D01*
X2730073Y828850D01*
X2729946Y829105D01*
X2729790Y829324D01*
X2729606Y829506D01*
X2729394Y829651D01*
X2729153Y829759D01*
X2728884Y829831D01*
X2733400Y832629D01*
X2733381Y832539D01*
D02*
G37*
G36*
X2752119Y810259D02*
X2752089Y810495D01*
X2751999Y810706D01*
X2751849Y810892D01*
X2751639Y811053D01*
X2751369Y811190D01*
X2751039Y811302D01*
X2750649Y811388D01*
X2750199Y811450D01*
X2749689Y811488D01*
X2749119Y811500D01*
Y814500D01*
X2749689Y814515D01*
X2750199Y814560D01*
X2750649Y814635D01*
X2751039Y814740D01*
X2751369Y814875D01*
X2751639Y815040D01*
X2751849Y815235D01*
X2751999Y815460D01*
X2752089Y815715D01*
X2752119Y816000D01*
Y810259D01*
D02*
G37*
G36*
X2733307Y808026D02*
X2733363Y807420D01*
X2733413Y807148D01*
X2733476Y806897D01*
X2733554Y806666D01*
X2733645Y806456D01*
X2733751Y806267D01*
X2733871Y806098D01*
X2734005Y805949D01*
X2729595D01*
X2729729Y806098D01*
X2729849Y806267D01*
X2729955Y806456D01*
X2730046Y806666D01*
X2730124Y806897D01*
X2730187Y807148D01*
X2730237Y807420D01*
X2730272Y807713D01*
X2730293Y808026D01*
X2730300Y808359D01*
X2733300D01*
X2733307Y808026D01*
D02*
G37*
G36*
X2765245Y810229D02*
X2765033Y810139D01*
X2764846Y809989D01*
X2764685Y809779D01*
X2764548Y809509D01*
X2764436Y809179D01*
X2764349Y808789D01*
X2764287Y808339D01*
X2764260Y807971D01*
X2764349Y807111D01*
X2764436Y806721D01*
X2764548Y806391D01*
X2764685Y806121D01*
X2764846Y805911D01*
X2765033Y805761D01*
X2765245Y805671D01*
X2765481Y805641D01*
X2759993D01*
X2760229Y805671D01*
X2760441Y805761D01*
X2760628Y805911D01*
X2760789Y806121D01*
X2760926Y806391D01*
X2761038Y806721D01*
X2761125Y807111D01*
X2761187Y807561D01*
X2761214Y807929D01*
X2761125Y808789D01*
X2761038Y809179D01*
X2760926Y809509D01*
X2760789Y809779D01*
X2760628Y809989D01*
X2760441Y810139D01*
X2760229Y810229D01*
X2759993Y810259D01*
X2765481D01*
X2765245Y810229D01*
D02*
G37*
G36*
X2634059Y930256D02*
X2634029Y930492D01*
X2633939Y930704D01*
X2633789Y930890D01*
X2633579Y931052D01*
X2633309Y931189D01*
X2632979Y931301D01*
X2632589Y931388D01*
X2632139Y931450D01*
X2631629Y931488D01*
X2631059Y931500D01*
Y934500D01*
X2631629Y934512D01*
X2632589Y934612D01*
X2632979Y934699D01*
X2633309Y934811D01*
X2633579Y934948D01*
X2633789Y935110D01*
X2633939Y935296D01*
X2634029Y935508D01*
X2634059Y935744D01*
Y930256D01*
D02*
G37*
G36*
X2733330Y821630D02*
X2733420Y821120D01*
X2733570Y820670D01*
X2733780Y820280D01*
X2734050Y819950D01*
X2734380Y819680D01*
X2734770Y819470D01*
X2735220Y819320D01*
X2735730Y819230D01*
X2736171Y819207D01*
X2736429Y819212D01*
X2737389Y819312D01*
X2737779Y819399D01*
X2738109Y819511D01*
X2738379Y819648D01*
X2738589Y819810D01*
X2738739Y819996D01*
X2738829Y820208D01*
X2738859Y820444D01*
Y814956D01*
X2738829Y815192D01*
X2738739Y815404D01*
X2738589Y815590D01*
X2738379Y815752D01*
X2738109Y815889D01*
X2737779Y816001D01*
X2737389Y816088D01*
X2736939Y816150D01*
X2736429Y816188D01*
X2736171Y816193D01*
X2735730Y816170D01*
X2735220Y816080D01*
X2734770Y815930D01*
X2734380Y815720D01*
X2734050Y815450D01*
X2733780Y815120D01*
X2733570Y814730D01*
X2733420Y814280D01*
X2733330Y813770D01*
X2733300Y813200D01*
X2730300Y817700D01*
X2733300Y822200D01*
X2733330Y821630D01*
D02*
G37*
G36*
X2744523Y817049D02*
X2744383Y816885D01*
X2744320Y816679D01*
X2744336Y816430D01*
X2744429Y816140D01*
X2744600Y815808D01*
X2744848Y815434D01*
X2745175Y815018D01*
X2745579Y814560D01*
X2746061Y814061D01*
X2743044Y812835D01*
X2742532Y813329D01*
X2741588Y814130D01*
X2741156Y814436D01*
X2740752Y814679D01*
X2740374Y814860D01*
X2740023Y814978D01*
X2739699Y815034D01*
X2739402Y815026D01*
X2739132Y814956D01*
X2744741Y817171D01*
X2744523Y817049D01*
D02*
G37*
G36*
X2639715Y881173D02*
X2639460Y881083D01*
X2639235Y880933D01*
X2639040Y880722D01*
X2638875Y880451D01*
X2638740Y880119D01*
X2638635Y879728D01*
X2638560Y879276D01*
X2638515Y878764D01*
X2638500Y878191D01*
X2635500D01*
X2635485Y878764D01*
X2635440Y879276D01*
X2635365Y879728D01*
X2635260Y880119D01*
X2635125Y880451D01*
X2634960Y880722D01*
X2634765Y880933D01*
X2634540Y881083D01*
X2634285Y881173D01*
X2634000Y881203D01*
X2640000D01*
X2639715Y881173D01*
D02*
G37*
G36*
X2612531Y866531D02*
X2608000Y866519D01*
X2608285Y866550D01*
X2608540Y866641D01*
X2608765Y866792D01*
X2608960Y867003D01*
X2609125Y867274D01*
X2609260Y867605D01*
X2609365Y867997D01*
X2609440Y868448D01*
X2609485Y868960D01*
X2609500Y869531D01*
X2612500D01*
X2612531Y866531D01*
D02*
G37*
G36*
X2654085Y857265D02*
X2646829Y857982D01*
X2647163Y858230D01*
X2647417Y858498D01*
X2647590Y858785D01*
X2647683Y859091D01*
X2647695Y859417D01*
X2647626Y859762D01*
X2647477Y860126D01*
X2647247Y860509D01*
X2646936Y860912D01*
X2646545Y861334D01*
X2649777Y862344D01*
X2654085Y857265D01*
D02*
G37*
G36*
X2613715Y884107D02*
X2613460Y884017D01*
X2613235Y883866D01*
X2613040Y883655D01*
X2612875Y883384D01*
X2612740Y883053D01*
X2612635Y882662D01*
X2612560Y882210D01*
X2612515Y881698D01*
X2612500Y881125D01*
X2609500D01*
X2609485Y881698D01*
X2609440Y882210D01*
X2609365Y882662D01*
X2609260Y883053D01*
X2609125Y883384D01*
X2608960Y883655D01*
X2608765Y883866D01*
X2608540Y884017D01*
X2608285Y884107D01*
X2608000Y884137D01*
X2614000D01*
X2613715Y884107D01*
D02*
G37*
G36*
X2641516Y896941D02*
X2637000Y896929D01*
X2637285Y896960D01*
X2637540Y897050D01*
X2637765Y897202D01*
X2637960Y897413D01*
X2638125Y897684D01*
X2638260Y898015D01*
X2638365Y898406D01*
X2638440Y898858D01*
X2638485Y899369D01*
X2638500Y899941D01*
X2641500D01*
X2641516Y896941D01*
D02*
G37*
G36*
X2612472Y902302D02*
X2612517Y901790D01*
X2612592Y901338D01*
X2612697Y900947D01*
X2612832Y900616D01*
X2612997Y900344D01*
X2613192Y900134D01*
X2613417Y899983D01*
X2613672Y899893D01*
X2613957Y899863D01*
X2607957D01*
X2608242Y899893D01*
X2608497Y899983D01*
X2608722Y900134D01*
X2608917Y900344D01*
X2609082Y900616D01*
X2609217Y900947D01*
X2609322Y901338D01*
X2609397Y901790D01*
X2609442Y902302D01*
X2609457Y902875D01*
X2612457D01*
X2612472Y902302D01*
D02*
G37*
G36*
X2642637Y903234D02*
X2642421Y903169D01*
X2642228Y903070D01*
X2642057Y902936D01*
X2641909Y902769D01*
X2641784Y902568D01*
X2641682Y902333D01*
X2641602Y902064D01*
X2641545Y901761D01*
X2641511Y901424D01*
X2641500Y901053D01*
X2638500Y901583D01*
X2638505Y905686D01*
X2642637Y903234D01*
D02*
G37*
G36*
X2672484Y903125D02*
X2672454Y903387D01*
X2672364Y903620D01*
X2672214Y903826D01*
X2672004Y904005D01*
X2671734Y904156D01*
X2671404Y904280D01*
X2671014Y904376D01*
X2670564Y904445D01*
X2670054Y904486D01*
X2669585Y904498D01*
X2669111Y904486D01*
X2668601Y904442D01*
X2668151Y904370D01*
X2667761Y904270D01*
X2667431Y904140D01*
X2667161Y903981D01*
X2666951Y903794D01*
X2666801Y903578D01*
X2666711Y903333D01*
X2666681Y903059D01*
Y908941D01*
X2666711Y908667D01*
X2666801Y908422D01*
X2666951Y908206D01*
X2667161Y908019D01*
X2667431Y907860D01*
X2667761Y907730D01*
X2668151Y907630D01*
X2668601Y907558D01*
X2669111Y907514D01*
X2669581Y907502D01*
X2670054Y907515D01*
X2670564Y907560D01*
X2671014Y907635D01*
X2671404Y907740D01*
X2671734Y907875D01*
X2672004Y908040D01*
X2672214Y908235D01*
X2672364Y908460D01*
X2672454Y908715D01*
X2672484Y909000D01*
Y903125D01*
D02*
G37*
G36*
X2639667Y922352D02*
X2639422Y922262D01*
X2639206Y922112D01*
X2639019Y921902D01*
X2638860Y921632D01*
X2638730Y921302D01*
X2638630Y920912D01*
X2638558Y920465D01*
X2638618Y918941D01*
X2634000Y918929D01*
X2634285Y918960D01*
X2634540Y919051D01*
X2634765Y919201D01*
X2634960Y919413D01*
X2635125Y919684D01*
X2635260Y920015D01*
X2635365Y920406D01*
X2635409Y920671D01*
X2635370Y920912D01*
X2635270Y921302D01*
X2635140Y921632D01*
X2634981Y921902D01*
X2634794Y922112D01*
X2634578Y922262D01*
X2634333Y922352D01*
X2634059Y922382D01*
X2639941D01*
X2639667Y922352D01*
D02*
G37*
G36*
X2665450Y921371D02*
X2665549Y920411D01*
X2665636Y920021D01*
X2665748Y919691D01*
X2665885Y919421D01*
X2666047Y919211D01*
X2666233Y919061D01*
X2666445Y918971D01*
X2666681Y918941D01*
X2661193D01*
X2661429Y918971D01*
X2661641Y919061D01*
X2661827Y919211D01*
X2661989Y919421D01*
X2662126Y919691D01*
X2662238Y920021D01*
X2662325Y920411D01*
X2662387Y920861D01*
X2662425Y921371D01*
X2662437Y921941D01*
X2665437D01*
X2665450Y921371D01*
D02*
G37*
G36*
X2728594Y839025D02*
X2729420Y838326D01*
X2729699Y838123D01*
X2730261Y837763D01*
X2730544Y837606D01*
X2731115Y837338D01*
X2726003Y835277D01*
X2726110Y835567D01*
X2726174Y835858D01*
X2726197Y836149D01*
X2726177Y836439D01*
X2726117Y836730D01*
X2726014Y837020D01*
X2725870Y837311D01*
X2725683Y837602D01*
X2725455Y837892D01*
X2725186Y838183D01*
X2728322Y839289D01*
X2728594Y839025D01*
D02*
G37*
G36*
X2653319Y917587D02*
X2653634Y917539D01*
X2653976Y917510D01*
X2654336Y917500D01*
Y914500D01*
X2653976Y914490D01*
X2653634Y914461D01*
X2653319Y914413D01*
Y913059D01*
X2658807D01*
X2658571Y913029D01*
X2658359Y912939D01*
X2658172Y912789D01*
X2658011Y912579D01*
X2657874Y912309D01*
X2657762Y911979D01*
X2657675Y911589D01*
X2657613Y911139D01*
X2657607Y911064D01*
X2657675Y910411D01*
X2657762Y910021D01*
X2657874Y909691D01*
X2658011Y909421D01*
X2658172Y909211D01*
X2658359Y909061D01*
X2658571Y908971D01*
X2658807Y908941D01*
X2653319D01*
X2653555Y908971D01*
X2653767Y909061D01*
X2653954Y909211D01*
X2654115Y909421D01*
X2654252Y909691D01*
X2654364Y910021D01*
X2654451Y910411D01*
X2654513Y910861D01*
X2654519Y910936D01*
X2654451Y911589D01*
X2654364Y911979D01*
X2654252Y912309D01*
X2654115Y912579D01*
X2653954Y912789D01*
X2653767Y912939D01*
X2653555Y913029D01*
X2653319Y913059D01*
X2653289Y913333D01*
X2653199Y913578D01*
X2653049Y913794D01*
X2652839Y913981D01*
X2652569Y914140D01*
X2652495Y914169D01*
X2652441Y914147D01*
X2652187Y914020D01*
X2651950Y913873D01*
X2651731Y913706D01*
X2651530Y913520D01*
Y914421D01*
X2651399Y914442D01*
X2650889Y914486D01*
X2650319Y914500D01*
Y917500D01*
X2650889Y917514D01*
X2651399Y917558D01*
X2651530Y917579D01*
Y918480D01*
X2651731Y918294D01*
X2651950Y918127D01*
X2652187Y917980D01*
X2652441Y917853D01*
X2652495Y917831D01*
X2652569Y917860D01*
X2652839Y918019D01*
X2653049Y918206D01*
X2653199Y918422D01*
X2653289Y918667D01*
X2653319Y918941D01*
Y917587D01*
D02*
G37*
G36*
X2666711Y918667D02*
X2666801Y918422D01*
X2666951Y918206D01*
X2667161Y918019D01*
X2667431Y917860D01*
X2667761Y917731D01*
X2668151Y917630D01*
X2668601Y917558D01*
X2669111Y917514D01*
X2669585Y917502D01*
X2670054Y917514D01*
X2670564Y917555D01*
X2671014Y917624D01*
X2671404Y917720D01*
X2671734Y917844D01*
X2672004Y917995D01*
X2672214Y918174D01*
X2672364Y918380D01*
X2672454Y918613D01*
X2672484Y918875D01*
Y913000D01*
X2672454Y913285D01*
X2672364Y913540D01*
X2672214Y913765D01*
X2672004Y913960D01*
X2671734Y914125D01*
X2671404Y914260D01*
X2671014Y914365D01*
X2670564Y914440D01*
X2670054Y914485D01*
X2669581Y914497D01*
X2669111Y914486D01*
X2668601Y914442D01*
X2668151Y914370D01*
X2667761Y914270D01*
X2667431Y914140D01*
X2667161Y913981D01*
X2666951Y913794D01*
X2666801Y913578D01*
X2666711Y913333D01*
X2666681Y913059D01*
Y918941D01*
X2666711Y918667D01*
D02*
G37*
G36*
X2625256Y913059D02*
X2625226Y913333D01*
X2625136Y913578D01*
X2624986Y913794D01*
X2624776Y913981D01*
X2624506Y914140D01*
X2624176Y914270D01*
X2623786Y914370D01*
X2623421Y914429D01*
X2623309Y914412D01*
X2623002Y914343D01*
X2622712Y914255D01*
X2622441Y914147D01*
X2622186Y914020D01*
X2621950Y913873D01*
X2621731Y913706D01*
X2621530Y913520D01*
Y918480D01*
X2621731Y918294D01*
X2621950Y918127D01*
X2622186Y917980D01*
X2622441Y917853D01*
X2622712Y917745D01*
X2623002Y917657D01*
X2623309Y917588D01*
X2623421Y917571D01*
X2623786Y917630D01*
X2624176Y917731D01*
X2624506Y917860D01*
X2624776Y918019D01*
X2624986Y918206D01*
X2625136Y918422D01*
X2625226Y918667D01*
X2625256Y918941D01*
Y913059D01*
D02*
G37*
G36*
X2659344Y852777D02*
X2658334Y849545D01*
X2657912Y849936D01*
X2657509Y850247D01*
X2657126Y850477D01*
X2656762Y850626D01*
X2656417Y850695D01*
X2656091Y850683D01*
X2655785Y850591D01*
X2655498Y850417D01*
X2655230Y850163D01*
X2654982Y849829D01*
X2654265Y857085D01*
X2659344Y852777D01*
D02*
G37*
D10*
X2626555Y928555D02*
G03*
X2623067Y930000I-3488J-3488D01*
G01*
D02*
G03*
X2626555Y931445I0J4933D01*
G01*
X2631646Y933000D02*
G03*
X2627184Y930499I0J-5232D01*
G01*
X2637000Y933000D02*
G03*
X2629743Y928933I0J-8508D01*
G01*
X2620445Y917445D02*
G03*
X2623933Y916000I3488J3488D01*
G01*
D02*
G03*
X2620445Y914555I0J-4933D01*
G01*
X2650445Y917445D02*
G03*
X2653933Y916000I3488J3488D01*
G01*
D02*
G03*
X2650445Y914555I0J-4933D01*
G01*
X2658521Y851479D02*
G03*
X2649845Y854587I-7626J-7626D01*
G01*
X2663010Y846990D02*
G03*
X2650137Y851601I-11316J-11316D01*
G01*
X2651595Y853000D02*
G03*
X2647772Y862228I-13050J0D01*
G01*
X2648594Y853000D02*
G03*
X2642651Y867349I-20293J0D01*
G01*
X2645594Y853000D02*
G03*
X2637530Y872470I-27535J0D01*
G01*
X2665445Y928887D02*
G03*
X2663937Y925247I3640J-3640D01*
G01*
Y925551D02*
G03*
X2662555Y928887I-4718J0D01*
G01*
X2607555Y864445D02*
G03*
X2611000Y872761I-8317J8317D01*
G01*
X2730634Y804866D02*
G03*
X2731800Y807683I-2816J2816D01*
G01*
D02*
G03*
X2732966Y804866I3982J0D01*
G01*
X2727174Y833700D02*
G03*
X2723910Y841580I-11143J0D01*
G01*
X2731800Y829774D02*
G03*
X2730009Y834098I-6115J0D01*
G01*
X2731800Y822532D02*
G03*
X2727888Y831977I-13357J0D01*
G01*
X2643345Y905255D02*
G03*
X2640000Y897180I8075J-8075D01*
G01*
X2663049Y917085D02*
G03*
X2663937Y919229I-2144J2144D01*
G01*
D02*
G03*
X2664825Y917085I3032J0D01*
G01*
Y916888D02*
G03*
X2666969Y916000I2144J2144D01*
G01*
D02*
G03*
X2664825Y915112I0J-3032D01*
G01*
X2656951Y914915D02*
G03*
X2656063Y912771I2144J-2144D01*
G01*
D02*
G03*
X2655175Y914915I-3032J0D01*
G01*
Y915112D02*
G03*
X2653031Y916000I-2144J-2144D01*
G01*
D02*
G03*
X2655175Y916888I0J3032D01*
G01*
X2664825Y906888D02*
G03*
X2666969Y906000I2144J2144D01*
G01*
D02*
G03*
X2664825Y905112I0J-3032D01*
G01*
X2655175Y907085D02*
G03*
X2656063Y909229I-2144J2144D01*
G01*
D02*
G03*
X2656951Y907085I3032J0D01*
G01*
X2674398Y914907D02*
G03*
X2671758Y916000I-2640J-2640D01*
G01*
X2672078D02*
G03*
X2674398Y916961I0J3281D01*
G01*
Y905039D02*
G03*
X2672078Y906000I-2320J-2320D01*
G01*
X2671758D02*
G03*
X2674398Y907093I0J3733D01*
G01*
X2609973Y897961D02*
G03*
X2610957Y900336I-2375J2375D01*
G01*
Y900546D02*
G03*
X2612027Y897961I3655J0D01*
G01*
Y886039D02*
G03*
X2611000Y883559I2480J-2480D01*
G01*
D02*
G03*
X2609973Y886039I-3507J0D01*
G01*
X2634986Y917085D02*
G03*
X2637000Y921947I-4862J4862D01*
G01*
X2627112Y915112D02*
G03*
X2624968Y916000I-2144J-2144D01*
G01*
D02*
G03*
X2627112Y916888I0J3032D01*
G01*
X2635915Y932112D02*
G03*
X2633771Y933000I-2144J-2144D01*
G01*
D02*
G03*
X2635915Y933888I0J3032D01*
G01*
X2637888Y924238D02*
G03*
X2637000Y922094I2144J-2144D01*
G01*
D02*
G03*
X2636112Y924238I-3032J0D01*
G01*
X2763625Y812115D02*
G03*
X2762737Y809971I2144J-2144D01*
G01*
D02*
G03*
X2761849Y812115I-3032J0D01*
G01*
X2753975D02*
G03*
X2751839Y813000I-2136J-2136D01*
G01*
X2751823D02*
G03*
X2753975Y813891I0J3043D01*
G01*
X2761849Y803785D02*
G03*
X2762737Y805929I-2144J2144D01*
G01*
D02*
G03*
X2763625Y803785I3032J0D01*
G01*
X2743209Y817373D02*
G03*
X2744151Y813849I3519J-948D01*
G01*
X2740715Y816812D02*
G03*
X2738571Y817700I-2144J-2144D01*
G01*
D02*
G03*
X2740715Y818588I0J3032D01*
G01*
X2637938Y883023D02*
G03*
X2637000Y881000I1712J-2023D01*
G01*
D02*
G03*
X2636062Y883023I-2650J0D01*
G01*
X2638027Y883105D02*
G03*
X2637000Y880625I2480J-2480D01*
G01*
D02*
G03*
X2635973Y883105I-3507J0D01*
G01*
X2637548Y895027D02*
G03*
X2640000Y900948I-5921J5921D01*
G01*
X2626555Y928555D02*
G03*
X2623067Y930000I-3488J-3488D01*
G01*
D02*
G03*
X2626555Y931445I0J4933D01*
G01*
X2631646Y933000D02*
G03*
X2627184Y930499I0J-5232D01*
G01*
X2637000Y933000D02*
G03*
X2629743Y928933I0J-8508D01*
G01*
X2620445Y917445D02*
G03*
X2623933Y916000I3488J3488D01*
G01*
D02*
G03*
X2620445Y914555I0J-4933D01*
G01*
X2650445Y917445D02*
G03*
X2653933Y916000I3488J3488D01*
G01*
D02*
G03*
X2650445Y914555I0J-4933D01*
G01*
X2658521Y851479D02*
G03*
X2649845Y854587I-7626J-7626D01*
G01*
X2663010Y846990D02*
G03*
X2650137Y851601I-11316J-11316D01*
G01*
X2651595Y853000D02*
G03*
X2647772Y862228I-13050J0D01*
G01*
X2648594Y853000D02*
G03*
X2642651Y867349I-20293J0D01*
G01*
X2645594Y853000D02*
G03*
X2637530Y872470I-27535J0D01*
G01*
X2665445Y928887D02*
G03*
X2663937Y925247I3640J-3640D01*
G01*
Y925551D02*
G03*
X2662555Y928887I-4718J0D01*
G01*
X2607555Y864445D02*
G03*
X2611000Y872761I-8317J8317D01*
G01*
X2730634Y804866D02*
G03*
X2731800Y807683I-2816J2816D01*
G01*
D02*
G03*
X2732966Y804866I3982J0D01*
G01*
X2727174Y833700D02*
G03*
X2723910Y841580I-11143J0D01*
G01*
X2731800Y829774D02*
G03*
X2730009Y834098I-6115J0D01*
G01*
X2731800Y822532D02*
G03*
X2727888Y831977I-13357J0D01*
G01*
X2643345Y905255D02*
G03*
X2640000Y897180I8075J-8075D01*
G01*
X2663049Y917085D02*
G03*
X2663937Y919229I-2144J2144D01*
G01*
D02*
G03*
X2664825Y917085I3032J0D01*
G01*
Y916888D02*
G03*
X2666969Y916000I2144J2144D01*
G01*
D02*
G03*
X2664825Y915112I0J-3032D01*
G01*
X2656951Y914915D02*
G03*
X2656063Y912771I2144J-2144D01*
G01*
D02*
G03*
X2655175Y914915I-3032J0D01*
G01*
Y915112D02*
G03*
X2653031Y916000I-2144J-2144D01*
G01*
D02*
G03*
X2655175Y916888I0J3032D01*
G01*
X2664825Y906888D02*
G03*
X2666969Y906000I2144J2144D01*
G01*
D02*
G03*
X2664825Y905112I0J-3032D01*
G01*
X2655175Y907085D02*
G03*
X2656063Y909229I-2144J2144D01*
G01*
D02*
G03*
X2656951Y907085I3032J0D01*
G01*
X2674398Y914907D02*
G03*
X2671758Y916000I-2640J-2640D01*
G01*
X2672078D02*
G03*
X2674398Y916961I0J3281D01*
G01*
Y905039D02*
G03*
X2672078Y906000I-2320J-2320D01*
G01*
X2671758D02*
G03*
X2674398Y907093I0J3733D01*
G01*
X2609973Y897961D02*
G03*
X2610957Y900336I-2375J2375D01*
G01*
Y900546D02*
G03*
X2612027Y897961I3655J0D01*
G01*
Y886039D02*
G03*
X2611000Y883559I2480J-2480D01*
G01*
D02*
G03*
X2609973Y886039I-3507J0D01*
G01*
X2634986Y917085D02*
G03*
X2637000Y921947I-4862J4862D01*
G01*
X2627112Y915112D02*
G03*
X2624968Y916000I-2144J-2144D01*
G01*
D02*
G03*
X2627112Y916888I0J3032D01*
G01*
X2635915Y932112D02*
G03*
X2633771Y933000I-2144J-2144D01*
G01*
D02*
G03*
X2635915Y933888I0J3032D01*
G01*
X2637888Y924238D02*
G03*
X2637000Y922094I2144J-2144D01*
G01*
D02*
G03*
X2636112Y924238I-3032J0D01*
G01*
X2763625Y812115D02*
G03*
X2762737Y809971I2144J-2144D01*
G01*
D02*
G03*
X2761849Y812115I-3032J0D01*
G01*
X2753975D02*
G03*
X2751839Y813000I-2136J-2136D01*
G01*
X2751823D02*
G03*
X2753975Y813891I0J3043D01*
G01*
X2761849Y803785D02*
G03*
X2762737Y805929I-2144J2144D01*
G01*
D02*
G03*
X2763625Y803785I3032J0D01*
G01*
X2743209Y817373D02*
G03*
X2744151Y813849I3519J-948D01*
G01*
X2740715Y816812D02*
G03*
X2738571Y817700I-2144J-2144D01*
G01*
D02*
G03*
X2740715Y818588I0J3032D01*
G01*
X2637938Y883023D02*
G03*
X2637000Y881000I1712J-2023D01*
G01*
D02*
G03*
X2636062Y883023I-2650J0D01*
G01*
X2638027Y883105D02*
G03*
X2637000Y880625I2480J-2480D01*
G01*
D02*
G03*
X2635973Y883105I-3507J0D01*
G01*
X2637548Y895027D02*
G03*
X2640000Y900948I-5921J5921D01*
G01*
X2626555Y928555D02*
G03*
X2623067Y930000I-3488J-3488D01*
G01*
D02*
G03*
X2626555Y931445I0J4933D01*
G01*
X2631646Y933000D02*
G03*
X2627184Y930499I0J-5232D01*
G01*
X2637000Y933000D02*
G03*
X2629743Y928933I0J-8508D01*
G01*
X2620445Y917445D02*
G03*
X2623933Y916000I3488J3488D01*
G01*
D02*
G03*
X2620445Y914555I0J-4933D01*
G01*
X2650445Y917445D02*
G03*
X2653933Y916000I3488J3488D01*
G01*
D02*
G03*
X2650445Y914555I0J-4933D01*
G01*
X2658521Y851479D02*
G03*
X2649845Y854587I-7626J-7626D01*
G01*
X2663010Y846990D02*
G03*
X2650137Y851601I-11316J-11316D01*
G01*
X2651595Y853000D02*
G03*
X2647772Y862228I-13050J0D01*
G01*
X2648594Y853000D02*
G03*
X2642651Y867349I-20293J0D01*
G01*
X2645594Y853000D02*
G03*
X2637530Y872470I-27535J0D01*
G01*
X2665445Y928887D02*
G03*
X2663937Y925247I3640J-3640D01*
G01*
Y925551D02*
G03*
X2662555Y928887I-4718J0D01*
G01*
X2607555Y864445D02*
G03*
X2611000Y872761I-8317J8317D01*
G01*
X2730634Y804866D02*
G03*
X2731800Y807683I-2816J2816D01*
G01*
D02*
G03*
X2732966Y804866I3982J0D01*
G01*
X2727174Y833700D02*
G03*
X2723910Y841580I-11143J0D01*
G01*
X2731800Y829774D02*
G03*
X2730009Y834098I-6115J0D01*
G01*
X2731800Y822532D02*
G03*
X2727888Y831977I-13357J0D01*
G01*
X2643345Y905255D02*
G03*
X2640000Y897180I8075J-8075D01*
G01*
X2663049Y917085D02*
G03*
X2663937Y919229I-2144J2144D01*
G01*
D02*
G03*
X2664825Y917085I3032J0D01*
G01*
Y916888D02*
G03*
X2666969Y916000I2144J2144D01*
G01*
D02*
G03*
X2664825Y915112I0J-3032D01*
G01*
X2656951Y914915D02*
G03*
X2656063Y912771I2144J-2144D01*
G01*
D02*
G03*
X2655175Y914915I-3032J0D01*
G01*
Y915112D02*
G03*
X2653031Y916000I-2144J-2144D01*
G01*
D02*
G03*
X2655175Y916888I0J3032D01*
G01*
X2664825Y906888D02*
G03*
X2666969Y906000I2144J2144D01*
G01*
D02*
G03*
X2664825Y905112I0J-3032D01*
G01*
X2655175Y907085D02*
G03*
X2656063Y909229I-2144J2144D01*
G01*
D02*
G03*
X2656951Y907085I3032J0D01*
G01*
X2674398Y914907D02*
G03*
X2671758Y916000I-2640J-2640D01*
G01*
X2672078D02*
G03*
X2674398Y916961I0J3281D01*
G01*
Y905039D02*
G03*
X2672078Y906000I-2320J-2320D01*
G01*
X2671758D02*
G03*
X2674398Y907093I0J3733D01*
G01*
X2609973Y897961D02*
G03*
X2610957Y900336I-2375J2375D01*
G01*
Y900546D02*
G03*
X2612027Y897961I3655J0D01*
G01*
Y886039D02*
G03*
X2611000Y883559I2480J-2480D01*
G01*
D02*
G03*
X2609973Y886039I-3507J0D01*
G01*
X2634986Y917085D02*
G03*
X2637000Y921947I-4862J4862D01*
G01*
X2627112Y915112D02*
G03*
X2624968Y916000I-2144J-2144D01*
G01*
D02*
G03*
X2627112Y916888I0J3032D01*
G01*
X2635915Y932112D02*
G03*
X2633771Y933000I-2144J-2144D01*
G01*
D02*
G03*
X2635915Y933888I0J3032D01*
G01*
X2637888Y924238D02*
G03*
X2637000Y922094I2144J-2144D01*
G01*
D02*
G03*
X2636112Y924238I-3032J0D01*
G01*
X2763625Y812115D02*
G03*
X2762737Y809971I2144J-2144D01*
G01*
D02*
G03*
X2761849Y812115I-3032J0D01*
G01*
X2753975D02*
G03*
X2751839Y813000I-2136J-2136D01*
G01*
X2751823D02*
G03*
X2753975Y813891I0J3043D01*
G01*
X2761849Y803785D02*
G03*
X2762737Y805929I-2144J2144D01*
G01*
D02*
G03*
X2763625Y803785I3032J0D01*
G01*
X2743209Y817373D02*
G03*
X2744151Y813849I3519J-948D01*
G01*
X2740715Y816812D02*
G03*
X2738571Y817700I-2144J-2144D01*
G01*
D02*
G03*
X2740715Y818588I0J3032D01*
G01*
X2637938Y883023D02*
G03*
X2637000Y881000I1712J-2023D01*
G01*
D02*
G03*
X2636062Y883023I-2650J0D01*
G01*
X2638027Y883105D02*
G03*
X2637000Y880625I2480J-2480D01*
G01*
D02*
G03*
X2635973Y883105I-3507J0D01*
G01*
X2637548Y895027D02*
G03*
X2640000Y900948I-5921J5921D01*
G01*
X2666969Y916000D02*
G03*
X2664825Y915112I0J-3032D01*
G01*
Y916888D02*
G03*
X2666969Y916000I2144J2144D01*
G01*
X2663937Y919229D02*
G03*
X2664825Y917085I3032J0D01*
G01*
X2663049D02*
G03*
X2663937Y919229I-2144J2144D01*
G01*
X2653031Y916000D02*
G03*
X2655175Y916888I0J3032D01*
G01*
Y915112D02*
G03*
X2653031Y916000I-2144J-2144D01*
G01*
X2656063Y912771D02*
G03*
X2655175Y914915I-3032J0D01*
G01*
X2656951D02*
G03*
X2656063Y912771I2144J-2144D01*
G01*
X2666969Y906000D02*
G03*
X2664825Y905112I0J-3032D01*
G01*
Y906888D02*
G03*
X2666969Y906000I2144J2144D01*
G01*
X2656063Y909229D02*
G03*
X2656951Y907085I3032J0D01*
G01*
X2655175D02*
G03*
X2656063Y909229I-2144J2144D01*
G01*
X2672078Y916000D02*
G03*
X2674398Y916961I0J3281D01*
G01*
Y914907D02*
G03*
X2671758Y916000I-2640J-2640D01*
G01*
Y906000D02*
G03*
X2674398Y907093I0J3733D01*
G01*
Y905039D02*
G03*
X2672078Y906000I-2320J-2320D01*
G01*
X2610957Y900546D02*
G03*
X2612027Y897961I3655J0D01*
G01*
X2609973D02*
G03*
X2610957Y900336I-2375J2375D01*
G01*
X2611000Y883559D02*
G03*
X2609973Y886039I-3507J0D01*
G01*
X2612027D02*
G03*
X2611000Y883559I2480J-2480D01*
G01*
X2634986Y917085D02*
G03*
X2637000Y921947I-4862J4862D01*
G01*
X2624968Y916000D02*
G03*
X2627112Y916888I0J3032D01*
G01*
Y915112D02*
G03*
X2624968Y916000I-2144J-2144D01*
G01*
X2633771Y933000D02*
G03*
X2635915Y933888I0J3032D01*
G01*
Y932112D02*
G03*
X2633771Y933000I-2144J-2144D01*
G01*
X2637000Y922094D02*
G03*
X2636112Y924238I-3032J0D01*
G01*
X2637888D02*
G03*
X2637000Y922094I2144J-2144D01*
G01*
X2762737Y809971D02*
G03*
X2761849Y812115I-3032J0D01*
G01*
X2763625D02*
G03*
X2762737Y809971I2144J-2144D01*
G01*
X2751823Y813000D02*
G03*
X2753975Y813891I0J3043D01*
G01*
Y812115D02*
G03*
X2751839Y813000I-2136J-2136D01*
G01*
X2762737Y805929D02*
G03*
X2763625Y803785I3032J0D01*
G01*
X2761849D02*
G03*
X2762737Y805929I-2144J2144D01*
G01*
X2738571Y817700D02*
G03*
X2740715Y818588I0J3032D01*
G01*
Y816812D02*
G03*
X2738571Y817700I-2144J-2144D01*
G01*
X2743209Y817373D02*
G03*
X2744151Y813849I3519J-948D01*
G01*
X2637000Y881000D02*
G03*
X2636062Y883023I-2650J0D01*
G01*
X2637938D02*
G03*
X2637000Y881000I1712J-2023D01*
G01*
Y880625D02*
G03*
X2635973Y883105I-3507J0D01*
G01*
X2638027D02*
G03*
X2637000Y880625I2480J-2480D01*
G01*
X2637548Y895027D02*
G03*
X2640000Y900948I-5921J5921D01*
G01*
X2663937Y925551D02*
G03*
X2662555Y928887I-4718J0D01*
G01*
X2665445D02*
G03*
X2663937Y925247I3640J-3640D01*
G01*
X2607555Y864445D02*
G03*
X2611000Y872761I-8317J8317D01*
G01*
X2731800Y807683D02*
G03*
X2732966Y804866I3982J0D01*
G01*
X2730634D02*
G03*
X2731800Y807683I-2816J2816D01*
G01*
Y822532D02*
G03*
X2727888Y831977I-13357J0D01*
G01*
X2731800Y829774D02*
G03*
X2730009Y834098I-6115J0D01*
G01*
X2727174Y833700D02*
G03*
X2723910Y841580I-11143J0D01*
G01*
X2643345Y905255D02*
G03*
X2640000Y897180I8075J-8075D01*
G01*
X2637000Y933000D02*
G03*
X2629743Y928933I0J-8508D01*
G01*
X2631646Y933000D02*
G03*
X2627184Y930499I0J-5232D01*
G01*
X2623067Y930000D02*
G03*
X2626555Y931445I0J4933D01*
G01*
Y928555D02*
G03*
X2623067Y930000I-3488J-3488D01*
G01*
X2623933Y916000D02*
G03*
X2620445Y914555I0J-4933D01*
G01*
Y917445D02*
G03*
X2623933Y916000I3488J3488D01*
G01*
X2653933D02*
G03*
X2650445Y914555I0J-4933D01*
G01*
Y917445D02*
G03*
X2653933Y916000I3488J3488D01*
G01*
X2645594Y853000D02*
G03*
X2637530Y872470I-27535J0D01*
G01*
X2648594Y853000D02*
G03*
X2642651Y867349I-20293J0D01*
G01*
X2651595Y853000D02*
G03*
X2647772Y862228I-13050J0D01*
G01*
X2663010Y846990D02*
G03*
X2650137Y851601I-11316J-11316D01*
G01*
X2658521Y851479D02*
G03*
X2649845Y854587I-7626J-7626D01*
G01*
X2741800Y817700D02*
Y818200D01*
X2731800Y817700D02*
X2741800D01*
X2731800Y803700D02*
Y817700D01*
X2741800Y816200D02*
Y817700D01*
X2640000Y904800D02*
X2641900Y906700D01*
X2640000Y895000D02*
Y904800D01*
X2637000Y881000D02*
Y884132D01*
Y873000D02*
Y884132D01*
X2649000Y916000D02*
X2656000D01*
X2663937D02*
Y928937D01*
X2656063Y907063D02*
Y916000D01*
X2663937Y906000D02*
X2675000D01*
X2663937Y916000D02*
X2675000D01*
X2611000Y864000D02*
Y887066D01*
X2762737Y813200D02*
Y813637D01*
Y803700D02*
Y813200D01*
X2741800Y816200D02*
X2745000Y813000D01*
X2753663D01*
X2610957Y896977D02*
X2611000Y896934D01*
X2610957Y896977D02*
Y920957D01*
X2620000Y930000D01*
X2628000D01*
X2619000Y916000D02*
X2628000D01*
X2635874D02*
X2637000Y917126D01*
Y925000D01*
X2631000Y933000D02*
X2637000D01*
X2628000Y930000D02*
X2631000Y933000D01*
X2664000Y846000D02*
X2719490D01*
X2731800Y834200D02*
X2732000Y834000D01*
X2730700Y834789D02*
X2731000Y834490D01*
X2719490Y846000D02*
X2730700Y834789D01*
X2653500Y856500D02*
X2664000Y846000D01*
X2637000Y873000D02*
X2653500Y856500D01*
X2731800Y817700D02*
Y833700D01*
Y834200D01*
X2731000Y833000D02*
Y833700D01*
Y834490D01*
D11*
X2782719Y840244D02*
G03*
X2778000Y829234I10485J-11011D01*
G01*
X2782119Y839964D02*
G03*
X2778000Y835343I532J-4620D01*
G01*
X2782719Y840244D02*
G03*
X2778000Y829234I10485J-11011D01*
G01*
X2782119Y839964D02*
G03*
X2778000Y835343I532J-4620D01*
G01*
X2782719Y840244D02*
G03*
X2778000Y829234I10485J-11011D01*
G01*
X2782119Y839964D02*
G03*
X2778000Y835343I532J-4620D01*
G01*
X2782119Y839964D02*
G03*
X2778000Y835343I532J-4620D01*
G01*
X2782719Y840244D02*
G03*
X2778000Y829234I10485J-11011D01*
G01*
Y807000D02*
Y819000D01*
Y837000D02*
X2782000Y841000D01*
X2778000Y829934D02*
Y837000D01*
D12*
Y820066D02*
D03*
Y829934D02*
D03*
X2637000Y894000D02*
D03*
Y884132D02*
D03*
X2611000Y887066D02*
D03*
Y896934D02*
D03*
X2677000Y906066D02*
D03*
Y915934D02*
D03*
D13*
X2741800Y817700D02*
D03*
Y825574D02*
D03*
X2637000Y925126D02*
D03*
Y933000D02*
D03*
D14*
X2754863Y802700D02*
D03*
X2762737D02*
D03*
X2754863Y813200D02*
D03*
X2762737D02*
D03*
X2628000Y916000D02*
D03*
X2635874D02*
D03*
X2656063Y906000D02*
D03*
X2663937D02*
D03*
X2656063Y916000D02*
D03*
X2663937D02*
D03*
D15*
X2777000Y846500D02*
D03*
X2659000Y935500D02*
D03*
D16*
X2614000Y858000D02*
D03*
D17*
X3180392Y789700D02*
D03*
X3117400Y789700D02*
D03*
D18*
X3025000Y746000D02*
D03*
X3110000Y783000D02*
D03*
X3025000Y721000D02*
D03*
X3110000Y776000D02*
D03*
D19*
X2778000Y807000D02*
D03*
X2772000Y841000D02*
D03*
X2782000D02*
D03*
X2772000Y851000D02*
D03*
X3207000Y843000D02*
D03*
X3197000D02*
D03*
X3207000Y853000D02*
D03*
X2621900Y906700D02*
D03*
X2641900D02*
D03*
X2663300Y866200D02*
D03*
X2673300D02*
D03*
X2683300D02*
D03*
X2693300D02*
D03*
X2703300D02*
D03*
X2713300D02*
D03*
X2723300D02*
D03*
X2733300D02*
D03*
X2663300Y896200D02*
D03*
X2673300D02*
D03*
X2683300D02*
D03*
X2693300D02*
D03*
X2703300D02*
D03*
X2713300D02*
D03*
X2723300D02*
D03*
X3079000Y942332D02*
D03*
X3089000D02*
D03*
X3079000Y932332D02*
D03*
X3034000Y855000D02*
D03*
Y865000D02*
D03*
X3044000Y855000D02*
D03*
X3170000Y942332D02*
D03*
X3180000D02*
D03*
X3170000Y932332D02*
D03*
X2619000Y853000D02*
D03*
Y863000D02*
D03*
X2609000Y853000D02*
D03*
X2654000Y930332D02*
D03*
X2664000D02*
D03*
X2654000Y940332D02*
D03*
X2745000Y930332D02*
D03*
X2755000D02*
D03*
X2745000Y940332D02*
D03*
X2713000Y855000D02*
D03*
X2683000D02*
D03*
X2649000Y916000D02*
D03*
X2619000D02*
D03*
X2628000Y930000D02*
D03*
D20*
X2782000Y851000D02*
D03*
X3197000Y853000D02*
D03*
X2733300Y896200D02*
D03*
X3089000Y932332D02*
D03*
X3180000D02*
D03*
X2664000Y940332D02*
D03*
X2755000D02*
D03*
D21*
X2729611Y833700D02*
D03*
X2630000Y854000D02*
D03*
X2740000Y853000D02*
D03*
D22*
X2717800Y833700D02*
D03*
X2681000Y810000D02*
D03*
Y827717D02*
D03*
D23*
X2741800Y803700D02*
D03*
D24*
X2731800D02*
D03*
X2721800D02*
D03*
D25*
X3079130Y734300D02*
D03*
X3138151D02*
D03*
Y685100D02*
D03*
X3079130D02*
D03*
X3138173Y844200D02*
D03*
X3079151D02*
D03*
Y893400D02*
D03*
X3138173D02*
D03*
D26*
X2763000Y890000D02*
D03*
Y870000D02*
D03*
D27*
Y910000D02*
D03*
D28*
X3044000Y865000D02*
D03*
X2609000Y863000D02*
D03*
D29*
X2650000Y853000D02*
D03*
M02*
