%FSLAX25Y25*%
%MOIN*%
G70*
G01*
G75*
G04 Layer_Color=32896*
%ADD10C,0.05906*%
%ADD11C,0.07087*%
%ADD12R,0.07087X0.07087*%
%ADD13C,0.27000*%
%ADD14R,0.07087X0.07087*%
%ADD15C,0.09843*%
%ADD16R,0.09055X0.05906*%
%ADD17C,0.05000*%
%ADD18C,0.06000*%
%ADD19R,0.23000X0.29000*%
%ADD20R,0.50800X0.48500*%
%ADD21R,0.25000X0.07000*%
%ADD22R,0.71440X1.29200*%
%ADD23R,0.94240X1.26700*%
%ADD24R,0.80583X2.30800*%
%ADD25R,0.73443X0.74200*%
%ADD26R,0.18000X0.18000*%
%ADD27R,0.26000X0.12800*%
%ADD28R,0.18000X2.24000*%
%ADD29C,0.00787*%
%ADD30C,0.01000*%
%ADD31C,0.00800*%
%ADD32C,0.00591*%
%ADD33C,0.06706*%
%ADD34C,0.07887*%
%ADD35R,0.07887X0.07887*%
%ADD36C,0.27800*%
%ADD37R,0.07887X0.07887*%
%ADD38C,0.10642*%
%ADD39R,0.09855X0.06706*%
%ADD40R,0.15800X0.01900*%
D29*
X459626Y307999D02*
X467500D01*
X459626Y287133D02*
Y307999D01*
Y287133D02*
X475374D01*
Y307999D01*
X467500D02*
X475374D01*
X472400Y302416D02*
X535392D01*
X472400Y266984D02*
Y302416D01*
X535392Y266984D02*
Y289031D01*
Y302416D01*
X472400Y266984D02*
X535392D01*
X459626Y707999D02*
X467500D01*
X459626Y687133D02*
Y707999D01*
Y687133D02*
X475374D01*
Y707999D01*
X467500D02*
X475374D01*
X472400Y702417D02*
X535392D01*
X472400Y666984D02*
Y702417D01*
X535392Y666984D02*
Y689031D01*
Y702417D01*
X472400Y666984D02*
X535392D01*
X209626Y707999D02*
X217500D01*
X209626Y687133D02*
Y707999D01*
Y687133D02*
X225374D01*
Y707999D01*
X217500D02*
X225374D01*
X222400Y702417D02*
X285392D01*
X222400Y666984D02*
Y702417D01*
X285392Y666984D02*
Y689031D01*
Y702417D01*
X222400Y666984D02*
X285392D01*
X222400Y302416D02*
X285392D01*
X222400Y266984D02*
Y302416D01*
X285392Y266984D02*
Y289031D01*
Y302416D01*
X222400Y266984D02*
X285392D01*
X209626Y307999D02*
X217500D01*
X209626Y287133D02*
Y307999D01*
Y287133D02*
X225374D01*
Y307999D01*
X217500D02*
X225374D01*
D30*
X472400Y300054D02*
Y302416D01*
X535392Y300054D02*
Y302416D01*
X472400Y700054D02*
Y702417D01*
X535392Y700054D02*
Y702417D01*
X222400Y700054D02*
Y702417D01*
X285392Y700054D02*
Y702417D01*
X222400Y300054D02*
Y302416D01*
X285392Y300054D02*
Y302416D01*
X474800Y317398D02*
Y311400D01*
X471801D01*
X470801Y312400D01*
Y316398D01*
X471801Y317398D01*
X474800D01*
X464803Y316398D02*
X465803Y317398D01*
X467802D01*
X468802Y316398D01*
Y315399D01*
X467802Y314399D01*
X465803D01*
X464803Y313399D01*
Y312400D01*
X465803Y311400D01*
X467802D01*
X468802Y312400D01*
X462804Y310400D02*
X458805D01*
X456806Y316398D02*
X455806Y317398D01*
X453807D01*
X452807Y316398D01*
Y315399D01*
X453807Y314399D01*
X454807D01*
X453807D01*
X452807Y313399D01*
Y312400D01*
X453807Y311400D01*
X455806D01*
X456806Y312400D01*
X525699Y270602D02*
X524699Y269602D01*
X522700D01*
X521700Y270602D01*
Y274600D01*
X522700Y275600D01*
X524699D01*
X525699Y274600D01*
X531697Y270602D02*
X530697Y269602D01*
X528698D01*
X527698Y270602D01*
Y271601D01*
X528698Y272601D01*
X530697D01*
X531697Y273601D01*
Y274600D01*
X530697Y275600D01*
X528698D01*
X527698Y274600D01*
X533696Y276600D02*
X537695D01*
X539694Y270602D02*
X540694Y269602D01*
X542693D01*
X543693Y270602D01*
Y271601D01*
X542693Y272601D01*
X541693D01*
X542693D01*
X543693Y273601D01*
Y274600D01*
X542693Y275600D01*
X540694D01*
X539694Y274600D01*
X474800Y717398D02*
Y711400D01*
X471801D01*
X470801Y712400D01*
Y716398D01*
X471801Y717398D01*
X474800D01*
X464803Y716398D02*
X465803Y717398D01*
X467802D01*
X468802Y716398D01*
Y715399D01*
X467802Y714399D01*
X465803D01*
X464803Y713399D01*
Y712400D01*
X465803Y711400D01*
X467802D01*
X468802Y712400D01*
X462804Y710400D02*
X458805D01*
X452807Y711400D02*
X456806D01*
X452807Y715399D01*
Y716398D01*
X453807Y717398D01*
X455806D01*
X456806Y716398D01*
X525699Y670602D02*
X524699Y669602D01*
X522700D01*
X521700Y670602D01*
Y674600D01*
X522700Y675600D01*
X524699D01*
X525699Y674600D01*
X531697Y670602D02*
X530697Y669602D01*
X528698D01*
X527698Y670602D01*
Y671601D01*
X528698Y672601D01*
X530697D01*
X531697Y673601D01*
Y674600D01*
X530697Y675600D01*
X528698D01*
X527698Y674600D01*
X533696Y676600D02*
X537695D01*
X543693Y675600D02*
X539694D01*
X543693Y671601D01*
Y670602D01*
X542693Y669602D01*
X540694D01*
X539694Y670602D01*
X224800Y717398D02*
Y711400D01*
X221801D01*
X220801Y712400D01*
Y716398D01*
X221801Y717398D01*
X224800D01*
X214803Y716398D02*
X215803Y717398D01*
X217802D01*
X218802Y716398D01*
Y715399D01*
X217802Y714399D01*
X215803D01*
X214803Y713399D01*
Y712400D01*
X215803Y711400D01*
X217802D01*
X218802Y712400D01*
X212804Y710400D02*
X208805D01*
X206806Y711400D02*
X204806D01*
X205806D01*
Y717398D01*
X206806Y716398D01*
X275699Y670602D02*
X274699Y669602D01*
X272700D01*
X271700Y670602D01*
Y674600D01*
X272700Y675600D01*
X274699D01*
X275699Y674600D01*
X281697Y670602D02*
X280697Y669602D01*
X278698D01*
X277698Y670602D01*
Y671601D01*
X278698Y672601D01*
X280697D01*
X281697Y673601D01*
Y674600D01*
X280697Y675600D01*
X278698D01*
X277698Y674600D01*
X283696Y676600D02*
X287695D01*
X289694Y675600D02*
X291693D01*
X290694D01*
Y669602D01*
X289694Y670602D01*
X275699Y270602D02*
X274699Y269602D01*
X272700D01*
X271700Y270602D01*
Y274600D01*
X272700Y275600D01*
X274699D01*
X275699Y274600D01*
X281697Y270602D02*
X280697Y269602D01*
X278698D01*
X277698Y270602D01*
Y271601D01*
X278698Y272601D01*
X280697D01*
X281697Y273601D01*
Y274600D01*
X280697Y275600D01*
X278698D01*
X277698Y274600D01*
X224800Y317398D02*
Y311400D01*
X221801D01*
X220801Y312400D01*
Y316398D01*
X221801Y317398D01*
X224800D01*
X214803Y316398D02*
X215803Y317398D01*
X217802D01*
X218802Y316398D01*
Y315399D01*
X217802Y314399D01*
X215803D01*
X214803Y313399D01*
Y312400D01*
X215803Y311400D01*
X217802D01*
X218802Y312400D01*
D40*
X467500Y288216D02*
D03*
Y688216D02*
D03*
X217500D02*
D03*
Y288216D02*
D03*
M02*
