M48
;Layer_Color=9474304
;FILE_FORMAT=2:5
INCH,LZ
;TYPE=PLATED
T1F00S00C0.03150
;TYPE=NON_PLATED
T2F00S00C0.17000
%
T01
X04724Y02847
X0535392Y02847
X0465Y0278
Y0271
X038Y0241
Y0216
X0285392Y02847
X02224Y02847
X0215Y0278
Y0271
X013Y0241
Y0216
X0139Y035
Y036
X0149
Y035
X0184Y0427332
Y0437332
X0194
Y0427332
X0275
Y0437332
X0285
Y0427332
X0302Y0348
Y0338
X0312
Y0348
X0389Y035
Y036
X0399
Y035
X0434Y0427332
Y0437332
X0444
Y0427332
X0525
Y0437332
X0535
Y0427332
X0552Y0348
Y0338
X0562
Y0348
X038Y0616
X013
Y0641
X0139Y075
Y076
X0149
Y075
X0215Y0678
Y0671
X02224Y06847
X0285392Y06847
X0302Y0738
X0312
Y0748
X0302
X0389Y075
Y076
X0399
Y075
X038Y0641
X0465Y0671
Y0678
X04724Y06847
X0535392Y06847
X0552Y0738
X0562
Y0748
X0552
X0535Y0827332
Y0837332
X0525
Y0827332
X0444
Y0837332
X0434
Y0827332
X0285
Y0837332
X0275
Y0827332
X0194
Y0837332
X0184
Y0827332
T02
X0493151Y01801
Y02293
X043413
Y01801
X0243151
Y02293
X018413
Y01801
X0184151Y03392
Y03884
X0243173
Y03392
X0434151
Y03884
X0493173
Y03392
X0493151Y05801
X043413
X0243151
X018413
Y06293
X0243151
X0243173Y07392
X0184151
X0434151
X043413Y06293
X0493151
X0493173Y07392
Y07884
X0434151
X0243173
X0184151
M30
