%FSLAX25Y25*%
%MOIN*%
G70*
G01*
G75*
G04 Layer_Color=255*
%ADD10C,0.05906*%
%ADD11C,0.07087*%
%ADD12R,0.07087X0.07087*%
%ADD13C,0.27000*%
%ADD14R,0.07087X0.07087*%
%ADD15C,0.09843*%
%ADD16R,0.09055X0.05906*%
%ADD17C,0.05000*%
%ADD18C,0.06000*%
%ADD19R,0.23000X0.29000*%
%ADD20R,0.50800X0.48500*%
%ADD21R,0.25000X0.07000*%
%ADD22R,0.71440X1.29200*%
%ADD23R,0.94240X1.26700*%
%ADD24R,0.80583X2.30800*%
%ADD25R,0.73443X0.74200*%
%ADD26R,0.18000X0.18000*%
%ADD27R,0.26000X0.12800*%
%ADD28R,0.18000X2.24000*%
D10*
X380000Y241000D02*
D03*
X465000Y278000D02*
D03*
X380000Y216000D02*
D03*
X465000Y271000D02*
D03*
X380000Y641000D02*
D03*
X465000Y678000D02*
D03*
X380000Y616000D02*
D03*
X465000Y671000D02*
D03*
X130000Y641000D02*
D03*
X215000Y678000D02*
D03*
X130000Y616000D02*
D03*
X215000Y671000D02*
D03*
X130000Y216000D02*
D03*
X215000Y271000D02*
D03*
X130000Y241000D02*
D03*
X215000Y278000D02*
D03*
D11*
X562000Y338000D02*
D03*
X552000D02*
D03*
X562000Y348000D02*
D03*
X434000Y437332D02*
D03*
X444000D02*
D03*
X434000Y427332D02*
D03*
X389000Y350000D02*
D03*
Y360000D02*
D03*
X399000Y350000D02*
D03*
X525000Y437332D02*
D03*
X535000D02*
D03*
X525000Y427332D02*
D03*
X562000Y738000D02*
D03*
X552000D02*
D03*
X562000Y748000D02*
D03*
X434000Y837332D02*
D03*
X444000D02*
D03*
X434000Y827332D02*
D03*
X389000Y750000D02*
D03*
Y760000D02*
D03*
X399000Y750000D02*
D03*
X525000Y837332D02*
D03*
X535000D02*
D03*
X525000Y827332D02*
D03*
X312000Y738000D02*
D03*
X302000D02*
D03*
X312000Y748000D02*
D03*
X184000Y837332D02*
D03*
X194000D02*
D03*
X184000Y827332D02*
D03*
X139000Y750000D02*
D03*
Y760000D02*
D03*
X149000Y750000D02*
D03*
X275000Y837332D02*
D03*
X285000D02*
D03*
X275000Y827332D02*
D03*
Y437332D02*
D03*
X285000D02*
D03*
X275000Y427332D02*
D03*
X139000Y350000D02*
D03*
Y360000D02*
D03*
X149000Y350000D02*
D03*
X184000Y437332D02*
D03*
X194000D02*
D03*
X184000Y427332D02*
D03*
X312000Y338000D02*
D03*
X302000D02*
D03*
X312000Y348000D02*
D03*
D12*
X552000D02*
D03*
X444000Y427332D02*
D03*
X535000D02*
D03*
X552000Y748000D02*
D03*
X444000Y827332D02*
D03*
X535000D02*
D03*
X302000Y748000D02*
D03*
X194000Y827332D02*
D03*
X285000D02*
D03*
Y427332D02*
D03*
X194000D02*
D03*
X302000Y348000D02*
D03*
D13*
X493173Y339200D02*
D03*
X434151D02*
D03*
Y388400D02*
D03*
X493173D02*
D03*
X434130Y229300D02*
D03*
X493151D02*
D03*
Y180100D02*
D03*
X434130D02*
D03*
X493173Y739200D02*
D03*
X434151D02*
D03*
Y788400D02*
D03*
X493173D02*
D03*
X434130Y629300D02*
D03*
X493151D02*
D03*
Y580100D02*
D03*
X434130D02*
D03*
X243173Y739200D02*
D03*
X184151D02*
D03*
Y788400D02*
D03*
X243173D02*
D03*
X184130Y629300D02*
D03*
X243151D02*
D03*
Y580100D02*
D03*
X184130D02*
D03*
Y229300D02*
D03*
X243151D02*
D03*
Y180100D02*
D03*
X184130D02*
D03*
X243173Y339200D02*
D03*
X184151D02*
D03*
Y388400D02*
D03*
X243173D02*
D03*
D14*
X399000Y360000D02*
D03*
Y760000D02*
D03*
X149000D02*
D03*
Y360000D02*
D03*
D15*
X535392Y284700D02*
D03*
X472400Y284700D02*
D03*
X535392Y684700D02*
D03*
X472400Y684700D02*
D03*
X285392Y684700D02*
D03*
X222400Y684700D02*
D03*
X285392Y284700D02*
D03*
X222400Y284700D02*
D03*
D16*
X467500Y292632D02*
D03*
Y302500D02*
D03*
Y692632D02*
D03*
Y702500D02*
D03*
X217500Y692632D02*
D03*
Y702500D02*
D03*
Y292632D02*
D03*
Y302500D02*
D03*
M02*
