%FSLAX25Y25*%
%MOIN*%
G70*
G01*
G75*
%ADD10C,0.05906*%
%ADD11C,0.07087*%
%ADD12R,0.07087X0.07087*%
%ADD13C,0.27000*%
%ADD14R,0.07087X0.07087*%
%ADD15C,0.09843*%
%ADD16R,0.09055X0.05906*%
%ADD17C,0.05000*%
%ADD18C,0.06000*%
%ADD19R,0.23000X0.29000*%
%ADD20R,0.50800X0.48500*%
%ADD21R,0.25000X0.07000*%
%ADD22R,0.71440X1.29200*%
%ADD23R,0.94240X1.26700*%
%ADD24R,0.80583X2.30800*%
%ADD25R,0.73443X0.74200*%
%ADD26R,0.18000X0.18000*%
%ADD27R,0.26000X0.12800*%
%ADD28R,0.18000X2.24000*%
%ADD29C,0.00787*%
%ADD30C,0.01000*%
%ADD31C,0.00800*%
%ADD32C,0.00591*%
D29*
X501643Y339194D02*
G03*
X501643Y339194I-8465J0D01*
G01*
X442588D02*
G03*
X442588Y339194I-8465J0D01*
G01*
X501643Y388406D02*
G03*
X501643Y388406I-8465J0D01*
G01*
X442588D02*
G03*
X442588Y388406I-8465J0D01*
G01*
Y229306D02*
G03*
X442588Y229306I-8465J0D01*
G01*
X501643D02*
G03*
X501643Y229306I-8465J0D01*
G01*
X442588Y180094D02*
G03*
X442588Y180094I-8465J0D01*
G01*
X501643D02*
G03*
X501643Y180094I-8465J0D01*
G01*
Y739194D02*
G03*
X501643Y739194I-8465J0D01*
G01*
X442588D02*
G03*
X442588Y739194I-8465J0D01*
G01*
X501643Y788406D02*
G03*
X501643Y788406I-8465J0D01*
G01*
X442588D02*
G03*
X442588Y788406I-8465J0D01*
G01*
Y629306D02*
G03*
X442588Y629306I-8465J0D01*
G01*
X501643D02*
G03*
X501643Y629306I-8465J0D01*
G01*
X442588Y580094D02*
G03*
X442588Y580094I-8465J0D01*
G01*
X501643D02*
G03*
X501643Y580094I-8465J0D01*
G01*
X251643Y739194D02*
G03*
X251643Y739194I-8465J0D01*
G01*
X192588D02*
G03*
X192588Y739194I-8465J0D01*
G01*
X251643Y788406D02*
G03*
X251643Y788406I-8465J0D01*
G01*
X192588D02*
G03*
X192588Y788406I-8465J0D01*
G01*
Y629306D02*
G03*
X192588Y629306I-8465J0D01*
G01*
X251643D02*
G03*
X251643Y629306I-8465J0D01*
G01*
X192588Y580094D02*
G03*
X192588Y580094I-8465J0D01*
G01*
X251643D02*
G03*
X251643Y580094I-8465J0D01*
G01*
X192588Y229306D02*
G03*
X192588Y229306I-8465J0D01*
G01*
X251643D02*
G03*
X251643Y229306I-8465J0D01*
G01*
X192588Y180094D02*
G03*
X192588Y180094I-8465J0D01*
G01*
X251643D02*
G03*
X251643Y180094I-8465J0D01*
G01*
Y339194D02*
G03*
X251643Y339194I-8465J0D01*
G01*
X192588D02*
G03*
X192588Y339194I-8465J0D01*
G01*
X251643Y388406D02*
G03*
X251643Y388406I-8465J0D01*
G01*
X192588D02*
G03*
X192588Y388406I-8465J0D01*
G01*
X465000Y251000D02*
Y271000D01*
X455500Y241500D02*
X465000Y251000D01*
X448047Y241500D02*
X455500D01*
X380000D02*
X400213D01*
X448047D02*
Y251343D01*
X400213D02*
X448047D01*
X400213Y231658D02*
Y251343D01*
Y231658D02*
X448047D01*
Y241500D01*
X567000Y333000D02*
Y353000D01*
X547000D02*
X567000D01*
X547000Y333000D02*
X567000D01*
X547000D02*
Y353000D01*
X388258Y372461D02*
X391407D01*
X426348Y325726D02*
X441899D01*
X418573Y339194D02*
X426348Y352661D01*
X441899D02*
X449675Y339194D01*
X441899Y325726D02*
X449675Y339194D01*
X418573D02*
X426348Y325726D01*
Y352661D02*
X441899D01*
X388258Y408823D02*
X393824Y414390D01*
X533478D02*
X539045Y408823D01*
X388258Y318776D02*
X393824Y313209D01*
X533478D01*
X393824Y414390D02*
X533478D01*
X539045Y318776D02*
Y408823D01*
X533478Y313209D02*
X539045Y318776D01*
X426348Y374939D02*
X441899D01*
X418573Y388406D02*
X426348Y401874D01*
X441899D02*
X449675Y388406D01*
X441899Y374939D02*
X449675Y388406D01*
X418573D02*
X426348Y374939D01*
Y401874D02*
X441899D01*
X485403Y374939D02*
X500954D01*
X477628Y388406D02*
X485403Y401874D01*
X500954D02*
X508730Y388406D01*
X500954Y374939D02*
X508730Y388406D01*
X477628D02*
X485403Y374939D01*
Y401874D02*
X500954D01*
X485403Y325726D02*
X500954D01*
X477628Y339194D02*
X485403Y352661D01*
X500954D02*
X508730Y339194D01*
X500954Y325726D02*
X508730Y339194D01*
X477628D02*
X485403Y325726D01*
Y352661D02*
X500954D01*
X388365Y372461D02*
Y408716D01*
X388258Y318776D02*
Y355138D01*
X391407D01*
X535895Y196039D02*
X539045D01*
X485403Y242774D02*
X500954D01*
Y215839D02*
X508730Y229306D01*
X477628D02*
X485403Y215839D01*
X477628Y229306D02*
X485403Y242774D01*
X500954D02*
X508730Y229306D01*
X485403Y215839D02*
X500954D01*
X533478Y154110D02*
X539045Y159676D01*
X388258D02*
X393824Y154110D01*
X533478Y255291D02*
X539045Y249724D01*
X393824Y255291D02*
X533478D01*
X393824Y154110D02*
X533478D01*
X388258Y159676D02*
Y249724D01*
X393824Y255291D01*
X485403Y193561D02*
X500954D01*
Y166626D02*
X508730Y180094D01*
X477628D02*
X485403Y166626D01*
X477628Y180094D02*
X485403Y193561D01*
X500954D02*
X508730Y180094D01*
X485403Y166626D02*
X500954D01*
X426348Y193561D02*
X441899D01*
Y166626D02*
X449675Y180094D01*
X418573D02*
X426348Y166626D01*
X418573Y180094D02*
X426348Y193561D01*
X441899D02*
X449675Y180094D01*
X426348Y166626D02*
X441899D01*
X426348Y242774D02*
X441899D01*
Y215839D02*
X449675Y229306D01*
X418573D02*
X426348Y215839D01*
X418573Y229306D02*
X426348Y242774D01*
X441899D02*
X449675Y229306D01*
X426348Y215839D02*
X441899D01*
X538938Y159783D02*
Y196039D01*
X539045Y213361D02*
Y249724D01*
X535895Y213361D02*
X539045D01*
X465000Y228000D02*
Y278000D01*
X453000Y216000D02*
X465000Y228000D01*
X448287Y216000D02*
X453000D01*
X380000D02*
X400453D01*
X448287D02*
Y225842D01*
X400453D02*
X448287D01*
X400453Y206157D02*
Y225842D01*
Y206157D02*
X448287D01*
Y216000D01*
X429000Y422332D02*
Y442332D01*
Y422332D02*
X449000D01*
X429000Y442332D02*
X449000D01*
Y422332D02*
Y442332D01*
X384000Y345000D02*
X404000D01*
Y365000D01*
X384000Y345000D02*
Y365000D01*
X404000D01*
X520000Y422332D02*
Y442332D01*
Y422332D02*
X540000D01*
X520000Y442332D02*
X540000D01*
Y422332D02*
Y442332D01*
X465000Y651000D02*
Y671000D01*
X455500Y641500D02*
X465000Y651000D01*
X448047Y641500D02*
X455500D01*
X380000D02*
X400213D01*
X448047D02*
Y651342D01*
X400213D02*
X448047D01*
X400213Y631658D02*
Y651342D01*
Y631658D02*
X448047D01*
Y641500D01*
X567000Y733000D02*
Y753000D01*
X547000D02*
X567000D01*
X547000Y733000D02*
X567000D01*
X547000D02*
Y753000D01*
X388258Y772461D02*
X391407D01*
X426348Y725726D02*
X441899D01*
X418573Y739194D02*
X426348Y752661D01*
X441899D02*
X449675Y739194D01*
X441899Y725726D02*
X449675Y739194D01*
X418573D02*
X426348Y725726D01*
Y752661D02*
X441899D01*
X388258Y808823D02*
X393824Y814390D01*
X533478D02*
X539045Y808823D01*
X388258Y718776D02*
X393824Y713209D01*
X533478D01*
X393824Y814390D02*
X533478D01*
X539045Y718776D02*
Y808823D01*
X533478Y713209D02*
X539045Y718776D01*
X426348Y774938D02*
X441899D01*
X418573Y788406D02*
X426348Y801874D01*
X441899D02*
X449675Y788406D01*
X441899Y774938D02*
X449675Y788406D01*
X418573D02*
X426348Y774938D01*
Y801874D02*
X441899D01*
X485403Y774938D02*
X500954D01*
X477628Y788406D02*
X485403Y801874D01*
X500954D02*
X508730Y788406D01*
X500954Y774938D02*
X508730Y788406D01*
X477628D02*
X485403Y774938D01*
Y801874D02*
X500954D01*
X485403Y725726D02*
X500954D01*
X477628Y739194D02*
X485403Y752661D01*
X500954D02*
X508730Y739194D01*
X500954Y725726D02*
X508730Y739194D01*
X477628D02*
X485403Y725726D01*
Y752661D02*
X500954D01*
X388365Y772461D02*
Y808716D01*
X388258Y718776D02*
Y755138D01*
X391407D01*
X535895Y596039D02*
X539045D01*
X485403Y642774D02*
X500954D01*
Y615839D02*
X508730Y629306D01*
X477628D02*
X485403Y615839D01*
X477628Y629306D02*
X485403Y642774D01*
X500954D02*
X508730Y629306D01*
X485403Y615839D02*
X500954D01*
X533478Y554109D02*
X539045Y559676D01*
X388258D02*
X393824Y554109D01*
X533478Y655291D02*
X539045Y649724D01*
X393824Y655291D02*
X533478D01*
X393824Y554109D02*
X533478D01*
X388258Y559676D02*
Y649724D01*
X393824Y655291D01*
X485403Y593561D02*
X500954D01*
Y566626D02*
X508730Y580094D01*
X477628D02*
X485403Y566626D01*
X477628Y580094D02*
X485403Y593561D01*
X500954D02*
X508730Y580094D01*
X485403Y566626D02*
X500954D01*
X426348Y593561D02*
X441899D01*
Y566626D02*
X449675Y580094D01*
X418573D02*
X426348Y566626D01*
X418573Y580094D02*
X426348Y593561D01*
X441899D02*
X449675Y580094D01*
X426348Y566626D02*
X441899D01*
X426348Y642774D02*
X441899D01*
Y615839D02*
X449675Y629306D01*
X418573D02*
X426348Y615839D01*
X418573Y629306D02*
X426348Y642774D01*
X441899D02*
X449675Y629306D01*
X426348Y615839D02*
X441899D01*
X538938Y559783D02*
Y596039D01*
X539045Y613361D02*
Y649724D01*
X535895Y613361D02*
X539045D01*
X465000Y628000D02*
Y678000D01*
X453000Y616000D02*
X465000Y628000D01*
X448287Y616000D02*
X453000D01*
X380000D02*
X400453D01*
X448287D02*
Y625843D01*
X400453D02*
X448287D01*
X400453Y606157D02*
Y625843D01*
Y606157D02*
X448287D01*
Y616000D01*
X429000Y822332D02*
Y842332D01*
Y822332D02*
X449000D01*
X429000Y842332D02*
X449000D01*
Y822332D02*
Y842332D01*
X384000Y745000D02*
X404000D01*
Y765000D01*
X384000Y745000D02*
Y765000D01*
X404000D01*
X520000Y822332D02*
Y842332D01*
Y822332D02*
X540000D01*
X520000Y842332D02*
X540000D01*
Y822332D02*
Y842332D01*
X215000Y651000D02*
Y671000D01*
X205500Y641500D02*
X215000Y651000D01*
X198047Y641500D02*
X205500D01*
X130000D02*
X150213D01*
X198047D02*
Y651342D01*
X150213D02*
X198047D01*
X150213Y631658D02*
Y651342D01*
Y631658D02*
X198047D01*
Y641500D01*
X317000Y733000D02*
Y753000D01*
X297000D02*
X317000D01*
X297000Y733000D02*
X317000D01*
X297000D02*
Y753000D01*
X138258Y772461D02*
X141407D01*
X176348Y725726D02*
X191899D01*
X168572Y739194D02*
X176348Y752661D01*
X191899D02*
X199675Y739194D01*
X191899Y725726D02*
X199675Y739194D01*
X168572D02*
X176348Y725726D01*
Y752661D02*
X191899D01*
X138258Y808823D02*
X143824Y814390D01*
X283478D02*
X289045Y808823D01*
X138258Y718776D02*
X143824Y713209D01*
X283478D01*
X143824Y814390D02*
X283478D01*
X289045Y718776D02*
Y808823D01*
X283478Y713209D02*
X289045Y718776D01*
X176348Y774938D02*
X191899D01*
X168572Y788406D02*
X176348Y801874D01*
X191899D02*
X199675Y788406D01*
X191899Y774938D02*
X199675Y788406D01*
X168572D02*
X176348Y774938D01*
Y801874D02*
X191899D01*
X235403Y774938D02*
X250954D01*
X227628Y788406D02*
X235403Y801874D01*
X250954D02*
X258730Y788406D01*
X250954Y774938D02*
X258730Y788406D01*
X227628D02*
X235403Y774938D01*
Y801874D02*
X250954D01*
X235403Y725726D02*
X250954D01*
X227628Y739194D02*
X235403Y752661D01*
X250954D02*
X258730Y739194D01*
X250954Y725726D02*
X258730Y739194D01*
X227628D02*
X235403Y725726D01*
Y752661D02*
X250954D01*
X138365Y772461D02*
Y808716D01*
X138258Y718776D02*
Y755138D01*
X141407D01*
X285895Y596039D02*
X289045D01*
X235403Y642774D02*
X250954D01*
Y615839D02*
X258730Y629306D01*
X227628D02*
X235403Y615839D01*
X227628Y629306D02*
X235403Y642774D01*
X250954D02*
X258730Y629306D01*
X235403Y615839D02*
X250954D01*
X283478Y554109D02*
X289045Y559676D01*
X138258D02*
X143824Y554109D01*
X283478Y655291D02*
X289045Y649724D01*
X143824Y655291D02*
X283478D01*
X143824Y554109D02*
X283478D01*
X138258Y559676D02*
Y649724D01*
X143824Y655291D01*
X235403Y593561D02*
X250954D01*
Y566626D02*
X258730Y580094D01*
X227628D02*
X235403Y566626D01*
X227628Y580094D02*
X235403Y593561D01*
X250954D02*
X258730Y580094D01*
X235403Y566626D02*
X250954D01*
X176348Y593561D02*
X191899D01*
Y566626D02*
X199675Y580094D01*
X168572D02*
X176348Y566626D01*
X168572Y580094D02*
X176348Y593561D01*
X191899D02*
X199675Y580094D01*
X176348Y566626D02*
X191899D01*
X176348Y642774D02*
X191899D01*
Y615839D02*
X199675Y629306D01*
X168572D02*
X176348Y615839D01*
X168572Y629306D02*
X176348Y642774D01*
X191899D02*
X199675Y629306D01*
X176348Y615839D02*
X191899D01*
X288938Y559783D02*
Y596039D01*
X289045Y613361D02*
Y649724D01*
X285895Y613361D02*
X289045D01*
X215000Y628000D02*
Y678000D01*
X203000Y616000D02*
X215000Y628000D01*
X198287Y616000D02*
X203000D01*
X130000D02*
X150453D01*
X198287D02*
Y625843D01*
X150453D02*
X198287D01*
X150453Y606157D02*
Y625843D01*
Y606157D02*
X198287D01*
Y616000D01*
X179000Y822332D02*
Y842332D01*
Y822332D02*
X199000D01*
X179000Y842332D02*
X199000D01*
Y822332D02*
Y842332D01*
X134000Y745000D02*
X154000D01*
Y765000D01*
X134000Y745000D02*
Y765000D01*
X154000D01*
X270000Y822332D02*
Y842332D01*
Y822332D02*
X290000D01*
X270000Y842332D02*
X290000D01*
Y822332D02*
Y842332D01*
X270000Y422332D02*
Y442332D01*
Y422332D02*
X290000D01*
X270000Y442332D02*
X290000D01*
Y422332D02*
Y442332D01*
X134000Y345000D02*
X154000D01*
Y365000D01*
X134000Y345000D02*
Y365000D01*
X154000D01*
X179000Y422332D02*
Y442332D01*
Y422332D02*
X199000D01*
X179000Y442332D02*
X199000D01*
Y422332D02*
Y442332D01*
X215000Y228000D02*
Y278000D01*
X203000Y216000D02*
X215000Y228000D01*
X198287Y216000D02*
X203000D01*
X130000D02*
X150453D01*
X198287D02*
Y225842D01*
X150453D02*
X198287D01*
X150453Y206157D02*
Y225842D01*
Y206157D02*
X198287D01*
Y216000D01*
X285895Y196039D02*
X289045D01*
X235403Y242774D02*
X250954D01*
Y215839D02*
X258730Y229306D01*
X227628D02*
X235403Y215839D01*
X227628Y229306D02*
X235403Y242774D01*
X250954D02*
X258730Y229306D01*
X235403Y215839D02*
X250954D01*
X283478Y154110D02*
X289045Y159676D01*
X138258D02*
X143824Y154110D01*
X283478Y255291D02*
X289045Y249724D01*
X143824Y255291D02*
X283478D01*
X143824Y154110D02*
X283478D01*
X138258Y159676D02*
Y249724D01*
X143824Y255291D01*
X235403Y193561D02*
X250954D01*
Y166626D02*
X258730Y180094D01*
X227628D02*
X235403Y166626D01*
X227628Y180094D02*
X235403Y193561D01*
X250954D02*
X258730Y180094D01*
X235403Y166626D02*
X250954D01*
X176348Y193561D02*
X191899D01*
Y166626D02*
X199675Y180094D01*
X168572D02*
X176348Y166626D01*
X168572Y180094D02*
X176348Y193561D01*
X191899D02*
X199675Y180094D01*
X176348Y166626D02*
X191899D01*
X176348Y242774D02*
X191899D01*
Y215839D02*
X199675Y229306D01*
X168572D02*
X176348Y215839D01*
X168572Y229306D02*
X176348Y242774D01*
X191899D02*
X199675Y229306D01*
X176348Y215839D02*
X191899D01*
X288938Y159783D02*
Y196039D01*
X289045Y213361D02*
Y249724D01*
X285895Y213361D02*
X289045D01*
X138258Y372461D02*
X141407D01*
X176348Y325726D02*
X191899D01*
X168572Y339194D02*
X176348Y352661D01*
X191899D02*
X199675Y339194D01*
X191899Y325726D02*
X199675Y339194D01*
X168572D02*
X176348Y325726D01*
Y352661D02*
X191899D01*
X138258Y408823D02*
X143824Y414390D01*
X283478D02*
X289045Y408823D01*
X138258Y318776D02*
X143824Y313209D01*
X283478D01*
X143824Y414390D02*
X283478D01*
X289045Y318776D02*
Y408823D01*
X283478Y313209D02*
X289045Y318776D01*
X176348Y374939D02*
X191899D01*
X168572Y388406D02*
X176348Y401874D01*
X191899D02*
X199675Y388406D01*
X191899Y374939D02*
X199675Y388406D01*
X168572D02*
X176348Y374939D01*
Y401874D02*
X191899D01*
X235403Y374939D02*
X250954D01*
X227628Y388406D02*
X235403Y401874D01*
X250954D02*
X258730Y388406D01*
X250954Y374939D02*
X258730Y388406D01*
X227628D02*
X235403Y374939D01*
Y401874D02*
X250954D01*
X235403Y325726D02*
X250954D01*
X227628Y339194D02*
X235403Y352661D01*
X250954D02*
X258730Y339194D01*
X250954Y325726D02*
X258730Y339194D01*
X227628D02*
X235403Y325726D01*
Y352661D02*
X250954D01*
X138365Y372461D02*
Y408716D01*
X138258Y318776D02*
Y355138D01*
X141407D01*
X317000Y333000D02*
Y353000D01*
X297000D02*
X317000D01*
X297000Y333000D02*
X317000D01*
X297000D02*
Y353000D01*
X215000Y251000D02*
Y271000D01*
X205500Y241500D02*
X215000Y251000D01*
X198047Y241500D02*
X205500D01*
X130000D02*
X150213D01*
X198047D02*
Y251343D01*
X150213D02*
X198047D01*
X150213Y231658D02*
Y251343D01*
Y231658D02*
X198047D01*
Y241500D01*
D30*
X382400Y254700D02*
Y260698D01*
X385399D01*
X386399Y259698D01*
Y257699D01*
X385399Y256699D01*
X382400D01*
X384399D02*
X386399Y254700D01*
X392397Y259698D02*
X391397Y260698D01*
X389398D01*
X388398Y259698D01*
Y258699D01*
X389398Y257699D01*
X391397D01*
X392397Y256699D01*
Y255700D01*
X391397Y254700D01*
X389398D01*
X388398Y255700D01*
X398395Y254700D02*
X394396D01*
X398395Y258699D01*
Y259698D01*
X397395Y260698D01*
X395396D01*
X394396Y259698D01*
X400394Y253700D02*
X404393D01*
X406392Y259698D02*
X407392Y260698D01*
X409391D01*
X410391Y259698D01*
Y258699D01*
X409391Y257699D01*
X408392D01*
X409391D01*
X410391Y256699D01*
Y255700D01*
X409391Y254700D01*
X407392D01*
X406392Y255700D01*
X547600Y361800D02*
Y367798D01*
X550599D01*
X551599Y366798D01*
Y364799D01*
X550599Y363799D01*
X547600D01*
X553598Y361800D02*
X555597D01*
X554598D01*
Y367798D01*
X553598Y366798D01*
X558596Y361800D02*
X560596D01*
X559596D01*
Y367798D01*
X558596Y366798D01*
X563595Y360800D02*
X567593D01*
X569593Y366798D02*
X570593Y367798D01*
X572592D01*
X573592Y366798D01*
Y365799D01*
X572592Y364799D01*
X571592D01*
X572592D01*
X573592Y363799D01*
Y362800D01*
X572592Y361800D01*
X570593D01*
X569593Y362800D01*
X392899Y422798D02*
X391899Y423798D01*
X389900D01*
X388900Y422798D01*
Y421799D01*
X389900Y420799D01*
X391899D01*
X392899Y419799D01*
Y418800D01*
X391899Y417800D01*
X389900D01*
X388900Y418800D01*
X398897Y417800D02*
X394898D01*
X398897Y421799D01*
Y422798D01*
X397897Y423798D01*
X395898D01*
X394898Y422798D01*
X400896Y416800D02*
X404895D01*
X406894Y422798D02*
X407894Y423798D01*
X409893D01*
X410893Y422798D01*
Y421799D01*
X409893Y420799D01*
X408893D01*
X409893D01*
X410893Y419799D01*
Y418800D01*
X409893Y417800D01*
X407894D01*
X406894Y418800D01*
X392899Y263698D02*
X391899Y264698D01*
X389900D01*
X388900Y263698D01*
Y262699D01*
X389900Y261699D01*
X391899D01*
X392899Y260699D01*
Y259700D01*
X391899Y258700D01*
X389900D01*
X388900Y259700D01*
X394898Y258700D02*
X396897D01*
X395898D01*
Y264698D01*
X394898Y263698D01*
X399896Y257700D02*
X403895D01*
X405895Y263698D02*
X406894Y264698D01*
X408893D01*
X409893Y263698D01*
Y262699D01*
X408893Y261699D01*
X407894D01*
X408893D01*
X409893Y260699D01*
Y259700D01*
X408893Y258700D01*
X406894D01*
X405895Y259700D01*
X468740Y222000D02*
X474738D01*
Y219001D01*
X473738Y218001D01*
X471739D01*
X470740Y219001D01*
Y222000D01*
Y220001D02*
X468740Y218001D01*
X473738Y212003D02*
X474738Y213003D01*
Y215002D01*
X473738Y216002D01*
X472739D01*
X471739Y215002D01*
Y213003D01*
X470740Y212003D01*
X469740D01*
X468740Y213003D01*
Y215002D01*
X469740Y216002D01*
X468740Y210004D02*
Y208004D01*
Y209004D01*
X474738D01*
X473738Y210004D01*
X467740Y205006D02*
Y201007D01*
X473738Y199007D02*
X474738Y198008D01*
Y196008D01*
X473738Y195009D01*
X472739D01*
X471739Y196008D01*
Y197008D01*
Y196008D01*
X470740Y195009D01*
X469740D01*
X468740Y196008D01*
Y198008D01*
X469740Y199007D01*
X429600Y450432D02*
Y456430D01*
X432599D01*
X433599Y455431D01*
Y453431D01*
X432599Y452432D01*
X429600D01*
X435598Y456430D02*
X439597D01*
Y455431D01*
X435598Y451432D01*
Y450432D01*
X441596Y449433D02*
X445595D01*
X447594Y455431D02*
X448594Y456430D01*
X450593D01*
X451593Y455431D01*
Y454431D01*
X450593Y453431D01*
X449593D01*
X450593D01*
X451593Y452432D01*
Y451432D01*
X450593Y450432D01*
X448594D01*
X447594Y451432D01*
X379900Y368400D02*
Y374398D01*
X382899D01*
X383899Y373398D01*
Y371399D01*
X382899Y370399D01*
X379900D01*
X388897Y368400D02*
Y374398D01*
X385898Y371399D01*
X389897D01*
X391896Y367400D02*
X395895D01*
X397894Y373398D02*
X398894Y374398D01*
X400893D01*
X401893Y373398D01*
Y372399D01*
X400893Y371399D01*
X399893D01*
X400893D01*
X401893Y370399D01*
Y369400D01*
X400893Y368400D01*
X398894D01*
X397894Y369400D01*
X520600Y450432D02*
Y456430D01*
X523599D01*
X524599Y455431D01*
Y453431D01*
X523599Y452432D01*
X520600D01*
X526598Y451432D02*
X527598Y450432D01*
X529597D01*
X530597Y451432D01*
Y455431D01*
X529597Y456430D01*
X527598D01*
X526598Y455431D01*
Y454431D01*
X527598Y453431D01*
X530597D01*
X532596Y449433D02*
X536595D01*
X538594Y455431D02*
X539594Y456430D01*
X541593D01*
X542593Y455431D01*
Y454431D01*
X541593Y453431D01*
X540593D01*
X541593D01*
X542593Y452432D01*
Y451432D01*
X541593Y450432D01*
X539594D01*
X538594Y451432D01*
X382400Y654700D02*
Y660698D01*
X385399D01*
X386399Y659698D01*
Y657699D01*
X385399Y656699D01*
X382400D01*
X384399D02*
X386399Y654700D01*
X392397Y659698D02*
X391397Y660698D01*
X389398D01*
X388398Y659698D01*
Y658699D01*
X389398Y657699D01*
X391397D01*
X392397Y656699D01*
Y655700D01*
X391397Y654700D01*
X389398D01*
X388398Y655700D01*
X398395Y654700D02*
X394396D01*
X398395Y658699D01*
Y659698D01*
X397395Y660698D01*
X395396D01*
X394396Y659698D01*
X400394Y653700D02*
X404393D01*
X410391Y654700D02*
X406392D01*
X410391Y658699D01*
Y659698D01*
X409391Y660698D01*
X407392D01*
X406392Y659698D01*
X547600Y761800D02*
Y767798D01*
X550599D01*
X551599Y766798D01*
Y764799D01*
X550599Y763799D01*
X547600D01*
X553598Y761800D02*
X555597D01*
X554598D01*
Y767798D01*
X553598Y766798D01*
X558596Y761800D02*
X560596D01*
X559596D01*
Y767798D01*
X558596Y766798D01*
X563595Y760800D02*
X567593D01*
X573592Y761800D02*
X569593D01*
X573592Y765799D01*
Y766798D01*
X572592Y767798D01*
X570593D01*
X569593Y766798D01*
X392899Y822798D02*
X391899Y823798D01*
X389900D01*
X388900Y822798D01*
Y821799D01*
X389900Y820799D01*
X391899D01*
X392899Y819799D01*
Y818800D01*
X391899Y817800D01*
X389900D01*
X388900Y818800D01*
X398897Y817800D02*
X394898D01*
X398897Y821799D01*
Y822798D01*
X397897Y823798D01*
X395898D01*
X394898Y822798D01*
X400896Y816800D02*
X404895D01*
X410893Y817800D02*
X406894D01*
X410893Y821799D01*
Y822798D01*
X409893Y823798D01*
X407894D01*
X406894Y822798D01*
X392899Y663698D02*
X391899Y664698D01*
X389900D01*
X388900Y663698D01*
Y662699D01*
X389900Y661699D01*
X391899D01*
X392899Y660699D01*
Y659700D01*
X391899Y658700D01*
X389900D01*
X388900Y659700D01*
X394898Y658700D02*
X396897D01*
X395898D01*
Y664698D01*
X394898Y663698D01*
X399896Y657700D02*
X403895D01*
X409893Y658700D02*
X405895D01*
X409893Y662699D01*
Y663698D01*
X408893Y664698D01*
X406894D01*
X405895Y663698D01*
X468740Y622000D02*
X474738D01*
Y619001D01*
X473738Y618001D01*
X471739D01*
X470740Y619001D01*
Y622000D01*
Y620001D02*
X468740Y618001D01*
X473738Y612003D02*
X474738Y613003D01*
Y615002D01*
X473738Y616002D01*
X472739D01*
X471739Y615002D01*
Y613003D01*
X470740Y612003D01*
X469740D01*
X468740Y613003D01*
Y615002D01*
X469740Y616002D01*
X468740Y610004D02*
Y608005D01*
Y609004D01*
X474738D01*
X473738Y610004D01*
X467740Y605006D02*
Y601007D01*
X468740Y595009D02*
Y599007D01*
X472739Y595009D01*
X473738D01*
X474738Y596008D01*
Y598008D01*
X473738Y599007D01*
X429600Y850432D02*
Y856430D01*
X432599D01*
X433599Y855431D01*
Y853431D01*
X432599Y852432D01*
X429600D01*
X435598Y856430D02*
X439597D01*
Y855431D01*
X435598Y851432D01*
Y850432D01*
X441596Y849433D02*
X445595D01*
X451593Y850432D02*
X447594D01*
X451593Y854431D01*
Y855431D01*
X450593Y856430D01*
X448594D01*
X447594Y855431D01*
X379900Y768400D02*
Y774398D01*
X382899D01*
X383899Y773398D01*
Y771399D01*
X382899Y770399D01*
X379900D01*
X388897Y768400D02*
Y774398D01*
X385898Y771399D01*
X389897D01*
X391896Y767400D02*
X395895D01*
X401893Y768400D02*
X397894D01*
X401893Y772399D01*
Y773398D01*
X400893Y774398D01*
X398894D01*
X397894Y773398D01*
X520600Y850432D02*
Y856430D01*
X523599D01*
X524599Y855431D01*
Y853431D01*
X523599Y852432D01*
X520600D01*
X526598Y851432D02*
X527598Y850432D01*
X529597D01*
X530597Y851432D01*
Y855431D01*
X529597Y856430D01*
X527598D01*
X526598Y855431D01*
Y854431D01*
X527598Y853431D01*
X530597D01*
X532596Y849433D02*
X536595D01*
X542593Y850432D02*
X538594D01*
X542593Y854431D01*
Y855431D01*
X541593Y856430D01*
X539594D01*
X538594Y855431D01*
X132400Y654700D02*
Y660698D01*
X135399D01*
X136399Y659698D01*
Y657699D01*
X135399Y656699D01*
X132400D01*
X134399D02*
X136399Y654700D01*
X142397Y659698D02*
X141397Y660698D01*
X139398D01*
X138398Y659698D01*
Y658699D01*
X139398Y657699D01*
X141397D01*
X142397Y656699D01*
Y655700D01*
X141397Y654700D01*
X139398D01*
X138398Y655700D01*
X148395Y654700D02*
X144396D01*
X148395Y658699D01*
Y659698D01*
X147395Y660698D01*
X145396D01*
X144396Y659698D01*
X150394Y653700D02*
X154393D01*
X156392Y654700D02*
X158392D01*
X157392D01*
Y660698D01*
X156392Y659698D01*
X297600Y761800D02*
Y767798D01*
X300599D01*
X301599Y766798D01*
Y764799D01*
X300599Y763799D01*
X297600D01*
X303598Y761800D02*
X305597D01*
X304598D01*
Y767798D01*
X303598Y766798D01*
X308596Y761800D02*
X310596D01*
X309596D01*
Y767798D01*
X308596Y766798D01*
X313595Y760800D02*
X317594D01*
X319593Y761800D02*
X321592D01*
X320593D01*
Y767798D01*
X319593Y766798D01*
X142899Y822798D02*
X141899Y823798D01*
X139900D01*
X138900Y822798D01*
Y821799D01*
X139900Y820799D01*
X141899D01*
X142899Y819799D01*
Y818800D01*
X141899Y817800D01*
X139900D01*
X138900Y818800D01*
X148897Y817800D02*
X144898D01*
X148897Y821799D01*
Y822798D01*
X147897Y823798D01*
X145898D01*
X144898Y822798D01*
X150896Y816800D02*
X154895D01*
X156894Y817800D02*
X158894D01*
X157894D01*
Y823798D01*
X156894Y822798D01*
X142899Y663698D02*
X141899Y664698D01*
X139900D01*
X138900Y663698D01*
Y662699D01*
X139900Y661699D01*
X141899D01*
X142899Y660699D01*
Y659700D01*
X141899Y658700D01*
X139900D01*
X138900Y659700D01*
X144898Y658700D02*
X146897D01*
X145898D01*
Y664698D01*
X144898Y663698D01*
X149896Y657700D02*
X153895D01*
X155894Y658700D02*
X157894D01*
X156894D01*
Y664698D01*
X155894Y663698D01*
X218740Y622000D02*
X224738D01*
Y619001D01*
X223739Y618001D01*
X221739D01*
X220740Y619001D01*
Y622000D01*
Y620001D02*
X218740Y618001D01*
X223739Y612003D02*
X224738Y613003D01*
Y615002D01*
X223739Y616002D01*
X222739D01*
X221739Y615002D01*
Y613003D01*
X220740Y612003D01*
X219740D01*
X218740Y613003D01*
Y615002D01*
X219740Y616002D01*
X218740Y610004D02*
Y608005D01*
Y609004D01*
X224738D01*
X223739Y610004D01*
X217741Y605006D02*
Y601007D01*
X218740Y599007D02*
Y597008D01*
Y598008D01*
X224738D01*
X223739Y599007D01*
X179600Y850432D02*
Y856430D01*
X182599D01*
X183599Y855431D01*
Y853431D01*
X182599Y852432D01*
X179600D01*
X185598Y856430D02*
X189597D01*
Y855431D01*
X185598Y851432D01*
Y850432D01*
X191596Y849433D02*
X195595D01*
X197594Y850432D02*
X199593D01*
X198594D01*
Y856430D01*
X197594Y855431D01*
X129900Y768400D02*
Y774398D01*
X132899D01*
X133899Y773398D01*
Y771399D01*
X132899Y770399D01*
X129900D01*
X138897Y768400D02*
Y774398D01*
X135898Y771399D01*
X139897D01*
X141896Y767400D02*
X145895D01*
X147894Y768400D02*
X149893D01*
X148894D01*
Y774398D01*
X147894Y773398D01*
X270600Y850432D02*
Y856430D01*
X273599D01*
X274599Y855431D01*
Y853431D01*
X273599Y852432D01*
X270600D01*
X276598Y851432D02*
X277598Y850432D01*
X279597D01*
X280597Y851432D01*
Y855431D01*
X279597Y856430D01*
X277598D01*
X276598Y855431D01*
Y854431D01*
X277598Y853431D01*
X280597D01*
X282596Y849433D02*
X286595D01*
X288594Y850432D02*
X290594D01*
X289594D01*
Y856430D01*
X288594Y855431D01*
X270600Y450432D02*
Y456430D01*
X273599D01*
X274599Y455431D01*
Y453431D01*
X273599Y452432D01*
X270600D01*
X276598Y451432D02*
X277598Y450432D01*
X279597D01*
X280597Y451432D01*
Y455431D01*
X279597Y456430D01*
X277598D01*
X276598Y455431D01*
Y454431D01*
X277598Y453431D01*
X280597D01*
X129900Y368400D02*
Y374398D01*
X132899D01*
X133899Y373398D01*
Y371399D01*
X132899Y370399D01*
X129900D01*
X138897Y368400D02*
Y374398D01*
X135898Y371399D01*
X139897D01*
X179600Y450432D02*
Y456430D01*
X182599D01*
X183599Y455431D01*
Y453431D01*
X182599Y452432D01*
X179600D01*
X185598Y456430D02*
X189597D01*
Y455431D01*
X185598Y451432D01*
Y450432D01*
X218740Y222000D02*
X224738D01*
Y219001D01*
X223739Y218001D01*
X221739D01*
X220740Y219001D01*
Y222000D01*
Y220001D02*
X218740Y218001D01*
X223739Y212003D02*
X224738Y213003D01*
Y215002D01*
X223739Y216002D01*
X222739D01*
X221739Y215002D01*
Y213003D01*
X220740Y212003D01*
X219740D01*
X218740Y213003D01*
Y215002D01*
X219740Y216002D01*
X218740Y210004D02*
Y208004D01*
Y209004D01*
X224738D01*
X223739Y210004D01*
X142899Y263698D02*
X141899Y264698D01*
X139900D01*
X138900Y263698D01*
Y262699D01*
X139900Y261699D01*
X141899D01*
X142899Y260699D01*
Y259700D01*
X141899Y258700D01*
X139900D01*
X138900Y259700D01*
X144898Y258700D02*
X146897D01*
X145898D01*
Y264698D01*
X144898Y263698D01*
X142899Y422798D02*
X141899Y423798D01*
X139900D01*
X138900Y422798D01*
Y421799D01*
X139900Y420799D01*
X141899D01*
X142899Y419799D01*
Y418800D01*
X141899Y417800D01*
X139900D01*
X138900Y418800D01*
X148897Y417800D02*
X144898D01*
X148897Y421799D01*
Y422798D01*
X147897Y423798D01*
X145898D01*
X144898Y422798D01*
X297600Y361800D02*
Y367798D01*
X300599D01*
X301599Y366798D01*
Y364799D01*
X300599Y363799D01*
X297600D01*
X303598Y361800D02*
X305597D01*
X304598D01*
Y367798D01*
X303598Y366798D01*
X308596Y361800D02*
X310596D01*
X309596D01*
Y367798D01*
X308596Y366798D01*
X132400Y254700D02*
Y260698D01*
X135399D01*
X136399Y259698D01*
Y257699D01*
X135399Y256699D01*
X132400D01*
X134399D02*
X136399Y254700D01*
X142397Y259698D02*
X141397Y260698D01*
X139398D01*
X138398Y259698D01*
Y258699D01*
X139398Y257699D01*
X141397D01*
X142397Y256699D01*
Y255700D01*
X141397Y254700D01*
X139398D01*
X138398Y255700D01*
X148395Y254700D02*
X144396D01*
X148395Y258699D01*
Y259698D01*
X147395Y260698D01*
X145396D01*
X144396Y259698D01*
D31*
X550000Y356000D02*
Y354334D01*
Y355167D01*
X554998D01*
X554165Y356000D01*
X560000Y354668D02*
Y358000D01*
X563332Y354668D01*
X564165D01*
X564998Y355501D01*
Y357167D01*
X564165Y358000D01*
X560000Y329501D02*
X564998D01*
X562499Y332000D01*
Y328668D01*
X554165Y332000D02*
X554998Y331167D01*
Y329501D01*
X554165Y328668D01*
X553332D01*
X552499Y329501D01*
Y330334D01*
Y329501D01*
X551666Y328668D01*
X550833D01*
X550000Y329501D01*
Y331167D01*
X550833Y332000D01*
X446000Y419332D02*
Y420998D01*
Y420165D01*
X441002D01*
X441835Y419332D01*
X436000Y420665D02*
Y417332D01*
X432668Y420665D01*
X431835D01*
X431002Y419832D01*
Y418165D01*
X431835Y417332D01*
X436000Y445831D02*
X431002D01*
X433501Y443332D01*
Y446664D01*
X441835Y443332D02*
X441002Y444165D01*
Y445831D01*
X441835Y446664D01*
X442668D01*
X443501Y445831D01*
Y444998D01*
Y445831D01*
X444334Y446664D01*
X445167D01*
X446000Y445831D01*
Y444165D01*
X445167Y443332D01*
X407000Y362000D02*
X405334D01*
X406167D01*
Y357002D01*
X407000Y357835D01*
X405668Y352000D02*
X409000D01*
X405668Y348668D01*
Y347835D01*
X406501Y347002D01*
X408167D01*
X409000Y347835D01*
X380501Y352000D02*
Y347002D01*
X383000Y349501D01*
X379668D01*
X383000Y357835D02*
X382167Y357002D01*
X380501D01*
X379668Y357835D01*
Y358668D01*
X380501Y359501D01*
X381334D01*
X380501D01*
X379668Y360334D01*
Y361167D01*
X380501Y362000D01*
X382167D01*
X383000Y361167D01*
X537000Y419332D02*
Y420998D01*
Y420165D01*
X532002D01*
X532835Y419332D01*
X527000Y420665D02*
Y417332D01*
X523668Y420665D01*
X522835D01*
X522002Y419832D01*
Y418165D01*
X522835Y417332D01*
X527000Y445831D02*
X522002D01*
X524501Y443332D01*
Y446664D01*
X532835Y443332D02*
X532002Y444165D01*
Y445831D01*
X532835Y446664D01*
X533668D01*
X534501Y445831D01*
Y444998D01*
Y445831D01*
X535334Y446664D01*
X536167D01*
X537000Y445831D01*
Y444165D01*
X536167Y443332D01*
X550000Y756000D02*
Y754334D01*
Y755167D01*
X554998D01*
X554165Y756000D01*
X560000Y754668D02*
Y758000D01*
X563332Y754668D01*
X564165D01*
X564998Y755501D01*
Y757167D01*
X564165Y758000D01*
X560000Y729501D02*
X564998D01*
X562499Y732000D01*
Y728668D01*
X554165Y732000D02*
X554998Y731167D01*
Y729501D01*
X554165Y728668D01*
X553332D01*
X552499Y729501D01*
Y730334D01*
Y729501D01*
X551666Y728668D01*
X550833D01*
X550000Y729501D01*
Y731167D01*
X550833Y732000D01*
X446000Y819332D02*
Y820998D01*
Y820165D01*
X441002D01*
X441835Y819332D01*
X436000Y820665D02*
Y817332D01*
X432668Y820665D01*
X431835D01*
X431002Y819831D01*
Y818165D01*
X431835Y817332D01*
X436000Y845831D02*
X431002D01*
X433501Y843332D01*
Y846665D01*
X441835Y843332D02*
X441002Y844165D01*
Y845831D01*
X441835Y846665D01*
X442668D01*
X443501Y845831D01*
Y844998D01*
Y845831D01*
X444334Y846665D01*
X445167D01*
X446000Y845831D01*
Y844165D01*
X445167Y843332D01*
X407000Y762000D02*
X405334D01*
X406167D01*
Y757002D01*
X407000Y757835D01*
X405668Y752000D02*
X409000D01*
X405668Y748668D01*
Y747835D01*
X406501Y747002D01*
X408167D01*
X409000Y747835D01*
X380501Y752000D02*
Y747002D01*
X383000Y749501D01*
X379668D01*
X383000Y757835D02*
X382167Y757002D01*
X380501D01*
X379668Y757835D01*
Y758668D01*
X380501Y759501D01*
X381334D01*
X380501D01*
X379668Y760334D01*
Y761167D01*
X380501Y762000D01*
X382167D01*
X383000Y761167D01*
X537000Y819332D02*
Y820998D01*
Y820165D01*
X532002D01*
X532835Y819332D01*
X527000Y820665D02*
Y817332D01*
X523668Y820665D01*
X522835D01*
X522002Y819831D01*
Y818165D01*
X522835Y817332D01*
X527000Y845831D02*
X522002D01*
X524501Y843332D01*
Y846665D01*
X532835Y843332D02*
X532002Y844165D01*
Y845831D01*
X532835Y846665D01*
X533668D01*
X534501Y845831D01*
Y844998D01*
Y845831D01*
X535334Y846665D01*
X536167D01*
X537000Y845831D01*
Y844165D01*
X536167Y843332D01*
X300000Y756000D02*
Y754334D01*
Y755167D01*
X304998D01*
X304165Y756000D01*
X310000Y754668D02*
Y758000D01*
X313332Y754668D01*
X314165D01*
X314998Y755501D01*
Y757167D01*
X314165Y758000D01*
X310000Y729501D02*
X314998D01*
X312499Y732000D01*
Y728668D01*
X304165Y732000D02*
X304998Y731167D01*
Y729501D01*
X304165Y728668D01*
X303332D01*
X302499Y729501D01*
Y730334D01*
Y729501D01*
X301666Y728668D01*
X300833D01*
X300000Y729501D01*
Y731167D01*
X300833Y732000D01*
X196000Y819332D02*
Y820998D01*
Y820165D01*
X191002D01*
X191835Y819332D01*
X186000Y820665D02*
Y817332D01*
X182668Y820665D01*
X181835D01*
X181002Y819831D01*
Y818165D01*
X181835Y817332D01*
X186000Y845831D02*
X181002D01*
X183501Y843332D01*
Y846665D01*
X191835Y843332D02*
X191002Y844165D01*
Y845831D01*
X191835Y846665D01*
X192668D01*
X193501Y845831D01*
Y844998D01*
Y845831D01*
X194334Y846665D01*
X195167D01*
X196000Y845831D01*
Y844165D01*
X195167Y843332D01*
X157000Y762000D02*
X155334D01*
X156167D01*
Y757002D01*
X157000Y757835D01*
X155668Y752000D02*
X159000D01*
X155668Y748668D01*
Y747835D01*
X156501Y747002D01*
X158167D01*
X159000Y747835D01*
X130501Y752000D02*
Y747002D01*
X133000Y749501D01*
X129668D01*
X133000Y757835D02*
X132167Y757002D01*
X130501D01*
X129668Y757835D01*
Y758668D01*
X130501Y759501D01*
X131334D01*
X130501D01*
X129668Y760334D01*
Y761167D01*
X130501Y762000D01*
X132167D01*
X133000Y761167D01*
X287000Y819332D02*
Y820998D01*
Y820165D01*
X282002D01*
X282835Y819332D01*
X277000Y820665D02*
Y817332D01*
X273668Y820665D01*
X272835D01*
X272002Y819831D01*
Y818165D01*
X272835Y817332D01*
X277000Y845831D02*
X272002D01*
X274501Y843332D01*
Y846665D01*
X282835Y843332D02*
X282002Y844165D01*
Y845831D01*
X282835Y846665D01*
X283668D01*
X284501Y845831D01*
Y844998D01*
Y845831D01*
X285334Y846665D01*
X286167D01*
X287000Y845831D01*
Y844165D01*
X286167Y843332D01*
X287000Y419332D02*
Y420998D01*
Y420165D01*
X282002D01*
X282835Y419332D01*
X277000Y420665D02*
Y417332D01*
X273668Y420665D01*
X272835D01*
X272002Y419832D01*
Y418165D01*
X272835Y417332D01*
X277000Y445831D02*
X272002D01*
X274501Y443332D01*
Y446664D01*
X282835Y443332D02*
X282002Y444165D01*
Y445831D01*
X282835Y446664D01*
X283668D01*
X284501Y445831D01*
Y444998D01*
Y445831D01*
X285334Y446664D01*
X286167D01*
X287000Y445831D01*
Y444165D01*
X286167Y443332D01*
X157000Y362000D02*
X155334D01*
X156167D01*
Y357002D01*
X157000Y357835D01*
X155668Y352000D02*
X159000D01*
X155668Y348668D01*
Y347835D01*
X156501Y347002D01*
X158167D01*
X159000Y347835D01*
X130501Y352000D02*
Y347002D01*
X133000Y349501D01*
X129668D01*
X133000Y357835D02*
X132167Y357002D01*
X130501D01*
X129668Y357835D01*
Y358668D01*
X130501Y359501D01*
X131334D01*
X130501D01*
X129668Y360334D01*
Y361167D01*
X130501Y362000D01*
X132167D01*
X133000Y361167D01*
X196000Y419332D02*
Y420998D01*
Y420165D01*
X191002D01*
X191835Y419332D01*
X186000Y420665D02*
Y417332D01*
X182668Y420665D01*
X181835D01*
X181002Y419832D01*
Y418165D01*
X181835Y417332D01*
X186000Y445831D02*
X181002D01*
X183501Y443332D01*
Y446664D01*
X191835Y443332D02*
X191002Y444165D01*
Y445831D01*
X191835Y446664D01*
X192668D01*
X193501Y445831D01*
Y444998D01*
Y445831D01*
X194334Y446664D01*
X195167D01*
X196000Y445831D01*
Y444165D01*
X195167Y443332D01*
X300000Y356000D02*
Y354334D01*
Y355167D01*
X304998D01*
X304165Y356000D01*
X310000Y354668D02*
Y358000D01*
X313332Y354668D01*
X314165D01*
X314998Y355501D01*
Y357167D01*
X314165Y358000D01*
X310000Y329501D02*
X314998D01*
X312499Y332000D01*
Y328668D01*
X304165Y332000D02*
X304998Y331167D01*
Y329501D01*
X304165Y328668D01*
X303332D01*
X302499Y329501D01*
Y330334D01*
Y329501D01*
X301666Y328668D01*
X300833D01*
X300000Y329501D01*
Y331167D01*
X300833Y332000D01*
D32*
X517590Y395888D02*
X518573Y394904D01*
X520541D01*
X521525Y395888D01*
Y396872D01*
X520541Y397856D01*
X518573D01*
X517590Y398840D01*
Y399824D01*
X518573Y400808D01*
X520541D01*
X521525Y399824D01*
X406172Y397069D02*
X407156Y396085D01*
X409124D01*
X410108Y397069D01*
Y401005D01*
X409124Y401989D01*
X407156D01*
X406172Y401005D01*
Y399037D01*
X408140D01*
X410108Y326007D02*
Y331910D01*
X407156D01*
X406172Y330926D01*
Y326990D01*
X407156Y326007D01*
X410108D01*
X518377Y327778D02*
X519361Y326794D01*
X521329D01*
X522313Y327778D01*
Y328762D01*
X521329Y329746D01*
X519361D01*
X518377Y330730D01*
Y331714D01*
X519361Y332698D01*
X521329D01*
X522313Y331714D01*
X409713Y172612D02*
X408729Y173596D01*
X406761D01*
X405777Y172612D01*
Y171628D01*
X406761Y170644D01*
X408729D01*
X409713Y169660D01*
Y168676D01*
X408729Y167692D01*
X406761D01*
X405777Y168676D01*
X521130Y171431D02*
X520146Y172415D01*
X518178D01*
X517195Y171431D01*
Y167495D01*
X518178Y166511D01*
X520146D01*
X521130Y167495D01*
Y169463D01*
X519162D01*
X517195Y242493D02*
Y236590D01*
X520146D01*
X521130Y237574D01*
Y241510D01*
X520146Y242493D01*
X517195D01*
X408925Y240722D02*
X407942Y241706D01*
X405974D01*
X404990Y240722D01*
Y239738D01*
X405974Y238754D01*
X407942D01*
X408925Y237770D01*
Y236786D01*
X407942Y235802D01*
X405974D01*
X404990Y236786D01*
X517590Y795888D02*
X518573Y794904D01*
X520541D01*
X521525Y795888D01*
Y796872D01*
X520541Y797856D01*
X518573D01*
X517590Y798840D01*
Y799824D01*
X518573Y800808D01*
X520541D01*
X521525Y799824D01*
X406172Y797069D02*
X407156Y796085D01*
X409124D01*
X410108Y797069D01*
Y801005D01*
X409124Y801989D01*
X407156D01*
X406172Y801005D01*
Y799037D01*
X408140D01*
X410108Y726007D02*
Y731910D01*
X407156D01*
X406172Y730926D01*
Y726990D01*
X407156Y726007D01*
X410108D01*
X518377Y727778D02*
X519361Y726794D01*
X521329D01*
X522313Y727778D01*
Y728762D01*
X521329Y729746D01*
X519361D01*
X518377Y730730D01*
Y731714D01*
X519361Y732697D01*
X521329D01*
X522313Y731714D01*
X409713Y572612D02*
X408729Y573596D01*
X406761D01*
X405777Y572612D01*
Y571628D01*
X406761Y570644D01*
X408729D01*
X409713Y569660D01*
Y568676D01*
X408729Y567692D01*
X406761D01*
X405777Y568676D01*
X521130Y571431D02*
X520146Y572415D01*
X518178D01*
X517195Y571431D01*
Y567495D01*
X518178Y566511D01*
X520146D01*
X521130Y567495D01*
Y569463D01*
X519162D01*
X517195Y642493D02*
Y636590D01*
X520146D01*
X521130Y637574D01*
Y641509D01*
X520146Y642493D01*
X517195D01*
X408925Y640722D02*
X407942Y641706D01*
X405974D01*
X404990Y640722D01*
Y639738D01*
X405974Y638754D01*
X407942D01*
X408925Y637770D01*
Y636786D01*
X407942Y635802D01*
X405974D01*
X404990Y636786D01*
X267589Y795888D02*
X268573Y794904D01*
X270541D01*
X271525Y795888D01*
Y796872D01*
X270541Y797856D01*
X268573D01*
X267589Y798840D01*
Y799824D01*
X268573Y800808D01*
X270541D01*
X271525Y799824D01*
X156172Y797069D02*
X157156Y796085D01*
X159124D01*
X160108Y797069D01*
Y801005D01*
X159124Y801989D01*
X157156D01*
X156172Y801005D01*
Y799037D01*
X158140D01*
X160108Y726007D02*
Y731910D01*
X157156D01*
X156172Y730926D01*
Y726990D01*
X157156Y726007D01*
X160108D01*
X268377Y727778D02*
X269361Y726794D01*
X271329D01*
X272313Y727778D01*
Y728762D01*
X271329Y729746D01*
X269361D01*
X268377Y730730D01*
Y731714D01*
X269361Y732697D01*
X271329D01*
X272313Y731714D01*
X159713Y572612D02*
X158729Y573596D01*
X156761D01*
X155777Y572612D01*
Y571628D01*
X156761Y570644D01*
X158729D01*
X159713Y569660D01*
Y568676D01*
X158729Y567692D01*
X156761D01*
X155777Y568676D01*
X271130Y571431D02*
X270146Y572415D01*
X268178D01*
X267195Y571431D01*
Y567495D01*
X268178Y566511D01*
X270146D01*
X271130Y567495D01*
Y569463D01*
X269162D01*
X267195Y642493D02*
Y636590D01*
X270146D01*
X271130Y637574D01*
Y641509D01*
X270146Y642493D01*
X267195D01*
X158925Y640722D02*
X157942Y641706D01*
X155974D01*
X154990Y640722D01*
Y639738D01*
X155974Y638754D01*
X157942D01*
X158925Y637770D01*
Y636786D01*
X157942Y635802D01*
X155974D01*
X154990Y636786D01*
X159713Y172612D02*
X158729Y173596D01*
X156761D01*
X155777Y172612D01*
Y171628D01*
X156761Y170644D01*
X158729D01*
X159713Y169660D01*
Y168676D01*
X158729Y167692D01*
X156761D01*
X155777Y168676D01*
X271130Y171431D02*
X270146Y172415D01*
X268178D01*
X267195Y171431D01*
Y167495D01*
X268178Y166511D01*
X270146D01*
X271130Y167495D01*
Y169463D01*
X269162D01*
X267195Y242493D02*
Y236590D01*
X270146D01*
X271130Y237574D01*
Y241510D01*
X270146Y242493D01*
X267195D01*
X158925Y240722D02*
X157942Y241706D01*
X155974D01*
X154990Y240722D01*
Y239738D01*
X155974Y238754D01*
X157942D01*
X158925Y237770D01*
Y236786D01*
X157942Y235802D01*
X155974D01*
X154990Y236786D01*
X267589Y395888D02*
X268573Y394904D01*
X270541D01*
X271525Y395888D01*
Y396872D01*
X270541Y397856D01*
X268573D01*
X267589Y398840D01*
Y399824D01*
X268573Y400808D01*
X270541D01*
X271525Y399824D01*
X156172Y397069D02*
X157156Y396085D01*
X159124D01*
X160108Y397069D01*
Y401005D01*
X159124Y401989D01*
X157156D01*
X156172Y401005D01*
Y399037D01*
X158140D01*
X160108Y326007D02*
Y331910D01*
X157156D01*
X156172Y330926D01*
Y326990D01*
X157156Y326007D01*
X160108D01*
X268377Y327778D02*
X269361Y326794D01*
X271329D01*
X272313Y327778D01*
Y328762D01*
X271329Y329746D01*
X269361D01*
X268377Y330730D01*
Y331714D01*
X269361Y332698D01*
X271329D01*
X272313Y331714D01*
M02*
